%TF.GenerationSoftware,KiCad,Pcbnew,10.0.5*%
%TF.CreationDate,2026-08-01T13:24:11-04:00*%
%TF.ProjectId,lumary-brain,6c756d61-7279-42d6-9272-61696e2e6b69,rev?*%
%TF.SameCoordinates,Original*%
%TF.FileFunction,Copper,L1,Top*%
%TF.FilePolarity,Positive*%
%FSLAX46Y46*%
G04 Gerber Fmt 4.6, Leading zero omitted, Abs format (unit mm)*
G04 Created by KiCad (PCBNEW 10.0.5) date 2026-08-01 13:24:11*
%MOMM*%
%LPD*%
G01*
G04 APERTURE LIST*
G04 Aperture macros list*
%AMRoundRect*
0 Rectangle with rounded corners*
0 $1 Rounding radius*
0 $2 $3 $4 $5 $6 $7 $8 $9 X,Y pos of 4 corners*
0 Add a 4 corners polygon primitive as box body*
4,1,4,$2,$3,$4,$5,$6,$7,$8,$9,$2,$3,0*
0 Add four circle primitives for the rounded corners*
1,1,$1+$1,$2,$3*
1,1,$1+$1,$4,$5*
1,1,$1+$1,$6,$7*
1,1,$1+$1,$8,$9*
0 Add four rect primitives between the rounded corners*
20,1,$1+$1,$2,$3,$4,$5,0*
20,1,$1+$1,$4,$5,$6,$7,0*
20,1,$1+$1,$6,$7,$8,$9,0*
20,1,$1+$1,$8,$9,$2,$3,0*%
%AMOutline5P*
0 Free polygon, 5 corners , with rotation*
0 The origin of the aperture is its center*
0 number of corners: always 5*
0 $1 to $10 corner X, Y*
0 $11 Rotation angle, in degrees counterclockwise*
0 create outline with 5 corners*
4,1,5,$1,$2,$3,$4,$5,$6,$7,$8,$9,$10,$1,$2,$11*%
%AMOutline6P*
0 Free polygon, 6 corners , with rotation*
0 The origin of the aperture is its center*
0 number of corners: always 6*
0 $1 to $12 corner X, Y*
0 $13 Rotation angle, in degrees counterclockwise*
0 create outline with 6 corners*
4,1,6,$1,$2,$3,$4,$5,$6,$7,$8,$9,$10,$11,$12,$1,$2,$13*%
%AMOutline7P*
0 Free polygon, 7 corners , with rotation*
0 The origin of the aperture is its center*
0 number of corners: always 7*
0 $1 to $14 corner X, Y*
0 $15 Rotation angle, in degrees counterclockwise*
0 create outline with 7 corners*
4,1,7,$1,$2,$3,$4,$5,$6,$7,$8,$9,$10,$11,$12,$13,$14,$1,$2,$15*%
%AMOutline8P*
0 Free polygon, 8 corners , with rotation*
0 The origin of the aperture is its center*
0 number of corners: always 8*
0 $1 to $16 corner X, Y*
0 $17 Rotation angle, in degrees counterclockwise*
0 create outline with 8 corners*
4,1,8,$1,$2,$3,$4,$5,$6,$7,$8,$9,$10,$11,$12,$13,$14,$15,$16,$1,$2,$17*%
G04 Aperture macros list end*
%TA.AperFunction,SMDPad,CuDef*%
%ADD10R,1.550000X1.000000*%
%TD*%
%TA.AperFunction,SMDPad,CuDef*%
%ADD11RoundRect,0.225000X-0.225000X-0.250000X0.225000X-0.250000X0.225000X0.250000X-0.225000X0.250000X0*%
%TD*%
%TA.AperFunction,SMDPad,CuDef*%
%ADD12RoundRect,0.250000X-1.000000X-0.650000X1.000000X-0.650000X1.000000X0.650000X-1.000000X0.650000X0*%
%TD*%
%TA.AperFunction,SMDPad,CuDef*%
%ADD13RoundRect,0.140000X0.170000X-0.140000X0.170000X0.140000X-0.170000X0.140000X-0.170000X-0.140000X0*%
%TD*%
%TA.AperFunction,SMDPad,CuDef*%
%ADD14RoundRect,0.150000X0.150000X-0.512500X0.150000X0.512500X-0.150000X0.512500X-0.150000X-0.512500X0*%
%TD*%
%TA.AperFunction,SMDPad,CuDef*%
%ADD15RoundRect,0.150000X-0.512500X-0.150000X0.512500X-0.150000X0.512500X0.150000X-0.512500X0.150000X0*%
%TD*%
%TA.AperFunction,SMDPad,CuDef*%
%ADD16RoundRect,0.135000X-0.135000X-0.185000X0.135000X-0.185000X0.135000X0.185000X-0.135000X0.185000X0*%
%TD*%
%TA.AperFunction,SMDPad,CuDef*%
%ADD17RoundRect,0.225000X-0.250000X0.225000X-0.250000X-0.225000X0.250000X-0.225000X0.250000X0.225000X0*%
%TD*%
%TA.AperFunction,SMDPad,CuDef*%
%ADD18RoundRect,0.225000X0.250000X-0.225000X0.250000X0.225000X-0.250000X0.225000X-0.250000X-0.225000X0*%
%TD*%
%TA.AperFunction,SMDPad,CuDef*%
%ADD19RoundRect,0.225000X-0.225000X-0.375000X0.225000X-0.375000X0.225000X0.375000X-0.225000X0.375000X0*%
%TD*%
%TA.AperFunction,SMDPad,CuDef*%
%ADD20RoundRect,0.135000X0.185000X-0.135000X0.185000X0.135000X-0.185000X0.135000X-0.185000X-0.135000X0*%
%TD*%
%TA.AperFunction,ComponentPad*%
%ADD21RoundRect,0.200000X0.450000X-0.200000X0.450000X0.200000X-0.450000X0.200000X-0.450000X-0.200000X0*%
%TD*%
%TA.AperFunction,ComponentPad*%
%ADD22O,1.300000X0.800000*%
%TD*%
%TA.AperFunction,SMDPad,CuDef*%
%ADD23RoundRect,0.150000X0.150000X-0.587500X0.150000X0.587500X-0.150000X0.587500X-0.150000X-0.587500X0*%
%TD*%
%TA.AperFunction,SMDPad,CuDef*%
%ADD24RoundRect,0.225000X0.225000X0.250000X-0.225000X0.250000X-0.225000X-0.250000X0.225000X-0.250000X0*%
%TD*%
%TA.AperFunction,SMDPad,CuDef*%
%ADD25RoundRect,0.250000X0.475000X-0.250000X0.475000X0.250000X-0.475000X0.250000X-0.475000X-0.250000X0*%
%TD*%
%TA.AperFunction,SMDPad,CuDef*%
%ADD26RoundRect,0.150000X-0.150000X-0.575000X0.150000X-0.575000X0.150000X0.575000X-0.150000X0.575000X0*%
%TD*%
%TA.AperFunction,SMDPad,CuDef*%
%ADD27RoundRect,0.075000X-0.075000X-0.650000X0.075000X-0.650000X0.075000X0.650000X-0.075000X0.650000X0*%
%TD*%
%TA.AperFunction,ComponentPad*%
%ADD28O,1.000000X2.100000*%
%TD*%
%TA.AperFunction,ComponentPad*%
%ADD29O,1.000000X1.600000*%
%TD*%
%TA.AperFunction,ComponentPad*%
%ADD30RoundRect,0.250000X-0.625000X0.350000X-0.625000X-0.350000X0.625000X-0.350000X0.625000X0.350000X0*%
%TD*%
%TA.AperFunction,ComponentPad*%
%ADD31O,1.750000X1.200000*%
%TD*%
%TA.AperFunction,SMDPad,CuDef*%
%ADD32R,0.400000X0.800000*%
%TD*%
%TA.AperFunction,SMDPad,CuDef*%
%ADD33R,0.800000X0.400000*%
%TD*%
%TA.AperFunction,HeatsinkPad*%
%ADD34Outline5P,-0.725000X0.130500X-0.130500X0.725000X0.725000X0.725000X0.725000X-0.725000X-0.725000X-0.725000X90.000000*%
%TD*%
%TA.AperFunction,HeatsinkPad*%
%ADD35R,1.450000X1.450000*%
%TD*%
%TA.AperFunction,SMDPad,CuDef*%
%ADD36R,0.700000X0.700000*%
%TD*%
%TA.AperFunction,SMDPad,CuDef*%
%ADD37RoundRect,0.140000X-0.170000X0.140000X-0.170000X-0.140000X0.170000X-0.140000X0.170000X0.140000X0*%
%TD*%
%TA.AperFunction,ViaPad*%
%ADD38C,0.600000*%
%TD*%
%TA.AperFunction,Conductor*%
%ADD39C,0.200000*%
%TD*%
G04 APERTURE END LIST*
D10*
%TO.P,SW2,1*%
%TO.N,EN*%
X146107447Y-106550000D03*
X151357447Y-106550000D03*
%TO.P,SW2,2*%
%TO.N,GND*%
X146107447Y-108250000D03*
X151357447Y-108250000D03*
%TD*%
D11*
%TO.P,C4,1*%
%TO.N,+4V7*%
X168332447Y-93937500D03*
%TO.P,C4,2*%
%TO.N,GND*%
X169882447Y-93937500D03*
%TD*%
D12*
%TO.P,D3,1*%
%TO.N,+4V7_IN*%
X137207447Y-100150000D03*
%TO.P,D3,2*%
%TO.N,GND*%
X141207447Y-100150000D03*
%TD*%
D13*
%TO.P,C6,1*%
%TO.N,+3V3*%
X133007447Y-98580000D03*
%TO.P,C6,2*%
%TO.N,GND*%
X133007447Y-97620000D03*
%TD*%
D14*
%TO.P,U3,1*%
%TO.N,GND*%
X171507447Y-87700000D03*
%TO.P,U3,2*%
%TO.N,RING_DATA_3V3*%
X172457447Y-87700000D03*
%TO.P,U3,3*%
%TO.N,GND*%
X173407447Y-87700000D03*
%TO.P,U3,4*%
%TO.N,RING_BUF_OUT*%
X173407447Y-85425000D03*
%TO.P,U3,5*%
%TO.N,+4V7*%
X171507447Y-85425000D03*
%TD*%
D15*
%TO.P,U4,1*%
%TO.N,USB_DP*%
X158332447Y-97900000D03*
%TO.P,U4,2*%
%TO.N,GND*%
X158332447Y-98850000D03*
%TO.P,U4,3*%
%TO.N,USB_DM*%
X158332447Y-99800000D03*
%TO.P,U4,4*%
X160607447Y-99800000D03*
%TO.P,U4,5*%
%TO.N,VBUS*%
X160607447Y-98850000D03*
%TO.P,U4,6*%
%TO.N,USB_DP*%
X160607447Y-97900000D03*
%TD*%
D16*
%TO.P,R2,1*%
%TO.N,WW_PWM*%
X156297447Y-90700000D03*
%TO.P,R2,2*%
%TO.N,WW_GATE*%
X157317447Y-90700000D03*
%TD*%
D17*
%TO.P,C2,1*%
%TO.N,+3V3*%
X150632447Y-84900000D03*
%TO.P,C2,2*%
%TO.N,GND*%
X150632447Y-86450000D03*
%TD*%
D18*
%TO.P,C5,1*%
%TO.N,+3V3*%
X134607447Y-98700000D03*
%TO.P,C5,2*%
%TO.N,GND*%
X134607447Y-97150000D03*
%TD*%
D14*
%TO.P,U2,1*%
%TO.N,LDO_IN*%
X153407447Y-86675000D03*
%TO.P,U2,2*%
%TO.N,GND*%
X154357447Y-86675000D03*
%TO.P,U2,3*%
%TO.N,LDO_IN*%
X155307447Y-86675000D03*
%TO.P,U2,4*%
%TO.N,N/C*%
X155307447Y-84400000D03*
%TO.P,U2,5*%
%TO.N,+3V3*%
X153407447Y-84400000D03*
%TD*%
D19*
%TO.P,D1,1*%
%TO.N,LDO_IN*%
X162907447Y-87900000D03*
%TO.P,D1,2*%
%TO.N,+4V7*%
X166207447Y-87900000D03*
%TD*%
D20*
%TO.P,R7,1*%
%TO.N,CC1*%
X155807447Y-100810000D03*
%TO.P,R7,2*%
%TO.N,GND*%
X155807447Y-99790000D03*
%TD*%
D21*
%TO.P,J2,1*%
%TO.N,+36V*%
X177107447Y-100100000D03*
D22*
%TO.P,J2,2*%
%TO.N,CW_RET*%
X177107447Y-98850000D03*
%TO.P,J2,3*%
%TO.N,WW_RET*%
X177107447Y-97600000D03*
%TO.P,J2,4*%
%TO.N,+4V7*%
X177107447Y-96350000D03*
%TO.P,J2,5*%
%TO.N,GND*%
X177107447Y-95100000D03*
%TO.P,J2,6*%
%TO.N,RING_DATA*%
X177107447Y-93850000D03*
%TO.P,J2,7*%
%TO.N,N/C*%
X177107447Y-92600000D03*
%TD*%
D16*
%TO.P,R9,1*%
%TO.N,Q3_GATE*%
X168097447Y-87100000D03*
%TO.P,R9,2*%
%TO.N,GND*%
X169117447Y-87100000D03*
%TD*%
D23*
%TO.P,Q1,1*%
%TO.N,CW_GATE*%
X154007447Y-94700000D03*
%TO.P,Q1,2*%
%TO.N,GND*%
X155907447Y-94700000D03*
%TO.P,Q1,3*%
%TO.N,CW_RET*%
X154957447Y-92825000D03*
%TD*%
D13*
%TO.P,C8,1*%
%TO.N,EN*%
X139807447Y-97780000D03*
%TO.P,C8,2*%
%TO.N,GND*%
X139807447Y-96820000D03*
%TD*%
D23*
%TO.P,Q2,1*%
%TO.N,WW_GATE*%
X158857447Y-90575000D03*
%TO.P,Q2,2*%
%TO.N,GND*%
X160757447Y-90575000D03*
%TO.P,Q2,3*%
%TO.N,WW_RET*%
X159807447Y-88700000D03*
%TD*%
D16*
%TO.P,R4,1*%
%TO.N,WW_GATE*%
X165597447Y-93437500D03*
%TO.P,R4,2*%
%TO.N,GND*%
X166617447Y-93437500D03*
%TD*%
D23*
%TO.P,Q3,1*%
%TO.N,Q3_GATE*%
X168157447Y-91375000D03*
%TO.P,Q3,2*%
%TO.N,+4V7*%
X170057447Y-91375000D03*
%TO.P,Q3,3*%
%TO.N,+4V7_IN*%
X169107447Y-89500000D03*
%TD*%
D19*
%TO.P,D2,1*%
%TO.N,LDO_IN*%
X157507447Y-86300000D03*
%TO.P,D2,2*%
%TO.N,VBUS*%
X160807447Y-86300000D03*
%TD*%
D20*
%TO.P,R6,1*%
%TO.N,EN*%
X138007447Y-97810000D03*
%TO.P,R6,2*%
%TO.N,+3V3*%
X138007447Y-96790000D03*
%TD*%
D24*
%TO.P,C3,1*%
%TO.N,LDO_IN*%
X152582447Y-88900000D03*
%TO.P,C3,2*%
%TO.N,GND*%
X151032447Y-88900000D03*
%TD*%
D25*
%TO.P,C1,1*%
%TO.N,+36V*%
X171007447Y-102900000D03*
%TO.P,C1,2*%
%TO.N,GND*%
X171007447Y-101000000D03*
%TD*%
D26*
%TO.P,J3,A1*%
%TO.N,GND*%
X156287447Y-103005000D03*
%TO.P,J3,A4*%
%TO.N,VBUS*%
X157087447Y-103005000D03*
D27*
%TO.P,J3,A5*%
%TO.N,CC1*%
X158287447Y-103005000D03*
%TO.P,J3,A6*%
%TO.N,USB_DP*%
X159287447Y-103005000D03*
%TO.P,J3,A7*%
%TO.N,USB_DM*%
X159787447Y-103005000D03*
%TO.P,J3,A8*%
%TO.N,N/C*%
X160787447Y-103005000D03*
D26*
%TO.P,J3,A9*%
%TO.N,VBUS*%
X161987447Y-103005000D03*
%TO.P,J3,A12*%
%TO.N,GND*%
X162787447Y-103005000D03*
%TO.P,J3,B1*%
X162787447Y-103005000D03*
%TO.P,J3,B4*%
%TO.N,VBUS*%
X161987447Y-103005000D03*
D27*
%TO.P,J3,B5*%
%TO.N,CC2*%
X161287447Y-103005000D03*
%TO.P,J3,B6*%
%TO.N,USB_DP*%
X160287447Y-103005000D03*
%TO.P,J3,B7*%
%TO.N,USB_DM*%
X158787447Y-103005000D03*
%TO.P,J3,B8*%
%TO.N,N/C*%
X157787447Y-103005000D03*
D26*
%TO.P,J3,B9*%
%TO.N,VBUS*%
X157087447Y-103005000D03*
%TO.P,J3,B12*%
%TO.N,GND*%
X156287447Y-103005000D03*
D28*
%TO.P,J3,SH*%
X155217447Y-103920000D03*
D29*
X155217447Y-108100000D03*
D28*
X163857447Y-103920000D03*
D29*
X163857447Y-108100000D03*
%TD*%
D16*
%TO.P,R3,1*%
%TO.N,CW_GATE*%
X153897447Y-96900000D03*
%TO.P,R3,2*%
%TO.N,GND*%
X154917447Y-96900000D03*
%TD*%
%TO.P,R5,1*%
%TO.N,RING_BUF_OUT*%
X160597447Y-93437500D03*
%TO.P,R5,2*%
%TO.N,RING_DATA*%
X161617447Y-93437500D03*
%TD*%
D20*
%TO.P,R8,1*%
%TO.N,CC2*%
X163007447Y-100720000D03*
%TO.P,R8,2*%
%TO.N,GND*%
X163007447Y-99700000D03*
%TD*%
D30*
%TO.P,J1,1*%
%TO.N,+4V7_IN*%
X141457447Y-104700000D03*
D31*
%TO.P,J1,2*%
%TO.N,GND*%
X141457447Y-106700000D03*
%TO.P,J1,3*%
%TO.N,+36V*%
X141457447Y-108700000D03*
%TD*%
D32*
%TO.P,U1,1*%
%TO.N,GND*%
X133407447Y-95300000D03*
%TO.P,U1,2*%
X134207447Y-95300000D03*
%TO.P,U1,3*%
%TO.N,+3V3*%
X135007447Y-95300000D03*
%TO.P,U1,4*%
%TO.N,N/C*%
X135807447Y-95300000D03*
%TO.P,U1,5*%
X136607447Y-95300000D03*
%TO.P,U1,6*%
X137407447Y-95300000D03*
%TO.P,U1,7*%
X138207447Y-95300000D03*
%TO.P,U1,8*%
%TO.N,EN*%
X139007447Y-95300000D03*
%TO.P,U1,9*%
%TO.N,N/C*%
X139807447Y-95300000D03*
%TO.P,U1,10*%
X140607447Y-95300000D03*
%TO.P,U1,11*%
%TO.N,GND*%
X141407447Y-95300000D03*
D33*
%TO.P,U1,12*%
%TO.N,N/C*%
X142307447Y-94200000D03*
%TO.P,U1,13*%
X142307447Y-93400000D03*
%TO.P,U1,14*%
%TO.N,GND*%
X142307447Y-92600000D03*
%TO.P,U1,15*%
%TO.N,N/C*%
X142307447Y-91800000D03*
%TO.P,U1,16*%
X142307447Y-91000000D03*
%TO.P,U1,17*%
X142307447Y-90200000D03*
%TO.P,U1,18*%
%TO.N,CW_PWM*%
X142307447Y-89400000D03*
%TO.P,U1,19*%
%TO.N,WW_PWM*%
X142307447Y-88600000D03*
%TO.P,U1,20*%
%TO.N,N/C*%
X142307447Y-87800000D03*
%TO.P,U1,21*%
%TO.N,RING_DATA_3V3*%
X142307447Y-87000000D03*
%TO.P,U1,22*%
%TO.N,N/C*%
X142307447Y-86200000D03*
%TO.P,U1,23*%
%TO.N,IO9*%
X142307447Y-85400000D03*
%TO.P,U1,24*%
%TO.N,N/C*%
X142307447Y-84600000D03*
D32*
%TO.P,U1,25*%
X141407447Y-83500000D03*
%TO.P,U1,26*%
%TO.N,USB_DM*%
X140607447Y-83500000D03*
%TO.P,U1,27*%
%TO.N,USB_DP*%
X139807447Y-83500000D03*
%TO.P,U1,28*%
%TO.N,N/C*%
X139007447Y-83500000D03*
%TO.P,U1,29*%
X138207447Y-83500000D03*
%TO.P,U1,30*%
X137407447Y-83500000D03*
%TO.P,U1,31*%
X136607447Y-83500000D03*
%TO.P,U1,32*%
X135807447Y-83500000D03*
%TO.P,U1,33*%
X135007447Y-83500000D03*
%TO.P,U1,34*%
X134207447Y-83500000D03*
%TO.P,U1,35*%
X133407447Y-83500000D03*
D33*
%TO.P,U1,36*%
%TO.N,GND*%
X132507447Y-84600000D03*
%TO.P,U1,37*%
X132507447Y-85400000D03*
%TO.P,U1,38*%
X132507447Y-86200000D03*
%TO.P,U1,39*%
X132507447Y-87000000D03*
%TO.P,U1,40*%
X132507447Y-87800000D03*
%TO.P,U1,41*%
X132507447Y-88600000D03*
%TO.P,U1,42*%
X132507447Y-89400000D03*
%TO.P,U1,43*%
X132507447Y-90200000D03*
%TO.P,U1,44*%
X132507447Y-91000000D03*
%TO.P,U1,45*%
X132507447Y-91800000D03*
%TO.P,U1,46*%
X132507447Y-92600000D03*
%TO.P,U1,47*%
X132507447Y-93400000D03*
%TO.P,U1,48*%
X132507447Y-94200000D03*
D34*
%TO.P,U1,49*%
X135432447Y-91375000D03*
D35*
X137407447Y-91375000D03*
X139382447Y-91375000D03*
X135432447Y-89400000D03*
X137407447Y-89400000D03*
X139382447Y-89400000D03*
X135432447Y-87425000D03*
X137407447Y-87425000D03*
X139382447Y-87425000D03*
D36*
%TO.P,U1,50*%
X132457447Y-83450000D03*
%TO.P,U1,51*%
X142357447Y-83450000D03*
%TO.P,U1,52*%
X142357447Y-95350000D03*
%TO.P,U1,53*%
X132457447Y-95350000D03*
%TD*%
D16*
%TO.P,R1,1*%
%TO.N,CW_PWM*%
X151007447Y-94700000D03*
%TO.P,R1,2*%
%TO.N,CW_GATE*%
X152027447Y-94700000D03*
%TD*%
D10*
%TO.P,SW1,1*%
%TO.N,IO9*%
X146107447Y-100550000D03*
X151357447Y-100550000D03*
%TO.P,SW1,2*%
%TO.N,GND*%
X146107447Y-102250000D03*
X151357447Y-102250000D03*
%TD*%
D37*
%TO.P,C7,1*%
%TO.N,+4V7*%
X169007447Y-84340000D03*
%TO.P,C7,2*%
%TO.N,GND*%
X169007447Y-85300000D03*
%TD*%
D38*
%TO.N,GND*%
X172760270Y-93306250D03*
X163385972Y-99562298D03*
X165942402Y-89526250D03*
X161711590Y-89934607D03*
X150501031Y-87030000D03*
X142880735Y-83650200D03*
X155710647Y-95077700D03*
%TO.N,+4V7_IN*%
X137007447Y-102300000D03*
X169207447Y-88100000D03*
X140407447Y-103100000D03*
%TO.N,+3V3*%
X140807447Y-85100000D03*
X147207447Y-84900000D03*
%TO.N,USB_DP*%
X157407447Y-94900000D03*
X139607447Y-84900000D03*
%TO.N,USB_DM*%
X148007447Y-95300000D03*
X144007447Y-83700000D03*
X160207447Y-101100000D03*
X158207447Y-101100000D03*
%TO.N,VBUS*%
X164207447Y-99700000D03*
X162407447Y-85700000D03*
%TO.N,WW_GATE*%
X161807447Y-96700000D03*
X166207447Y-92300000D03*
%TO.N,CC2*%
X164007447Y-101500000D03*
X161207447Y-101100000D03*
%TO.N,IO9*%
X143807447Y-91500000D03*
X143807447Y-85100000D03*
%TD*%
%TO.N,EN*%
D39*
X139807447Y-97780000D02*
X139007447Y-97780000D01*
X139007447Y-97780000D02*
X138037447Y-97780000D01*
X139007447Y-95300000D02*
X139007447Y-97780000D01*
X140658551Y-110100000D02*
X139657447Y-109098896D01*
X142557447Y-110100000D02*
X140658551Y-110100000D01*
X139657447Y-109098896D02*
X139657447Y-97930000D01*
X139657447Y-97930000D02*
X139807447Y-97780000D01*
X146107447Y-106550000D02*
X142557447Y-110100000D01*
X138037447Y-97780000D02*
X138007447Y-97810000D01*
X151357447Y-106550000D02*
X146107447Y-106550000D01*
%TO.N,+4V7*%
X169007447Y-84340000D02*
X166207447Y-87140000D01*
X170057447Y-86875000D02*
X170057447Y-91375000D01*
X178057447Y-95400000D02*
X178057447Y-92310051D01*
X178057447Y-92310051D02*
X177647396Y-91900000D01*
X170422447Y-84340000D02*
X169007447Y-84340000D01*
X170057447Y-92212500D02*
X168332447Y-93937500D01*
X166207447Y-87140000D02*
X166207447Y-87900000D01*
X170057447Y-91375000D02*
X170057447Y-92212500D01*
X171507447Y-85425000D02*
X170422447Y-84340000D01*
X170369947Y-91900000D02*
X168332447Y-93937500D01*
X177107447Y-96350000D02*
X178057447Y-95400000D01*
X171507447Y-85425000D02*
X170057447Y-86875000D01*
X177647396Y-91900000D02*
X170369947Y-91900000D01*
%TO.N,+4V7_IN*%
X141457447Y-104700000D02*
X140407447Y-103650000D01*
X140407447Y-103650000D02*
X140407447Y-103100000D01*
X169107447Y-89500000D02*
X169107447Y-88200000D01*
X137207447Y-102100000D02*
X137207447Y-100150000D01*
X137007447Y-102300000D02*
X137207447Y-102100000D01*
X169107447Y-88200000D02*
X169207447Y-88100000D01*
%TO.N,+3V3*%
X133007447Y-98580000D02*
X134487447Y-98580000D01*
X152907447Y-84900000D02*
X153407447Y-84400000D01*
X135007447Y-95900000D02*
X135007447Y-95300000D01*
X135897447Y-96790000D02*
X135007447Y-95900000D01*
X150632447Y-84900000D02*
X152907447Y-84900000D01*
X140807447Y-91900000D02*
X140807447Y-85100000D01*
X138007447Y-96790000D02*
X135897447Y-96790000D01*
X136097447Y-98700000D02*
X138007447Y-96790000D01*
X137507447Y-92400000D02*
X140307447Y-92400000D01*
X150632447Y-84900000D02*
X147207447Y-84900000D01*
X140307447Y-92400000D02*
X140807447Y-91900000D01*
X134487447Y-98580000D02*
X134607447Y-98700000D01*
X135007447Y-95300000D02*
X135007447Y-94900000D01*
X135007447Y-94900000D02*
X137507447Y-92400000D01*
X134607447Y-98700000D02*
X136097447Y-98700000D01*
%TO.N,RING_DATA_3V3*%
X142907447Y-87000000D02*
X142307447Y-87000000D01*
X172457447Y-86996948D02*
X173066895Y-86387500D01*
X172457447Y-87700000D02*
X172457447Y-86996948D01*
X174007447Y-84721948D02*
X172645499Y-83360000D01*
X174007447Y-86128052D02*
X174007447Y-84721948D01*
X146547447Y-83360000D02*
X142907447Y-87000000D01*
X172645499Y-83360000D02*
X146547447Y-83360000D01*
X173747999Y-86387500D02*
X174007447Y-86128052D01*
X173066895Y-86387500D02*
X173747999Y-86387500D01*
%TO.N,RING_BUF_OUT*%
X160597447Y-93437500D02*
X160597447Y-92161304D01*
X168397447Y-84361304D02*
X168397447Y-84013866D01*
X168397447Y-84013866D02*
X168651313Y-83760000D01*
X160597447Y-92161304D02*
X168397447Y-84361304D01*
X171742447Y-83760000D02*
X173407447Y-85425000D01*
X168651313Y-83760000D02*
X171742447Y-83760000D01*
%TO.N,USB_DP*%
X158332447Y-97900000D02*
X159207447Y-97900000D01*
X159407447Y-102127590D02*
X159407447Y-98100000D01*
X159607447Y-97900000D02*
X160607447Y-97900000D01*
X159287447Y-102247590D02*
X159555037Y-101980000D01*
X159207447Y-97900000D02*
X159407447Y-98100000D01*
X159555037Y-101980000D02*
X160019857Y-101980000D01*
X160019857Y-101980000D02*
X160287447Y-102247590D01*
X160287447Y-102247590D02*
X160287447Y-103005000D01*
X159287447Y-103005000D02*
X159287447Y-102247590D01*
X159407447Y-98100000D02*
X159607447Y-97900000D01*
X158332447Y-95825000D02*
X157407447Y-94900000D01*
X158332447Y-97900000D02*
X158332447Y-95825000D01*
X159287447Y-102247590D02*
X159407447Y-102127590D01*
X139607447Y-84900000D02*
X139607447Y-83700000D01*
X139607447Y-83700000D02*
X139807447Y-83500000D01*
%TO.N,USB_DM*%
X159519857Y-104030000D02*
X158937447Y-104030000D01*
X156756371Y-99800000D02*
X154583347Y-97626976D01*
X154583347Y-97626976D02*
X150334423Y-97626976D01*
X140607447Y-82900000D02*
X140607447Y-83500000D01*
X158937447Y-104030000D02*
X158787447Y-103880000D01*
X158332447Y-99800000D02*
X156756371Y-99800000D01*
X143107447Y-82800000D02*
X140707447Y-82800000D01*
X158787447Y-101100000D02*
X158787447Y-100255000D01*
X159787447Y-103005000D02*
X159787447Y-103762410D01*
X158207447Y-101100000D02*
X158787447Y-101100000D01*
X158787447Y-103005000D02*
X158787447Y-101100000D01*
X158787447Y-103880000D02*
X158787447Y-103005000D01*
X159787447Y-103762410D02*
X159519857Y-104030000D01*
X158787447Y-103005000D02*
X158787447Y-103100000D01*
X160607447Y-100700000D02*
X160207447Y-101100000D01*
X144007447Y-83700000D02*
X143107447Y-82800000D01*
X150334423Y-97626976D02*
X148007447Y-95300000D01*
X160607447Y-99800000D02*
X160607447Y-100700000D01*
X158787447Y-100255000D02*
X158332447Y-99800000D01*
X140707447Y-82800000D02*
X140607447Y-82900000D01*
%TO.N,VBUS*%
X158625037Y-105100000D02*
X160617446Y-105100000D01*
X162387447Y-101038924D02*
X163448523Y-102100000D01*
X161463697Y-99043750D02*
X162387447Y-99967500D01*
X161463697Y-99043750D02*
X161269946Y-98850000D01*
X157087447Y-103562410D02*
X158625037Y-105100000D01*
X161987447Y-103729999D02*
X161987447Y-103005000D01*
X162387447Y-99967500D02*
X162387447Y-101038924D01*
X164607447Y-101748529D02*
X164607447Y-100100000D01*
X160807447Y-86300000D02*
X161807447Y-86300000D01*
X164607447Y-100100000D02*
X164207447Y-99700000D01*
X161807447Y-86300000D02*
X162407447Y-85700000D01*
X157087447Y-103005000D02*
X157087447Y-103562410D01*
X161269946Y-98850000D02*
X160607447Y-98850000D01*
X160617446Y-105100000D02*
X161987447Y-103729999D01*
X161987447Y-103005000D02*
X161987447Y-99567501D01*
X161987447Y-99567501D02*
X161463697Y-99043750D01*
X163448523Y-102100000D02*
X164255976Y-102100000D01*
X164255976Y-102100000D02*
X164607447Y-101748529D01*
%TO.N,WW_PWM*%
X145007447Y-90700000D02*
X142907447Y-88600000D01*
X156297447Y-90700000D02*
X145007447Y-90700000D01*
X142907447Y-88600000D02*
X142307447Y-88600000D01*
%TO.N,WW_GATE*%
X158857447Y-90575000D02*
X157442447Y-90575000D01*
X158857447Y-93750000D02*
X161807447Y-96700000D01*
X158857447Y-90575000D02*
X158857447Y-93750000D01*
X165597447Y-92910000D02*
X166207447Y-92300000D01*
X157442447Y-90575000D02*
X157317447Y-90700000D01*
X165597447Y-93437500D02*
X165597447Y-92910000D01*
%TO.N,LDO_IN*%
X155307447Y-88075000D02*
X155307447Y-86675000D01*
X162669947Y-87662500D02*
X158869947Y-87662500D01*
X153407447Y-88075000D02*
X155307447Y-88075000D01*
X155682447Y-86300000D02*
X155307447Y-86675000D01*
X157507447Y-86300000D02*
X155682447Y-86300000D01*
X162907447Y-87900000D02*
X162669947Y-87662500D01*
X153407447Y-88075000D02*
X152582447Y-88900000D01*
X153407447Y-86675000D02*
X153407447Y-88075000D01*
X158869947Y-87662500D02*
X157507447Y-86300000D01*
%TO.N,CC1*%
X158287447Y-103005000D02*
X158287447Y-102247590D01*
X158287447Y-102247590D02*
X156849857Y-100810000D01*
X156849857Y-100810000D02*
X155807447Y-100810000D01*
%TO.N,+36V*%
X144407447Y-105750000D02*
X141457447Y-108700000D01*
X173807447Y-100100000D02*
X171007447Y-102900000D01*
X171007447Y-102900000D02*
X168157447Y-105750000D01*
X168157447Y-105750000D02*
X144407447Y-105750000D01*
X177107447Y-100100000D02*
X173807447Y-100100000D01*
%TO.N,CW_RET*%
X162860499Y-98850000D02*
X177107447Y-98850000D01*
X156835499Y-92825000D02*
X162860499Y-98850000D01*
X154957447Y-92825000D02*
X156835499Y-92825000D01*
%TO.N,WW_RET*%
X159807447Y-93586424D02*
X159807447Y-88700000D01*
X163821023Y-97600000D02*
X159807447Y-93586424D01*
X177107447Y-97600000D02*
X163821023Y-97600000D01*
%TO.N,RING_DATA*%
X176244947Y-94712500D02*
X162892447Y-94712500D01*
X177107447Y-93850000D02*
X176244947Y-94712500D01*
X162892447Y-94712500D02*
X161617447Y-93437500D01*
%TO.N,Q3_GATE*%
X168097447Y-91315000D02*
X168157447Y-91375000D01*
X168097447Y-87100000D02*
X168097447Y-91315000D01*
%TO.N,CW_GATE*%
X152027447Y-94700000D02*
X154007447Y-94700000D01*
X153897447Y-94810000D02*
X154007447Y-94700000D01*
X153897447Y-96900000D02*
X153897447Y-94810000D01*
%TO.N,CC2*%
X161287447Y-103005000D02*
X161287447Y-101180000D01*
X161287447Y-101180000D02*
X161207447Y-101100000D01*
X163227447Y-100720000D02*
X164007447Y-101500000D01*
X163007447Y-100720000D02*
X163227447Y-100720000D01*
%TO.N,CW_PWM*%
X148207447Y-94700000D02*
X151007447Y-94700000D01*
X142907447Y-89400000D02*
X148207447Y-94700000D01*
X142307447Y-89400000D02*
X142907447Y-89400000D01*
%TO.N,IO9*%
X146107447Y-100550000D02*
X146107447Y-93800000D01*
X146107447Y-93800000D02*
X143807447Y-91500000D01*
X151357447Y-100550000D02*
X146107447Y-100550000D01*
X143807447Y-85100000D02*
X142607447Y-85100000D01*
X142607447Y-85100000D02*
X142307447Y-85400000D01*
%TD*%
%TA.AperFunction,Conductor*%
%TO.N,GND*%
G36*
X141546215Y-85269302D02*
G01*
X141593828Y-85320437D01*
X141606947Y-85375947D01*
X141606947Y-85644856D01*
X141606949Y-85644882D01*
X141609860Y-85669987D01*
X141609861Y-85669988D01*
X141609861Y-85669990D01*
X141609862Y-85669991D01*
X141645151Y-85749913D01*
X141654223Y-85819191D01*
X141645152Y-85850083D01*
X141630238Y-85883862D01*
X141609862Y-85930009D01*
X141606947Y-85955131D01*
X141606947Y-86444856D01*
X141606949Y-86444882D01*
X141609860Y-86469987D01*
X141609861Y-86469988D01*
X141609861Y-86469990D01*
X141609862Y-86469991D01*
X141645151Y-86549913D01*
X141654223Y-86619191D01*
X141645152Y-86650083D01*
X141614099Y-86720413D01*
X141609862Y-86730009D01*
X141606947Y-86755131D01*
X141606947Y-87244856D01*
X141606949Y-87244882D01*
X141609860Y-87269987D01*
X141609861Y-87269988D01*
X141609861Y-87269990D01*
X141609862Y-87269991D01*
X141645151Y-87349913D01*
X141654223Y-87419191D01*
X141645152Y-87450083D01*
X141609862Y-87530009D01*
X141606947Y-87555131D01*
X141606947Y-88044856D01*
X141606949Y-88044882D01*
X141609860Y-88069987D01*
X141609861Y-88069988D01*
X141609861Y-88069990D01*
X141609862Y-88069991D01*
X141645151Y-88149913D01*
X141654223Y-88219191D01*
X141645152Y-88250083D01*
X141637785Y-88266769D01*
X141609862Y-88330009D01*
X141606947Y-88355131D01*
X141606947Y-88844856D01*
X141606949Y-88844882D01*
X141609860Y-88869987D01*
X141609861Y-88869988D01*
X141609861Y-88869990D01*
X141609862Y-88869991D01*
X141645151Y-88949913D01*
X141654223Y-89019191D01*
X141645152Y-89050085D01*
X141609862Y-89130009D01*
X141606947Y-89155131D01*
X141606947Y-89644856D01*
X141606949Y-89644882D01*
X141609860Y-89669987D01*
X141609861Y-89669988D01*
X141609861Y-89669990D01*
X141609862Y-89669991D01*
X141645151Y-89749913D01*
X141654223Y-89819191D01*
X141645152Y-89850083D01*
X141609862Y-89930009D01*
X141606947Y-89955131D01*
X141606947Y-90444856D01*
X141606949Y-90444882D01*
X141609860Y-90469987D01*
X141609861Y-90469988D01*
X141609861Y-90469990D01*
X141609862Y-90469991D01*
X141645151Y-90549913D01*
X141654223Y-90619191D01*
X141645152Y-90650083D01*
X141612547Y-90723928D01*
X141609862Y-90730009D01*
X141606947Y-90755131D01*
X141606947Y-91244856D01*
X141606949Y-91244882D01*
X141609860Y-91269987D01*
X141609861Y-91269988D01*
X141609861Y-91269990D01*
X141609862Y-91269991D01*
X141645151Y-91349913D01*
X141654223Y-91419191D01*
X141645152Y-91450083D01*
X141632025Y-91479815D01*
X141609862Y-91530009D01*
X141606947Y-91555131D01*
X141606947Y-92044856D01*
X141606949Y-92044882D01*
X141609860Y-92069987D01*
X141609861Y-92069989D01*
X141655240Y-92172764D01*
X141655241Y-92172765D01*
X141734682Y-92252206D01*
X141837456Y-92297585D01*
X141862582Y-92300500D01*
X142752311Y-92300499D01*
X142752326Y-92300497D01*
X142752329Y-92300497D01*
X142777434Y-92297586D01*
X142777435Y-92297585D01*
X142777438Y-92297585D01*
X142880212Y-92252206D01*
X142959653Y-92172765D01*
X143005032Y-92069991D01*
X143007947Y-92044865D01*
X143007946Y-91775944D01*
X143027630Y-91708907D01*
X143080434Y-91663152D01*
X143149593Y-91653208D01*
X143213148Y-91682233D01*
X143243804Y-91724746D01*
X143243806Y-91724746D01*
X143243812Y-91724757D01*
X143246507Y-91728494D01*
X143247870Y-91731786D01*
X143326922Y-91868709D01*
X143326926Y-91868714D01*
X143326927Y-91868716D01*
X143438731Y-91980520D01*
X143438733Y-91980521D01*
X143438737Y-91980524D01*
X143550165Y-92044856D01*
X143575663Y-92059577D01*
X143728390Y-92100500D01*
X143790192Y-92100500D01*
X143857231Y-92120185D01*
X143877873Y-92136819D01*
X145670628Y-93929574D01*
X145704113Y-93990897D01*
X145706947Y-94017255D01*
X145706947Y-99625500D01*
X145687262Y-99692539D01*
X145634458Y-99738294D01*
X145582947Y-99749500D01*
X145287590Y-99749500D01*
X145287564Y-99749502D01*
X145262459Y-99752413D01*
X145262455Y-99752415D01*
X145159682Y-99797793D01*
X145159681Y-99797794D01*
X145080243Y-99877233D01*
X145080241Y-99877234D01*
X145034862Y-99980006D01*
X145034862Y-99980008D01*
X145031947Y-100005131D01*
X145031947Y-101094856D01*
X145031949Y-101094882D01*
X145034860Y-101119987D01*
X145034862Y-101119991D01*
X145080240Y-101222764D01*
X145080241Y-101222765D01*
X145159682Y-101302206D01*
X145262456Y-101347585D01*
X145287582Y-101350500D01*
X146927311Y-101350499D01*
X146927326Y-101350497D01*
X146927329Y-101350497D01*
X146952434Y-101347586D01*
X146952435Y-101347585D01*
X146952438Y-101347585D01*
X147055212Y-101302206D01*
X147134653Y-101222765D01*
X147180032Y-101119991D01*
X147182947Y-101094865D01*
X147182947Y-101074500D01*
X147202632Y-101007461D01*
X147255436Y-100961706D01*
X147306947Y-100950500D01*
X150157948Y-100950500D01*
X150224987Y-100970185D01*
X150270742Y-101022989D01*
X150281948Y-101074500D01*
X150281948Y-101094856D01*
X150281949Y-101094882D01*
X150284860Y-101119987D01*
X150284862Y-101119991D01*
X150330240Y-101222764D01*
X150330241Y-101222765D01*
X150409682Y-101302206D01*
X150512456Y-101347585D01*
X150537582Y-101350500D01*
X152177311Y-101350499D01*
X152177326Y-101350497D01*
X152177329Y-101350497D01*
X152202434Y-101347586D01*
X152202435Y-101347585D01*
X152202438Y-101347585D01*
X152305212Y-101302206D01*
X152384653Y-101222765D01*
X152430032Y-101119991D01*
X152432947Y-101094865D01*
X152432946Y-100005136D01*
X152432845Y-100004266D01*
X152430033Y-99980012D01*
X152430032Y-99980010D01*
X152430032Y-99980009D01*
X152384653Y-99877235D01*
X152305212Y-99797794D01*
X152293261Y-99792517D01*
X152202439Y-99752415D01*
X152177312Y-99749500D01*
X150537590Y-99749500D01*
X150537564Y-99749502D01*
X150512459Y-99752413D01*
X150512455Y-99752415D01*
X150409682Y-99797793D01*
X150409681Y-99797794D01*
X150330243Y-99877233D01*
X150330241Y-99877234D01*
X150284862Y-99980006D01*
X150284862Y-99980008D01*
X150281947Y-100005131D01*
X150281947Y-100025500D01*
X150262262Y-100092539D01*
X150209458Y-100138294D01*
X150157947Y-100149500D01*
X147306946Y-100149500D01*
X147239907Y-100129815D01*
X147194152Y-100077011D01*
X147182946Y-100025500D01*
X147182946Y-100005143D01*
X147182946Y-100005136D01*
X147182845Y-100004266D01*
X147180033Y-99980012D01*
X147180032Y-99980010D01*
X147180032Y-99980009D01*
X147134653Y-99877235D01*
X147055212Y-99797794D01*
X147043261Y-99792517D01*
X146952439Y-99752415D01*
X146927315Y-99749500D01*
X146927312Y-99749500D01*
X146631947Y-99749500D01*
X146564908Y-99729815D01*
X146519153Y-99677011D01*
X146507947Y-99625500D01*
X146507947Y-93866255D01*
X146527632Y-93799216D01*
X146580436Y-93753461D01*
X146649594Y-93743517D01*
X146713150Y-93772542D01*
X146719628Y-93778574D01*
X147611951Y-94670897D01*
X147645436Y-94732220D01*
X147640452Y-94801912D01*
X147611952Y-94846259D01*
X147526925Y-94931286D01*
X147526922Y-94931290D01*
X147447873Y-95068209D01*
X147447870Y-95068216D01*
X147406947Y-95220943D01*
X147406947Y-95379057D01*
X147445059Y-95521291D01*
X147447870Y-95531783D01*
X147447873Y-95531790D01*
X147526922Y-95668709D01*
X147526926Y-95668714D01*
X147526927Y-95668716D01*
X147638731Y-95780520D01*
X147638733Y-95780521D01*
X147638737Y-95780524D01*
X147775656Y-95859573D01*
X147775663Y-95859577D01*
X147928390Y-95900500D01*
X147990192Y-95900500D01*
X148057231Y-95920185D01*
X148077873Y-95936819D01*
X150088510Y-97947456D01*
X150167597Y-97993117D01*
X150178965Y-97999681D01*
X150179835Y-98000183D01*
X150281696Y-98027476D01*
X150387150Y-98027476D01*
X154366092Y-98027476D01*
X154433131Y-98047161D01*
X154453773Y-98063795D01*
X156510458Y-100120480D01*
X156583900Y-100162882D01*
X156608822Y-100177271D01*
X156607342Y-100179833D01*
X156650707Y-100214776D01*
X156672775Y-100281069D01*
X156655498Y-100348769D01*
X156604363Y-100396382D01*
X156548854Y-100409500D01*
X156400361Y-100409500D01*
X156333322Y-100389815D01*
X156311363Y-100369231D01*
X156310444Y-100370151D01*
X156303872Y-100363580D01*
X156303870Y-100363577D01*
X156198241Y-100285619D01*
X156198239Y-100285618D01*
X156074327Y-100242258D01*
X156044908Y-100239500D01*
X155569993Y-100239500D01*
X155540572Y-100242258D01*
X155540562Y-100242260D01*
X155416654Y-100285618D01*
X155311023Y-100363576D01*
X155233065Y-100469207D01*
X155189705Y-100593118D01*
X155189705Y-100593120D01*
X155186947Y-100622538D01*
X155186947Y-100997453D01*
X155189705Y-101026874D01*
X155189707Y-101026884D01*
X155233065Y-101150792D01*
X155311023Y-101256423D01*
X155357195Y-101290499D01*
X155416653Y-101334381D01*
X155457958Y-101348834D01*
X155540566Y-101377741D01*
X155548243Y-101378460D01*
X155569990Y-101380500D01*
X156044903Y-101380499D01*
X156074326Y-101377741D01*
X156198241Y-101334381D01*
X156303870Y-101256423D01*
X156303875Y-101256415D01*
X156310444Y-101249849D01*
X156312454Y-101251859D01*
X156356234Y-101218617D01*
X156400361Y-101210500D01*
X156632602Y-101210500D01*
X156699641Y-101230185D01*
X156720283Y-101246819D01*
X157241283Y-101767819D01*
X157274768Y-101829142D01*
X157269784Y-101898834D01*
X157227912Y-101954767D01*
X157162448Y-101979184D01*
X157153602Y-101979500D01*
X156883177Y-101979500D01*
X156852747Y-101982353D01*
X156852745Y-101982353D01*
X156724566Y-102027206D01*
X156724564Y-102027207D01*
X156615297Y-102107850D01*
X156534654Y-102217117D01*
X156534653Y-102217119D01*
X156489800Y-102345298D01*
X156489800Y-102345300D01*
X156486947Y-102375730D01*
X156486947Y-103634269D01*
X156489800Y-103664698D01*
X156519800Y-103750434D01*
X156523361Y-103820213D01*
X156488632Y-103880840D01*
X156434854Y-103911162D01*
X156425312Y-103913718D01*
X156294082Y-103989485D01*
X156294079Y-103989487D01*
X156186934Y-104096632D01*
X156186932Y-104096635D01*
X156111166Y-104227863D01*
X156107330Y-104242181D01*
X156071947Y-104374234D01*
X156071947Y-104525766D01*
X156082089Y-104563616D01*
X156111166Y-104672136D01*
X156115600Y-104679815D01*
X156186932Y-104803365D01*
X156294082Y-104910515D01*
X156425312Y-104986281D01*
X156571681Y-105025500D01*
X156571683Y-105025500D01*
X156723211Y-105025500D01*
X156723213Y-105025500D01*
X156869582Y-104986281D01*
X157000812Y-104910515D01*
X157107962Y-104803365D01*
X157183728Y-104672135D01*
X157222614Y-104527008D01*
X157258976Y-104467352D01*
X157321823Y-104436822D01*
X157391199Y-104445116D01*
X157430068Y-104471424D01*
X158096464Y-105137819D01*
X158129949Y-105199142D01*
X158124965Y-105268833D01*
X158083094Y-105324767D01*
X158017629Y-105349184D01*
X158008783Y-105349500D01*
X144354720Y-105349500D01*
X144252857Y-105376793D01*
X144161534Y-105429520D01*
X144161531Y-105429522D01*
X141827873Y-107763181D01*
X141766550Y-107796666D01*
X141740192Y-107799500D01*
X141093753Y-107799500D01*
X140919788Y-107834103D01*
X140919779Y-107834106D01*
X140755906Y-107901983D01*
X140755893Y-107901990D01*
X140608412Y-108000535D01*
X140608408Y-108000538D01*
X140482985Y-108125961D01*
X140482982Y-108125965D01*
X140384437Y-108273446D01*
X140384430Y-108273459D01*
X140316553Y-108437332D01*
X140316551Y-108437340D01*
X140303564Y-108502631D01*
X140271179Y-108564542D01*
X140210463Y-108599116D01*
X140140694Y-108595376D01*
X140084022Y-108554509D01*
X140058440Y-108489491D01*
X140057947Y-108478439D01*
X140057947Y-105239052D01*
X140077632Y-105172013D01*
X140130436Y-105126258D01*
X140199594Y-105116314D01*
X140263150Y-105145339D01*
X140297300Y-105193560D01*
X140326985Y-105268833D01*
X140348086Y-105322343D01*
X140439524Y-105442922D01*
X140560103Y-105534360D01*
X140560104Y-105534360D01*
X140560105Y-105534361D01*
X140700883Y-105589877D01*
X140789345Y-105600500D01*
X140789350Y-105600500D01*
X142125544Y-105600500D01*
X142125549Y-105600500D01*
X142214011Y-105589877D01*
X142354789Y-105534361D01*
X142475369Y-105442922D01*
X142566808Y-105322342D01*
X142622324Y-105181564D01*
X142632947Y-105093102D01*
X142632947Y-104306898D01*
X142622324Y-104218436D01*
X142566808Y-104077658D01*
X142566807Y-104077657D01*
X142566807Y-104077656D01*
X142475369Y-103957077D01*
X142354790Y-103865639D01*
X142214008Y-103810122D01*
X142168373Y-103804642D01*
X142125549Y-103799500D01*
X142125544Y-103799500D01*
X141174702Y-103799500D01*
X141107663Y-103779815D01*
X141087021Y-103763181D01*
X140920324Y-103596484D01*
X140886839Y-103535161D01*
X140891823Y-103465469D01*
X140900618Y-103446803D01*
X140914740Y-103422343D01*
X140967024Y-103331784D01*
X141007947Y-103179057D01*
X141007947Y-103020943D01*
X140967024Y-102868216D01*
X140962034Y-102859573D01*
X140887971Y-102731290D01*
X140887965Y-102731282D01*
X140776164Y-102619481D01*
X140776156Y-102619475D01*
X140639237Y-102540426D01*
X140639233Y-102540424D01*
X140639231Y-102540423D01*
X140486504Y-102499500D01*
X140328390Y-102499500D01*
X140214040Y-102530140D01*
X140144190Y-102528477D01*
X140086328Y-102489314D01*
X140058824Y-102425086D01*
X140057947Y-102410365D01*
X140057947Y-98446503D01*
X140077632Y-98379464D01*
X140130436Y-98333709D01*
X140140970Y-98329470D01*
X140185604Y-98313852D01*
X140292446Y-98234999D01*
X140371299Y-98128157D01*
X140399856Y-98046546D01*
X140415155Y-98002826D01*
X140415155Y-98002823D01*
X140415157Y-98002819D01*
X140417947Y-97973066D01*
X140417947Y-97586934D01*
X140415157Y-97557181D01*
X140415155Y-97557177D01*
X140415155Y-97557173D01*
X140384651Y-97470003D01*
X140371299Y-97431843D01*
X140292446Y-97325001D01*
X140185604Y-97246148D01*
X140185602Y-97246147D01*
X140060273Y-97202291D01*
X140060261Y-97202289D01*
X140030517Y-97199500D01*
X140030513Y-97199500D01*
X139584381Y-97199500D01*
X139584377Y-97199500D01*
X139547116Y-97202994D01*
X139546896Y-97200654D01*
X139488694Y-97196532D01*
X139432731Y-97154699D01*
X139408269Y-97089252D01*
X139407947Y-97080320D01*
X139407947Y-96121777D01*
X139427632Y-96054738D01*
X139480436Y-96008983D01*
X139546241Y-95998604D01*
X139562582Y-96000500D01*
X140052311Y-96000499D01*
X140052326Y-96000497D01*
X140052329Y-96000497D01*
X140077433Y-95997586D01*
X140077434Y-95997585D01*
X140077438Y-95997585D01*
X140157364Y-95962294D01*
X140226637Y-95953223D01*
X140257528Y-95962293D01*
X140337456Y-95997585D01*
X140362582Y-96000500D01*
X140852311Y-96000499D01*
X140852326Y-96000497D01*
X140852329Y-96000497D01*
X140877434Y-95997586D01*
X140877435Y-95997585D01*
X140877438Y-95997585D01*
X140980212Y-95952206D01*
X141059653Y-95872765D01*
X141105032Y-95769991D01*
X141107947Y-95744865D01*
X141107946Y-94855136D01*
X141106917Y-94846259D01*
X141105033Y-94830012D01*
X141105032Y-94830010D01*
X141105032Y-94830009D01*
X141059653Y-94727235D01*
X140980212Y-94647794D01*
X140900118Y-94612429D01*
X140877439Y-94602415D01*
X140852312Y-94599500D01*
X140362590Y-94599500D01*
X140362564Y-94599502D01*
X140337460Y-94602413D01*
X140318371Y-94610842D01*
X140257530Y-94637705D01*
X140188255Y-94646776D01*
X140157360Y-94637704D01*
X140077439Y-94602415D01*
X140052312Y-94599500D01*
X139562590Y-94599500D01*
X139562564Y-94599502D01*
X139537460Y-94602413D01*
X139518371Y-94610842D01*
X139457530Y-94637705D01*
X139388255Y-94646776D01*
X139357360Y-94637704D01*
X139277439Y-94602415D01*
X139252312Y-94599500D01*
X138762590Y-94599500D01*
X138762564Y-94599502D01*
X138737460Y-94602413D01*
X138718371Y-94610842D01*
X138657530Y-94637705D01*
X138588255Y-94646776D01*
X138557360Y-94637704D01*
X138477439Y-94602415D01*
X138452312Y-94599500D01*
X137962590Y-94599500D01*
X137962564Y-94599502D01*
X137937460Y-94602413D01*
X137918371Y-94610842D01*
X137857530Y-94637705D01*
X137788255Y-94646776D01*
X137757360Y-94637704D01*
X137677439Y-94602415D01*
X137652312Y-94599500D01*
X137162590Y-94599500D01*
X137162564Y-94599502D01*
X137137460Y-94602413D01*
X137118371Y-94610842D01*
X137057530Y-94637705D01*
X136988255Y-94646776D01*
X136957360Y-94637704D01*
X136877439Y-94602415D01*
X136852312Y-94599500D01*
X136362590Y-94599500D01*
X136362564Y-94599502D01*
X136337460Y-94602413D01*
X136318371Y-94610842D01*
X136257530Y-94637705D01*
X136188255Y-94646776D01*
X136157360Y-94637704D01*
X136100118Y-94612429D01*
X136046742Y-94567343D01*
X136026215Y-94500557D01*
X136045053Y-94433275D01*
X136062519Y-94411319D01*
X137318709Y-93155131D01*
X141606947Y-93155131D01*
X141606947Y-93644856D01*
X141606949Y-93644882D01*
X141609860Y-93669987D01*
X141609861Y-93669988D01*
X141609861Y-93669990D01*
X141609862Y-93669991D01*
X141645151Y-93749913D01*
X141654223Y-93819191D01*
X141645152Y-93850083D01*
X141618203Y-93911118D01*
X141609862Y-93930009D01*
X141606947Y-93955131D01*
X141606947Y-94444856D01*
X141606949Y-94444882D01*
X141609860Y-94469987D01*
X141609862Y-94469991D01*
X141655240Y-94572764D01*
X141655241Y-94572765D01*
X141734682Y-94652206D01*
X141837456Y-94697585D01*
X141862582Y-94700500D01*
X142752311Y-94700499D01*
X142752326Y-94700497D01*
X142752329Y-94700497D01*
X142777434Y-94697586D01*
X142777435Y-94697585D01*
X142777438Y-94697585D01*
X142880212Y-94652206D01*
X142959653Y-94572765D01*
X143005032Y-94469991D01*
X143007947Y-94444865D01*
X143007946Y-93955136D01*
X143005343Y-93932689D01*
X143005033Y-93930012D01*
X143005032Y-93930011D01*
X143005032Y-93930009D01*
X142969741Y-93850083D01*
X142960670Y-93780809D01*
X142969738Y-93749922D01*
X143005032Y-93669991D01*
X143007947Y-93644865D01*
X143007946Y-93155136D01*
X143005880Y-93137319D01*
X143005033Y-93130012D01*
X143005032Y-93130010D01*
X143005032Y-93130009D01*
X142959653Y-93027235D01*
X142880212Y-92947794D01*
X142878242Y-92946924D01*
X142777439Y-92902415D01*
X142752312Y-92899500D01*
X141862590Y-92899500D01*
X141862564Y-92899502D01*
X141837459Y-92902413D01*
X141837455Y-92902415D01*
X141734682Y-92947793D01*
X141655241Y-93027234D01*
X141609862Y-93130006D01*
X141609862Y-93130008D01*
X141606947Y-93155131D01*
X137318709Y-93155131D01*
X137637021Y-92836819D01*
X137698344Y-92803334D01*
X137724702Y-92800500D01*
X140360172Y-92800500D01*
X140360174Y-92800500D01*
X140462035Y-92773207D01*
X140553360Y-92720480D01*
X141043153Y-92230684D01*
X141043158Y-92230681D01*
X141053358Y-92220480D01*
X141053360Y-92220480D01*
X141127927Y-92145913D01*
X141171761Y-92069991D01*
X141180654Y-92054588D01*
X141207947Y-91952727D01*
X141207947Y-91847273D01*
X141207947Y-85600098D01*
X141227632Y-85533059D01*
X141244266Y-85512417D01*
X141256605Y-85500078D01*
X141287967Y-85468716D01*
X141367024Y-85331784D01*
X141367027Y-85331771D01*
X141368383Y-85328500D01*
X141370279Y-85326146D01*
X141371088Y-85324746D01*
X141371306Y-85324872D01*
X141412222Y-85274095D01*
X141478515Y-85252026D01*
X141546215Y-85269302D01*
G37*
%TD.AperFunction*%
%TA.AperFunction,Conductor*%
G36*
X176283939Y-99270185D02*
G01*
X176302499Y-99286709D01*
X176309025Y-99292235D01*
X176311611Y-99294821D01*
X176312760Y-99295844D01*
X176313336Y-99296546D01*
X176347026Y-99330236D01*
X176380511Y-99391559D01*
X176375527Y-99461251D01*
X176333659Y-99517182D01*
X176299901Y-99542454D01*
X176221625Y-99647018D01*
X176219534Y-99649811D01*
X176199471Y-99664829D01*
X176182160Y-99682949D01*
X176171981Y-99685407D01*
X176163600Y-99691682D01*
X176120267Y-99699500D01*
X173754720Y-99699500D01*
X173652857Y-99726793D01*
X173561534Y-99779520D01*
X173561531Y-99779522D01*
X171277873Y-102063181D01*
X171216550Y-102096666D01*
X171190192Y-102099500D01*
X170489345Y-102099500D01*
X170450300Y-102104188D01*
X170400885Y-102110122D01*
X170260103Y-102165639D01*
X170139524Y-102257077D01*
X170048086Y-102377656D01*
X169992569Y-102518438D01*
X169989929Y-102540426D01*
X169981947Y-102606898D01*
X169981947Y-103193102D01*
X169989976Y-103259968D01*
X169992558Y-103281466D01*
X169981006Y-103350374D01*
X169957123Y-103383930D01*
X168027873Y-105313181D01*
X167966550Y-105346666D01*
X167940192Y-105349500D01*
X161233701Y-105349500D01*
X161166662Y-105329815D01*
X161120907Y-105277011D01*
X161110963Y-105207853D01*
X161139988Y-105144297D01*
X161146020Y-105137819D01*
X161373327Y-104910512D01*
X161680242Y-104603596D01*
X161741563Y-104570113D01*
X161811254Y-104575097D01*
X161867188Y-104616968D01*
X161887695Y-104659182D01*
X161891166Y-104672135D01*
X161966932Y-104803365D01*
X162074082Y-104910515D01*
X162205312Y-104986281D01*
X162351681Y-105025500D01*
X162351683Y-105025500D01*
X162503211Y-105025500D01*
X162503213Y-105025500D01*
X162649582Y-104986281D01*
X162780812Y-104910515D01*
X162887962Y-104803365D01*
X162963728Y-104672135D01*
X163002947Y-104525766D01*
X163002947Y-104374234D01*
X162963728Y-104227865D01*
X162959928Y-104221284D01*
X162909871Y-104134583D01*
X162887962Y-104096635D01*
X162780812Y-103989485D01*
X162649582Y-103913719D01*
X162640039Y-103911162D01*
X162580381Y-103874797D01*
X162549852Y-103811950D01*
X162555094Y-103750433D01*
X162585092Y-103664701D01*
X162585093Y-103664699D01*
X162587947Y-103634269D01*
X162587947Y-102375730D01*
X162585093Y-102345300D01*
X162585093Y-102345298D01*
X162541578Y-102220943D01*
X162540240Y-102217118D01*
X162459597Y-102107850D01*
X162438312Y-102092141D01*
X162396062Y-102036494D01*
X162387947Y-101992372D01*
X162387947Y-101905179D01*
X162407632Y-101838140D01*
X162460436Y-101792385D01*
X162529594Y-101782441D01*
X162593150Y-101811466D01*
X162599628Y-101817498D01*
X163202610Y-102420480D01*
X163293935Y-102473207D01*
X163395796Y-102500500D01*
X163395798Y-102500500D01*
X164308701Y-102500500D01*
X164308703Y-102500500D01*
X164410564Y-102473207D01*
X164501889Y-102420480D01*
X164927927Y-101994442D01*
X164980654Y-101903117D01*
X165007947Y-101801256D01*
X165007947Y-101695802D01*
X165007947Y-100047273D01*
X164980654Y-99945413D01*
X164927927Y-99854087D01*
X164853360Y-99779520D01*
X164844266Y-99770426D01*
X164810781Y-99709103D01*
X164807947Y-99682745D01*
X164807947Y-99620945D01*
X164807947Y-99620943D01*
X164767024Y-99468216D01*
X164748713Y-99436500D01*
X164732240Y-99368599D01*
X164755093Y-99302573D01*
X164810014Y-99259382D01*
X164856100Y-99250500D01*
X176216900Y-99250500D01*
X176283939Y-99270185D01*
G37*
%TD.AperFunction*%
%TA.AperFunction,Conductor*%
G36*
X161702268Y-98258164D02*
G01*
X161702866Y-98258759D01*
X162535678Y-99091571D01*
X162535688Y-99091582D01*
X162540018Y-99095912D01*
X162540019Y-99095913D01*
X162614586Y-99170480D01*
X162688029Y-99212882D01*
X162688030Y-99212883D01*
X162696970Y-99218044D01*
X162705910Y-99223206D01*
X162705911Y-99223206D01*
X162705912Y-99223207D01*
X162807772Y-99250501D01*
X162807774Y-99250501D01*
X162920822Y-99250501D01*
X162920838Y-99250500D01*
X163558794Y-99250500D01*
X163625833Y-99270185D01*
X163671588Y-99322989D01*
X163681532Y-99392147D01*
X163666181Y-99436500D01*
X163647871Y-99468213D01*
X163647870Y-99468216D01*
X163606947Y-99620943D01*
X163606947Y-99779057D01*
X163633254Y-99877234D01*
X163647870Y-99931783D01*
X163647873Y-99931790D01*
X163726922Y-100068709D01*
X163726926Y-100068714D01*
X163726927Y-100068716D01*
X163838731Y-100180520D01*
X163838733Y-100180521D01*
X163838737Y-100180524D01*
X163907433Y-100220185D01*
X163975663Y-100259577D01*
X164115042Y-100296923D01*
X164174701Y-100333287D01*
X164205230Y-100396134D01*
X164206947Y-100416697D01*
X164206947Y-100775500D01*
X164187262Y-100842539D01*
X164134458Y-100888294D01*
X164082947Y-100899500D01*
X164024701Y-100899500D01*
X163957662Y-100879815D01*
X163937020Y-100863181D01*
X163661782Y-100587942D01*
X163628297Y-100526619D01*
X163626004Y-100511826D01*
X163625189Y-100503126D01*
X163625186Y-100503115D01*
X163601979Y-100436793D01*
X163581828Y-100379206D01*
X163542849Y-100326391D01*
X163503870Y-100273576D01*
X163404854Y-100200500D01*
X163398241Y-100195619D01*
X163398239Y-100195618D01*
X163274327Y-100152258D01*
X163244908Y-100149500D01*
X163244904Y-100149500D01*
X162911947Y-100149500D01*
X162844908Y-100129815D01*
X162799153Y-100077011D01*
X162787947Y-100025500D01*
X162787947Y-99914776D01*
X162787946Y-99914769D01*
X162777889Y-99877235D01*
X162760654Y-99812912D01*
X162760652Y-99812909D01*
X162760652Y-99812907D01*
X162760651Y-99812906D01*
X162729707Y-99759310D01*
X162729706Y-99759309D01*
X162725726Y-99752415D01*
X162707927Y-99721587D01*
X162633360Y-99647020D01*
X162633359Y-99647019D01*
X162629029Y-99642689D01*
X162629018Y-99642679D01*
X162171315Y-99184976D01*
X161709610Y-98723270D01*
X161709609Y-98723269D01*
X161632007Y-98645667D01*
X161569279Y-98582939D01*
X161539918Y-98536211D01*
X161522741Y-98487120D01*
X161522740Y-98487119D01*
X161522740Y-98487118D01*
X161494336Y-98448632D01*
X161470366Y-98383005D01*
X161485681Y-98314835D01*
X161494329Y-98301376D01*
X161515416Y-98272805D01*
X161571062Y-98230556D01*
X161640718Y-98225097D01*
X161702268Y-98258164D01*
G37*
%TD.AperFunction*%
%TA.AperFunction,Conductor*%
G36*
X156685283Y-93245185D02*
G01*
X156705925Y-93261819D01*
X157531925Y-94087819D01*
X157565410Y-94149142D01*
X157560426Y-94218834D01*
X157518554Y-94274767D01*
X157453090Y-94299184D01*
X157444244Y-94299500D01*
X157328390Y-94299500D01*
X157175663Y-94340423D01*
X157175656Y-94340426D01*
X157038737Y-94419475D01*
X157038729Y-94419481D01*
X156926928Y-94531282D01*
X156926922Y-94531290D01*
X156847873Y-94668209D01*
X156847870Y-94668216D01*
X156806947Y-94820943D01*
X156806947Y-94979057D01*
X156839488Y-95100500D01*
X156847870Y-95131783D01*
X156847873Y-95131790D01*
X156926922Y-95268709D01*
X156926926Y-95268714D01*
X156926927Y-95268716D01*
X157038731Y-95380520D01*
X157038733Y-95380521D01*
X157038737Y-95380524D01*
X157163798Y-95452727D01*
X157175663Y-95459577D01*
X157328390Y-95500500D01*
X157390192Y-95500500D01*
X157457231Y-95520185D01*
X157477873Y-95536819D01*
X157895628Y-95954573D01*
X157929113Y-96015896D01*
X157931947Y-96042254D01*
X157931947Y-97175500D01*
X157912262Y-97242539D01*
X157859458Y-97288294D01*
X157807947Y-97299500D01*
X157765677Y-97299500D01*
X157735247Y-97302353D01*
X157735245Y-97302353D01*
X157607066Y-97347206D01*
X157607064Y-97347207D01*
X157497797Y-97427850D01*
X157417154Y-97537117D01*
X157417153Y-97537119D01*
X157372300Y-97665298D01*
X157372300Y-97665300D01*
X157369447Y-97695730D01*
X157369447Y-98104269D01*
X157372300Y-98134699D01*
X157372300Y-98134701D01*
X157414894Y-98256423D01*
X157417154Y-98262882D01*
X157497797Y-98372150D01*
X157607065Y-98452793D01*
X157649792Y-98467744D01*
X157735246Y-98497646D01*
X157765677Y-98500500D01*
X158882947Y-98500500D01*
X158949986Y-98520185D01*
X158995741Y-98572989D01*
X159006947Y-98624500D01*
X159006947Y-99075500D01*
X158987262Y-99142539D01*
X158934458Y-99188294D01*
X158882947Y-99199500D01*
X157765677Y-99199500D01*
X157735247Y-99202353D01*
X157735245Y-99202353D01*
X157607066Y-99247206D01*
X157607064Y-99247207D01*
X157497797Y-99327850D01*
X157482089Y-99349134D01*
X157426441Y-99391385D01*
X157382319Y-99399500D01*
X156973626Y-99399500D01*
X156906587Y-99379815D01*
X156885945Y-99363181D01*
X154829262Y-97306498D01*
X154829260Y-97306496D01*
X154774304Y-97274767D01*
X154737936Y-97253769D01*
X154673197Y-97236423D01*
X154636074Y-97226476D01*
X154636073Y-97226476D01*
X154591947Y-97226476D01*
X154524908Y-97206791D01*
X154479153Y-97153987D01*
X154467947Y-97102476D01*
X154467946Y-96662546D01*
X154465188Y-96633125D01*
X154465188Y-96633121D01*
X154421828Y-96509206D01*
X154343870Y-96403577D01*
X154343866Y-96403574D01*
X154337296Y-96397003D01*
X154339304Y-96394994D01*
X154306055Y-96351188D01*
X154297947Y-96307085D01*
X154297947Y-95803265D01*
X154317632Y-95736226D01*
X154364006Y-95693634D01*
X154370318Y-95690296D01*
X154370329Y-95690293D01*
X154479597Y-95609650D01*
X154560240Y-95500382D01*
X154582666Y-95436290D01*
X154605093Y-95372201D01*
X154605093Y-95372199D01*
X154607947Y-95341769D01*
X154607947Y-94058230D01*
X154605093Y-94027801D01*
X154604292Y-94025511D01*
X154604200Y-94023710D01*
X154603483Y-94020427D01*
X154604026Y-94020308D01*
X154600731Y-93955732D01*
X154635460Y-93895105D01*
X154697454Y-93862878D01*
X154732911Y-93861099D01*
X154753181Y-93863000D01*
X155161717Y-93863000D01*
X155192146Y-93860146D01*
X155192148Y-93860146D01*
X155256237Y-93837719D01*
X155320329Y-93815293D01*
X155429597Y-93734650D01*
X155510240Y-93625382D01*
X155542322Y-93533697D01*
X155555093Y-93497201D01*
X155555093Y-93497199D01*
X155557947Y-93466769D01*
X155557947Y-93349500D01*
X155577632Y-93282461D01*
X155630436Y-93236706D01*
X155681947Y-93225500D01*
X156618244Y-93225500D01*
X156685283Y-93245185D01*
G37*
%TD.AperFunction*%
%TA.AperFunction,Conductor*%
G36*
X161167612Y-93932689D02*
G01*
X161181076Y-93941342D01*
X161276653Y-94011881D01*
X161300736Y-94020308D01*
X161400566Y-94055241D01*
X161408243Y-94055960D01*
X161429990Y-94058000D01*
X161620190Y-94057999D01*
X161687230Y-94077683D01*
X161707872Y-94094318D01*
X162646534Y-95032980D01*
X162737859Y-95085707D01*
X162839720Y-95113000D01*
X162839722Y-95113000D01*
X176297672Y-95113000D01*
X176297674Y-95113000D01*
X176399535Y-95085707D01*
X176490860Y-95032980D01*
X176937021Y-94586819D01*
X176998344Y-94553334D01*
X177024702Y-94550500D01*
X177426441Y-94550500D01*
X177446708Y-94546468D01*
X177508756Y-94534126D01*
X177578346Y-94540353D01*
X177633524Y-94583215D01*
X177656769Y-94649105D01*
X177656947Y-94655743D01*
X177656947Y-95182745D01*
X177637262Y-95249784D01*
X177620628Y-95270426D01*
X177277873Y-95613181D01*
X177216550Y-95646666D01*
X177190192Y-95649500D01*
X176788452Y-95649500D01*
X176653124Y-95676418D01*
X176653114Y-95676421D01*
X176525642Y-95729221D01*
X176525629Y-95729228D01*
X176410905Y-95805885D01*
X176410901Y-95805888D01*
X176313335Y-95903454D01*
X176313332Y-95903458D01*
X176236675Y-96018182D01*
X176236668Y-96018195D01*
X176183868Y-96145667D01*
X176183865Y-96145677D01*
X176156947Y-96281004D01*
X176156947Y-96281007D01*
X176156947Y-96418993D01*
X176156947Y-96418995D01*
X176156946Y-96418995D01*
X176183865Y-96554322D01*
X176183868Y-96554332D01*
X176236668Y-96681804D01*
X176236675Y-96681817D01*
X176313332Y-96796541D01*
X176313335Y-96796545D01*
X176404109Y-96887319D01*
X176437594Y-96948642D01*
X176432610Y-97018334D01*
X176404109Y-97062681D01*
X176313336Y-97153453D01*
X176312760Y-97154156D01*
X176312364Y-97154425D01*
X176309025Y-97157765D01*
X176308391Y-97157131D01*
X176255018Y-97193496D01*
X176216900Y-97199500D01*
X164038277Y-97199500D01*
X163971238Y-97179815D01*
X163950596Y-97163181D01*
X160960185Y-94172769D01*
X160926700Y-94111446D01*
X160931684Y-94041754D01*
X160973556Y-93985821D01*
X160974232Y-93985318D01*
X161000552Y-93965893D01*
X161033814Y-93941344D01*
X161099442Y-93917374D01*
X161167612Y-93932689D01*
G37*
%TD.AperFunction*%
%TA.AperFunction,Conductor*%
G36*
X170272231Y-84760185D02*
G01*
X170292873Y-84776819D01*
X170853373Y-85337318D01*
X170886858Y-85398641D01*
X170881874Y-85468332D01*
X170853373Y-85512680D01*
X169736969Y-86629084D01*
X169736967Y-86629087D01*
X169684238Y-86720413D01*
X169667013Y-86784705D01*
X169667013Y-86784706D01*
X169656947Y-86822272D01*
X169656947Y-87451346D01*
X169637262Y-87518385D01*
X169584458Y-87564140D01*
X169515300Y-87574084D01*
X169470950Y-87558735D01*
X169439233Y-87540424D01*
X169439232Y-87540423D01*
X169439231Y-87540423D01*
X169286504Y-87499500D01*
X169128390Y-87499500D01*
X168975663Y-87540423D01*
X168975656Y-87540426D01*
X168838737Y-87619475D01*
X168838733Y-87619478D01*
X168816161Y-87642050D01*
X168754837Y-87675534D01*
X168685145Y-87670548D01*
X168629213Y-87628676D01*
X168604797Y-87563211D01*
X168618853Y-87496422D01*
X168621825Y-87490796D01*
X168621828Y-87490794D01*
X168636073Y-87450085D01*
X168665188Y-87366881D01*
X168665188Y-87366879D01*
X168666779Y-87349912D01*
X168667947Y-87337457D01*
X168667946Y-86862544D01*
X168665188Y-86833121D01*
X168621828Y-86709206D01*
X168571935Y-86641604D01*
X168543870Y-86603576D01*
X168471157Y-86549912D01*
X168438241Y-86525619D01*
X168438239Y-86525618D01*
X168314327Y-86482258D01*
X168284908Y-86479500D01*
X167909993Y-86479500D01*
X167880572Y-86482258D01*
X167880562Y-86482260D01*
X167756654Y-86525618D01*
X167689051Y-86575510D01*
X167689044Y-86575516D01*
X167651024Y-86603577D01*
X167622963Y-86641597D01*
X167622957Y-86641604D01*
X167573065Y-86709207D01*
X167529705Y-86833118D01*
X167529705Y-86833120D01*
X167526947Y-86862538D01*
X167526947Y-87337453D01*
X167529705Y-87366874D01*
X167529707Y-87366884D01*
X167570638Y-87483856D01*
X167573066Y-87490794D01*
X167593429Y-87518385D01*
X167651025Y-87596425D01*
X167657595Y-87602995D01*
X167655584Y-87605005D01*
X167688827Y-87648780D01*
X167696947Y-87692914D01*
X167696947Y-90408761D01*
X167677262Y-90475800D01*
X167672718Y-90482394D01*
X167604654Y-90574618D01*
X167604653Y-90574619D01*
X167559800Y-90702798D01*
X167559800Y-90702800D01*
X167556947Y-90733230D01*
X167556947Y-92016769D01*
X167559800Y-92047199D01*
X167559800Y-92047201D01*
X167597683Y-92155461D01*
X167604654Y-92175382D01*
X167685297Y-92284650D01*
X167794565Y-92365293D01*
X167815925Y-92372767D01*
X167922746Y-92410146D01*
X167953177Y-92413000D01*
X167953181Y-92413000D01*
X168361717Y-92413000D01*
X168392146Y-92410146D01*
X168392148Y-92410146D01*
X168456237Y-92387719D01*
X168520329Y-92365293D01*
X168629597Y-92284650D01*
X168710240Y-92175382D01*
X168743783Y-92079522D01*
X168755093Y-92047201D01*
X168755093Y-92047199D01*
X168757947Y-92016769D01*
X168757947Y-90733230D01*
X168755093Y-90702801D01*
X168754292Y-90700511D01*
X168754200Y-90698710D01*
X168753483Y-90695427D01*
X168754026Y-90695308D01*
X168750731Y-90630732D01*
X168785460Y-90570105D01*
X168847454Y-90537878D01*
X168882911Y-90536099D01*
X168903181Y-90538000D01*
X169311712Y-90538000D01*
X169311713Y-90538000D01*
X169331979Y-90536099D01*
X169400563Y-90549436D01*
X169451050Y-90597737D01*
X169467409Y-90665664D01*
X169460605Y-90700500D01*
X169459801Y-90702798D01*
X169459800Y-90702800D01*
X169456947Y-90733230D01*
X169456947Y-92016769D01*
X169459800Y-92047198D01*
X169485016Y-92119262D01*
X169488577Y-92189041D01*
X169455655Y-92247897D01*
X168577873Y-93125681D01*
X168516550Y-93159166D01*
X168490192Y-93162000D01*
X168066303Y-93162000D01*
X168028288Y-93166565D01*
X167981858Y-93172140D01*
X167847470Y-93225136D01*
X167732368Y-93312421D01*
X167645083Y-93427523D01*
X167592087Y-93561911D01*
X167589832Y-93580693D01*
X167581947Y-93646356D01*
X167581947Y-93646362D01*
X167581947Y-94188000D01*
X167562262Y-94255039D01*
X167509458Y-94300794D01*
X167457947Y-94312000D01*
X163109702Y-94312000D01*
X163042663Y-94292315D01*
X163022021Y-94275681D01*
X162224265Y-93477925D01*
X162209561Y-93450997D01*
X162192969Y-93425179D01*
X162192077Y-93418978D01*
X162190780Y-93416602D01*
X162187946Y-93390244D01*
X162187946Y-93200045D01*
X162187945Y-93200038D01*
X165026947Y-93200038D01*
X165026947Y-93674953D01*
X165029705Y-93704374D01*
X165029707Y-93704384D01*
X165073065Y-93828292D01*
X165151023Y-93933923D01*
X165203838Y-93972902D01*
X165256653Y-94011881D01*
X165280736Y-94020308D01*
X165380566Y-94055241D01*
X165388243Y-94055960D01*
X165409990Y-94058000D01*
X165784903Y-94057999D01*
X165814326Y-94055241D01*
X165938241Y-94011881D01*
X166043870Y-93933923D01*
X166121828Y-93828294D01*
X166143508Y-93766336D01*
X166165188Y-93704381D01*
X166165188Y-93704379D01*
X166166209Y-93693487D01*
X166167947Y-93674957D01*
X166167946Y-93200044D01*
X166165188Y-93170621D01*
X166128389Y-93065455D01*
X166124827Y-92995676D01*
X166159555Y-92935049D01*
X166221549Y-92902821D01*
X166245430Y-92900500D01*
X166286502Y-92900500D01*
X166286504Y-92900500D01*
X166439231Y-92859577D01*
X166576163Y-92780520D01*
X166687967Y-92668716D01*
X166767024Y-92531784D01*
X166807947Y-92379057D01*
X166807947Y-92220943D01*
X166767024Y-92068216D01*
X166753544Y-92044868D01*
X166687971Y-91931290D01*
X166687965Y-91931282D01*
X166576164Y-91819481D01*
X166576156Y-91819475D01*
X166439237Y-91740426D01*
X166439233Y-91740424D01*
X166439231Y-91740423D01*
X166286504Y-91699500D01*
X166128390Y-91699500D01*
X165975663Y-91740423D01*
X165975656Y-91740426D01*
X165838737Y-91819475D01*
X165838729Y-91819481D01*
X165726928Y-91931282D01*
X165726922Y-91931290D01*
X165647873Y-92068209D01*
X165647870Y-92068216D01*
X165606947Y-92220943D01*
X165606947Y-92282745D01*
X165587262Y-92349784D01*
X165570628Y-92370426D01*
X165276969Y-92664084D01*
X165276967Y-92664087D01*
X165224240Y-92755412D01*
X165212159Y-92800500D01*
X165212159Y-92800501D01*
X165212158Y-92800500D01*
X165196947Y-92857269D01*
X165196551Y-92860284D01*
X165195509Y-92862637D01*
X165194844Y-92865122D01*
X165194456Y-92865018D01*
X165168282Y-92924179D01*
X165157430Y-92934335D01*
X165157598Y-92934503D01*
X165151024Y-92941077D01*
X165073065Y-93046707D01*
X165029705Y-93170618D01*
X165029705Y-93170620D01*
X165026947Y-93200038D01*
X162187945Y-93200038D01*
X162185188Y-93170621D01*
X162141828Y-93046706D01*
X162094867Y-92983076D01*
X162063870Y-92941076D01*
X161983645Y-92881868D01*
X161958241Y-92863119D01*
X161958239Y-92863118D01*
X161834327Y-92819758D01*
X161804908Y-92817000D01*
X161429993Y-92817000D01*
X161400572Y-92819758D01*
X161400562Y-92819760D01*
X161276654Y-92863118D01*
X161195581Y-92922953D01*
X161129952Y-92946924D01*
X161061781Y-92931609D01*
X161012713Y-92881868D01*
X160997947Y-92823183D01*
X160997947Y-92378558D01*
X161017632Y-92311519D01*
X161034266Y-92290877D01*
X165245266Y-88079877D01*
X165306589Y-88046392D01*
X165376281Y-88051376D01*
X165432214Y-88093248D01*
X165456631Y-88158712D01*
X165456947Y-88167558D01*
X165456947Y-88316144D01*
X165461161Y-88351231D01*
X165467087Y-88400588D01*
X165520083Y-88534976D01*
X165607368Y-88650078D01*
X165722470Y-88737363D01*
X165722471Y-88737363D01*
X165722472Y-88737364D01*
X165856857Y-88790359D01*
X165941303Y-88800500D01*
X165941309Y-88800500D01*
X166473585Y-88800500D01*
X166473591Y-88800500D01*
X166558037Y-88790359D01*
X166692422Y-88737364D01*
X166807525Y-88650078D01*
X166894811Y-88534975D01*
X166947806Y-88400590D01*
X166957947Y-88316144D01*
X166957947Y-87483856D01*
X166947806Y-87399410D01*
X166894811Y-87265025D01*
X166894810Y-87265024D01*
X166894810Y-87265023D01*
X166854049Y-87211272D01*
X166829226Y-87145961D01*
X166843654Y-87077597D01*
X166865168Y-87048670D01*
X168957021Y-84956819D01*
X169018344Y-84923334D01*
X169044702Y-84920500D01*
X169230517Y-84920500D01*
X169243736Y-84919260D01*
X169260266Y-84917710D01*
X169260270Y-84917708D01*
X169260273Y-84917708D01*
X169336332Y-84891093D01*
X169385604Y-84873852D01*
X169492446Y-84794999D01*
X169495497Y-84790864D01*
X169551145Y-84748615D01*
X169595266Y-84740500D01*
X170205192Y-84740500D01*
X170272231Y-84760185D01*
G37*
%TD.AperFunction*%
%TA.AperFunction,Conductor*%
G36*
X176118742Y-92320185D02*
G01*
X176164497Y-92372989D01*
X176174441Y-92442147D01*
X176173320Y-92448691D01*
X176156947Y-92531002D01*
X176156947Y-92531007D01*
X176156947Y-92668993D01*
X176156947Y-92668995D01*
X176156946Y-92668995D01*
X176183865Y-92804322D01*
X176183868Y-92804332D01*
X176236668Y-92931804D01*
X176236675Y-92931817D01*
X176313332Y-93046541D01*
X176313335Y-93046545D01*
X176404109Y-93137319D01*
X176437594Y-93198642D01*
X176432610Y-93268334D01*
X176404109Y-93312681D01*
X176313335Y-93403454D01*
X176313332Y-93403458D01*
X176236675Y-93518182D01*
X176236668Y-93518195D01*
X176183868Y-93645667D01*
X176183865Y-93645677D01*
X176156947Y-93781004D01*
X176156947Y-93781007D01*
X176156947Y-93918993D01*
X176156947Y-93918995D01*
X176156946Y-93918995D01*
X176183865Y-94054322D01*
X176183867Y-94054328D01*
X176195436Y-94082259D01*
X176196931Y-94085867D01*
X176204400Y-94155337D01*
X176173125Y-94217816D01*
X176170052Y-94221000D01*
X176115373Y-94275680D01*
X176054050Y-94309166D01*
X176027691Y-94312000D01*
X169206947Y-94312000D01*
X169139908Y-94292315D01*
X169094153Y-94239511D01*
X169082947Y-94188000D01*
X169082947Y-93804755D01*
X169102632Y-93737716D01*
X169119266Y-93717074D01*
X170499521Y-92336819D01*
X170560844Y-92303334D01*
X170587202Y-92300500D01*
X176051703Y-92300500D01*
X176118742Y-92320185D01*
G37*
%TD.AperFunction*%
%TA.AperFunction,Conductor*%
G36*
X162099986Y-88082685D02*
G01*
X162145741Y-88135489D01*
X162156947Y-88187000D01*
X162156947Y-88316144D01*
X162161161Y-88351231D01*
X162167087Y-88400588D01*
X162220083Y-88534976D01*
X162307368Y-88650078D01*
X162422470Y-88737363D01*
X162422471Y-88737363D01*
X162422472Y-88737364D01*
X162556857Y-88790359D01*
X162641303Y-88800500D01*
X162641309Y-88800500D01*
X163092496Y-88800500D01*
X163159535Y-88820185D01*
X163205290Y-88872989D01*
X163215234Y-88942147D01*
X163186209Y-89005703D01*
X163180177Y-89012181D01*
X160419628Y-91772730D01*
X160358305Y-91806215D01*
X160288613Y-91801231D01*
X160232680Y-91759359D01*
X160208263Y-91693895D01*
X160207947Y-91685049D01*
X160207947Y-89725128D01*
X160227632Y-89658089D01*
X160258313Y-89625357D01*
X160279597Y-89609650D01*
X160360240Y-89500382D01*
X160382666Y-89436290D01*
X160405093Y-89372201D01*
X160405093Y-89372199D01*
X160407947Y-89341769D01*
X160407947Y-88187000D01*
X160427632Y-88119961D01*
X160480436Y-88074206D01*
X160531947Y-88063000D01*
X162032947Y-88063000D01*
X162099986Y-88082685D01*
G37*
%TD.AperFunction*%
%TA.AperFunction,Conductor*%
G36*
X152749986Y-83780185D02*
G01*
X152795741Y-83832989D01*
X152806947Y-83884500D01*
X152806947Y-84375500D01*
X152787262Y-84442539D01*
X152734458Y-84488294D01*
X152682947Y-84499500D01*
X151462518Y-84499500D01*
X151395479Y-84479815D01*
X151349724Y-84427011D01*
X151347163Y-84420989D01*
X151344811Y-84415024D01*
X151257525Y-84299921D01*
X151142423Y-84212636D01*
X151008035Y-84159640D01*
X150964689Y-84154435D01*
X150923591Y-84149500D01*
X150341303Y-84149500D01*
X150303288Y-84154065D01*
X150256858Y-84159640D01*
X150122470Y-84212636D01*
X150007368Y-84299921D01*
X149920082Y-84415024D01*
X149917731Y-84420989D01*
X149874825Y-84476133D01*
X149808918Y-84499327D01*
X149802376Y-84499500D01*
X147707545Y-84499500D01*
X147640506Y-84479815D01*
X147619864Y-84463181D01*
X147576164Y-84419481D01*
X147576156Y-84419475D01*
X147439237Y-84340426D01*
X147439233Y-84340424D01*
X147439231Y-84340423D01*
X147286504Y-84299500D01*
X147128390Y-84299500D01*
X146975663Y-84340423D01*
X146975656Y-84340426D01*
X146838737Y-84419475D01*
X146838729Y-84419481D01*
X146726928Y-84531282D01*
X146726922Y-84531290D01*
X146647873Y-84668209D01*
X146647870Y-84668216D01*
X146606947Y-84820943D01*
X146606947Y-84979057D01*
X146647395Y-85130009D01*
X146647870Y-85131783D01*
X146647873Y-85131790D01*
X146726922Y-85268709D01*
X146726926Y-85268714D01*
X146726927Y-85268716D01*
X146838731Y-85380520D01*
X146838733Y-85380521D01*
X146838737Y-85380524D01*
X146945658Y-85442254D01*
X146975663Y-85459577D01*
X147128390Y-85500500D01*
X147128392Y-85500500D01*
X147286502Y-85500500D01*
X147286504Y-85500500D01*
X147439231Y-85459577D01*
X147576163Y-85380520D01*
X147619864Y-85336819D01*
X147681187Y-85303334D01*
X147707545Y-85300500D01*
X149802376Y-85300500D01*
X149869415Y-85320185D01*
X149915170Y-85372989D01*
X149917731Y-85379011D01*
X149920082Y-85384975D01*
X150007368Y-85500078D01*
X150122470Y-85587363D01*
X150122471Y-85587363D01*
X150122472Y-85587364D01*
X150256857Y-85640359D01*
X150341303Y-85650500D01*
X150341309Y-85650500D01*
X150923585Y-85650500D01*
X150923591Y-85650500D01*
X151008037Y-85640359D01*
X151142422Y-85587364D01*
X151257525Y-85500078D01*
X151344811Y-85384975D01*
X151347163Y-85379011D01*
X151390069Y-85323867D01*
X151455976Y-85300673D01*
X151462518Y-85300500D01*
X152960170Y-85300500D01*
X152960174Y-85300500D01*
X152960177Y-85300498D01*
X152966139Y-85299714D01*
X153035175Y-85310478D01*
X153040268Y-85313022D01*
X153044562Y-85315291D01*
X153044565Y-85315293D01*
X153075581Y-85326146D01*
X153172746Y-85360146D01*
X153203177Y-85363000D01*
X153203181Y-85363000D01*
X153611717Y-85363000D01*
X153642146Y-85360146D01*
X153642148Y-85360146D01*
X153708811Y-85336819D01*
X153770329Y-85315293D01*
X153879597Y-85234650D01*
X153960240Y-85125382D01*
X153996785Y-85020943D01*
X154005093Y-84997201D01*
X154005093Y-84997199D01*
X154007947Y-84966769D01*
X154007947Y-83884500D01*
X154027632Y-83817461D01*
X154080436Y-83771706D01*
X154131947Y-83760500D01*
X154582947Y-83760500D01*
X154649986Y-83780185D01*
X154695741Y-83832989D01*
X154706947Y-83884500D01*
X154706947Y-84966769D01*
X154709800Y-84997199D01*
X154709800Y-84997201D01*
X154754653Y-85125380D01*
X154754654Y-85125382D01*
X154835297Y-85234650D01*
X154944565Y-85315293D01*
X154975581Y-85326146D01*
X155072746Y-85360146D01*
X155103177Y-85363000D01*
X155103181Y-85363000D01*
X155511717Y-85363000D01*
X155542146Y-85360146D01*
X155542148Y-85360146D01*
X155608811Y-85336819D01*
X155670329Y-85315293D01*
X155779597Y-85234650D01*
X155860240Y-85125382D01*
X155896785Y-85020943D01*
X155905093Y-84997201D01*
X155905093Y-84997199D01*
X155907947Y-84966769D01*
X155907947Y-83884500D01*
X155927632Y-83817461D01*
X155980436Y-83771706D01*
X156031947Y-83760500D01*
X167889108Y-83760500D01*
X167956147Y-83780185D01*
X168001902Y-83832989D01*
X168011846Y-83902147D01*
X168008884Y-83916586D01*
X168002745Y-83939500D01*
X168002745Y-83939501D01*
X168002744Y-83939500D01*
X167996947Y-83961134D01*
X167996947Y-84144049D01*
X167977262Y-84211088D01*
X167960628Y-84231730D01*
X163869628Y-88322730D01*
X163808305Y-88356215D01*
X163738613Y-88351231D01*
X163682680Y-88309359D01*
X163658263Y-88243895D01*
X163657947Y-88235049D01*
X163657947Y-87483862D01*
X163657947Y-87483856D01*
X163647806Y-87399410D01*
X163594811Y-87265025D01*
X163594810Y-87265024D01*
X163594810Y-87265023D01*
X163507525Y-87149921D01*
X163392423Y-87062636D01*
X163258035Y-87009640D01*
X163214689Y-87004435D01*
X163173591Y-86999500D01*
X162641303Y-86999500D01*
X162603288Y-87004065D01*
X162556858Y-87009640D01*
X162422470Y-87062636D01*
X162307367Y-87149922D01*
X162259590Y-87212926D01*
X162203398Y-87254449D01*
X162160787Y-87262000D01*
X161494966Y-87262000D01*
X161427927Y-87242315D01*
X161382172Y-87189511D01*
X161372228Y-87120353D01*
X161401253Y-87056797D01*
X161407285Y-87050319D01*
X161407524Y-87050079D01*
X161438190Y-87009641D01*
X161494811Y-86934975D01*
X161547806Y-86800590D01*
X161547806Y-86800583D01*
X161547809Y-86800578D01*
X161549446Y-86794107D01*
X161584962Y-86733937D01*
X161647370Y-86702520D01*
X161669663Y-86700500D01*
X161860172Y-86700500D01*
X161860174Y-86700500D01*
X161962035Y-86673207D01*
X162053360Y-86620480D01*
X162337021Y-86336819D01*
X162398344Y-86303334D01*
X162424702Y-86300500D01*
X162486502Y-86300500D01*
X162486504Y-86300500D01*
X162639231Y-86259577D01*
X162776163Y-86180520D01*
X162887967Y-86068716D01*
X162967024Y-85931784D01*
X163007947Y-85779057D01*
X163007947Y-85620943D01*
X162967024Y-85468216D01*
X162952035Y-85442254D01*
X162887971Y-85331290D01*
X162887965Y-85331282D01*
X162776164Y-85219481D01*
X162776156Y-85219475D01*
X162639237Y-85140426D01*
X162639233Y-85140424D01*
X162639231Y-85140423D01*
X162486504Y-85099500D01*
X162328390Y-85099500D01*
X162175663Y-85140423D01*
X162175656Y-85140426D01*
X162038737Y-85219475D01*
X162038729Y-85219481D01*
X161926928Y-85331282D01*
X161926922Y-85331290D01*
X161847873Y-85468209D01*
X161847870Y-85468216D01*
X161806947Y-85620943D01*
X161806947Y-85682745D01*
X161787262Y-85749784D01*
X161770631Y-85770422D01*
X161749680Y-85791374D01*
X161736306Y-85804748D01*
X161674982Y-85838232D01*
X161605291Y-85833246D01*
X161549358Y-85791374D01*
X161533273Y-85762558D01*
X161501481Y-85681938D01*
X161494811Y-85665024D01*
X161407525Y-85549921D01*
X161292423Y-85462636D01*
X161158035Y-85409640D01*
X161114689Y-85404435D01*
X161073591Y-85399500D01*
X160541303Y-85399500D01*
X160503288Y-85404065D01*
X160456858Y-85409640D01*
X160322470Y-85462636D01*
X160207368Y-85549921D01*
X160120083Y-85665023D01*
X160067087Y-85799411D01*
X160061512Y-85845841D01*
X160056947Y-85883856D01*
X160056947Y-86716144D01*
X160059084Y-86733937D01*
X160067087Y-86800588D01*
X160120083Y-86934976D01*
X160207369Y-87050079D01*
X160207609Y-87050319D01*
X160207757Y-87050591D01*
X160212494Y-87056837D01*
X160211556Y-87057548D01*
X160241094Y-87111642D01*
X160236110Y-87181334D01*
X160194238Y-87237267D01*
X160128774Y-87261684D01*
X160119928Y-87262000D01*
X159087202Y-87262000D01*
X159020163Y-87242315D01*
X158999521Y-87225681D01*
X158294266Y-86520426D01*
X158260781Y-86459103D01*
X158257947Y-86432745D01*
X158257947Y-85883862D01*
X158257947Y-85883856D01*
X158247806Y-85799410D01*
X158194811Y-85665025D01*
X158194810Y-85665024D01*
X158194810Y-85665023D01*
X158107525Y-85549921D01*
X157992423Y-85462636D01*
X157858035Y-85409640D01*
X157814689Y-85404435D01*
X157773591Y-85399500D01*
X157241303Y-85399500D01*
X157203288Y-85404065D01*
X157156858Y-85409640D01*
X157022470Y-85462636D01*
X156907368Y-85549921D01*
X156820083Y-85665023D01*
X156792840Y-85734107D01*
X156774424Y-85780809D01*
X156767084Y-85799421D01*
X156765448Y-85805893D01*
X156729932Y-85866063D01*
X156667524Y-85897480D01*
X156645231Y-85899500D01*
X155885849Y-85899500D01*
X155818810Y-85879815D01*
X155786078Y-85849132D01*
X155779597Y-85840350D01*
X155670329Y-85759707D01*
X155670327Y-85759706D01*
X155542147Y-85714853D01*
X155511717Y-85712000D01*
X155511713Y-85712000D01*
X155103181Y-85712000D01*
X155103177Y-85712000D01*
X155072747Y-85714853D01*
X155072745Y-85714853D01*
X154944566Y-85759706D01*
X154944564Y-85759707D01*
X154835297Y-85840350D01*
X154754654Y-85949617D01*
X154754653Y-85949619D01*
X154709800Y-86077798D01*
X154709800Y-86077800D01*
X154706947Y-86108230D01*
X154706947Y-87241769D01*
X154709800Y-87272199D01*
X154709800Y-87272201D01*
X154754314Y-87399410D01*
X154754654Y-87400382D01*
X154785554Y-87442250D01*
X154811102Y-87476867D01*
X154835072Y-87542496D01*
X154819756Y-87610666D01*
X154770016Y-87659734D01*
X154711331Y-87674500D01*
X154003563Y-87674500D01*
X153936524Y-87654815D01*
X153890769Y-87602011D01*
X153880825Y-87532853D01*
X153903792Y-87476867D01*
X153922627Y-87451346D01*
X153960240Y-87400382D01*
X153982666Y-87336290D01*
X154005093Y-87272201D01*
X154005093Y-87272199D01*
X154007947Y-87241769D01*
X154007947Y-86108230D01*
X154005093Y-86077800D01*
X154005093Y-86077798D01*
X153960240Y-85949619D01*
X153960239Y-85949617D01*
X153923251Y-85899500D01*
X153879597Y-85840350D01*
X153770329Y-85759707D01*
X153770327Y-85759706D01*
X153642147Y-85714853D01*
X153611717Y-85712000D01*
X153611713Y-85712000D01*
X153203181Y-85712000D01*
X153203177Y-85712000D01*
X153172747Y-85714853D01*
X153172745Y-85714853D01*
X153044566Y-85759706D01*
X153044564Y-85759707D01*
X152935297Y-85840350D01*
X152854654Y-85949617D01*
X152854653Y-85949619D01*
X152809800Y-86077798D01*
X152809800Y-86077800D01*
X152806947Y-86108230D01*
X152806947Y-87241769D01*
X152809800Y-87272199D01*
X152809800Y-87272201D01*
X152854314Y-87399410D01*
X152854654Y-87400382D01*
X152911102Y-87476867D01*
X152921378Y-87490791D01*
X152935297Y-87509650D01*
X152956579Y-87525357D01*
X152998831Y-87581003D01*
X153006947Y-87625128D01*
X153006947Y-87857745D01*
X152987262Y-87924784D01*
X152970628Y-87945426D01*
X152827873Y-88088181D01*
X152766550Y-88121666D01*
X152740192Y-88124500D01*
X152316303Y-88124500D01*
X152278288Y-88129065D01*
X152231858Y-88134640D01*
X152097470Y-88187636D01*
X151982368Y-88274921D01*
X151895083Y-88390023D01*
X151842087Y-88524411D01*
X151836512Y-88570841D01*
X151831947Y-88608856D01*
X151831947Y-89191144D01*
X151834973Y-89216340D01*
X151842087Y-89275588D01*
X151895083Y-89409976D01*
X151982368Y-89525078D01*
X152097470Y-89612363D01*
X152097471Y-89612363D01*
X152097472Y-89612364D01*
X152231857Y-89665359D01*
X152316303Y-89675500D01*
X152316309Y-89675500D01*
X152848585Y-89675500D01*
X152848591Y-89675500D01*
X152933037Y-89665359D01*
X153067422Y-89612364D01*
X153182525Y-89525078D01*
X153269811Y-89409975D01*
X153322806Y-89275590D01*
X153332947Y-89191144D01*
X153332947Y-88767255D01*
X153352632Y-88700216D01*
X153369266Y-88679574D01*
X153537021Y-88511819D01*
X153598344Y-88478334D01*
X153624702Y-88475500D01*
X155360172Y-88475500D01*
X155360174Y-88475500D01*
X155462034Y-88448207D01*
X155553360Y-88395480D01*
X155627927Y-88320913D01*
X155680654Y-88229587D01*
X155707947Y-88127727D01*
X155707947Y-87625128D01*
X155727632Y-87558089D01*
X155758313Y-87525357D01*
X155779597Y-87509650D01*
X155860240Y-87400382D01*
X155882666Y-87336290D01*
X155905093Y-87272201D01*
X155905093Y-87272199D01*
X155907947Y-87241769D01*
X155907947Y-86824500D01*
X155927632Y-86757461D01*
X155980436Y-86711706D01*
X156031947Y-86700500D01*
X156645231Y-86700500D01*
X156712270Y-86720185D01*
X156758025Y-86772989D01*
X156765448Y-86794107D01*
X156767084Y-86800578D01*
X156767087Y-86800587D01*
X156767088Y-86800590D01*
X156792626Y-86865350D01*
X156820083Y-86934976D01*
X156907368Y-87050078D01*
X157022470Y-87137363D01*
X157022471Y-87137363D01*
X157022472Y-87137364D01*
X157156857Y-87190359D01*
X157241303Y-87200500D01*
X157241309Y-87200500D01*
X157773587Y-87200500D01*
X157773591Y-87200500D01*
X157774412Y-87200401D01*
X157774631Y-87200437D01*
X157777287Y-87200279D01*
X157777323Y-87200888D01*
X157843321Y-87211946D01*
X157876888Y-87235834D01*
X158624034Y-87982980D01*
X158715359Y-88035707D01*
X158817220Y-88063000D01*
X158922674Y-88063000D01*
X159082947Y-88063000D01*
X159149986Y-88082685D01*
X159195741Y-88135489D01*
X159206947Y-88187000D01*
X159206947Y-89341769D01*
X159209800Y-89372199D01*
X159209801Y-89372204D01*
X159210603Y-89374495D01*
X159210694Y-89376293D01*
X159211411Y-89379573D01*
X159210867Y-89379691D01*
X159214160Y-89444274D01*
X159179427Y-89504899D01*
X159117432Y-89537122D01*
X159081984Y-89538901D01*
X159061713Y-89537000D01*
X158653181Y-89537000D01*
X158653177Y-89537000D01*
X158622747Y-89539853D01*
X158622745Y-89539853D01*
X158494566Y-89584706D01*
X158494564Y-89584707D01*
X158385297Y-89665350D01*
X158304654Y-89774617D01*
X158304653Y-89774619D01*
X158259800Y-89902798D01*
X158259800Y-89902800D01*
X158256947Y-89933230D01*
X158256947Y-90050500D01*
X158237262Y-90117539D01*
X158184458Y-90163294D01*
X158132947Y-90174500D01*
X157765276Y-90174500D01*
X157698237Y-90154815D01*
X157691643Y-90150271D01*
X157680119Y-90141766D01*
X157658241Y-90125619D01*
X157658239Y-90125618D01*
X157534327Y-90082258D01*
X157504908Y-90079500D01*
X157129993Y-90079500D01*
X157100572Y-90082258D01*
X157100562Y-90082260D01*
X156976652Y-90125619D01*
X156976651Y-90125619D01*
X156881080Y-90196154D01*
X156815451Y-90220125D01*
X156747281Y-90204809D01*
X156733814Y-90196154D01*
X156638241Y-90125619D01*
X156514327Y-90082258D01*
X156484908Y-90079500D01*
X156109993Y-90079500D01*
X156080572Y-90082258D01*
X156080562Y-90082260D01*
X155956654Y-90125618D01*
X155851024Y-90203577D01*
X155851021Y-90203580D01*
X155817401Y-90249134D01*
X155761753Y-90291384D01*
X155717631Y-90299500D01*
X145224702Y-90299500D01*
X145157663Y-90279815D01*
X145137021Y-90263181D01*
X143153362Y-88279522D01*
X143153360Y-88279520D01*
X143062035Y-88226793D01*
X143062034Y-88226792D01*
X143057833Y-88224367D01*
X143009618Y-88173799D01*
X142996396Y-88105192D01*
X143003196Y-88079158D01*
X143002583Y-88078992D01*
X143005029Y-88069996D01*
X143005032Y-88069991D01*
X143007947Y-88044865D01*
X143007946Y-87555136D01*
X143007944Y-87555117D01*
X143005033Y-87530012D01*
X143002584Y-87521011D01*
X143004740Y-87520424D01*
X142997325Y-87463842D01*
X143027141Y-87400654D01*
X143057833Y-87375633D01*
X143062035Y-87373207D01*
X143153360Y-87320480D01*
X146677021Y-83796819D01*
X146738344Y-83763334D01*
X146764702Y-83760500D01*
X152682947Y-83760500D01*
X152749986Y-83780185D01*
G37*
%TD.AperFunction*%
%TA.AperFunction,Conductor*%
G36*
X142957231Y-83220185D02*
G01*
X142977873Y-83236819D01*
X143370628Y-83629574D01*
X143404113Y-83690897D01*
X143406947Y-83717255D01*
X143406947Y-83779057D01*
X143435201Y-83884500D01*
X143447870Y-83931783D01*
X143447873Y-83931790D01*
X143526922Y-84068709D01*
X143526926Y-84068714D01*
X143526927Y-84068716D01*
X143638731Y-84180520D01*
X143638733Y-84180521D01*
X143638737Y-84180524D01*
X143775658Y-84259575D01*
X143778949Y-84260938D01*
X143781298Y-84262831D01*
X143782701Y-84263641D01*
X143782574Y-84263859D01*
X143833354Y-84304778D01*
X143855420Y-84371072D01*
X143838142Y-84438771D01*
X143787006Y-84486383D01*
X143736436Y-84498333D01*
X143736450Y-84498439D01*
X143735408Y-84498576D01*
X143731499Y-84499500D01*
X143728390Y-84499500D01*
X143575663Y-84540423D01*
X143575656Y-84540426D01*
X143438737Y-84619475D01*
X143438729Y-84619481D01*
X143395030Y-84663181D01*
X143333707Y-84696666D01*
X143307349Y-84699500D01*
X143131947Y-84699500D01*
X143064908Y-84679815D01*
X143019153Y-84627011D01*
X143007947Y-84575501D01*
X143007946Y-84355143D01*
X143007946Y-84355136D01*
X143007944Y-84355117D01*
X143005033Y-84330012D01*
X143005032Y-84330010D01*
X143005032Y-84330009D01*
X142959653Y-84227235D01*
X142880212Y-84147794D01*
X142828523Y-84124971D01*
X142777439Y-84102415D01*
X142752315Y-84099500D01*
X142029224Y-84099500D01*
X141962185Y-84079815D01*
X141916430Y-84027011D01*
X141906051Y-83961204D01*
X141906060Y-83961134D01*
X141907947Y-83944865D01*
X141907946Y-83324499D01*
X141927630Y-83257461D01*
X141980434Y-83211706D01*
X142031946Y-83200500D01*
X142890192Y-83200500D01*
X142957231Y-83220185D01*
G37*
%TD.AperFunction*%
%TA.AperFunction,Conductor*%
G36*
X171669325Y-81719685D02*
G01*
X171671329Y-81721000D01*
X173504797Y-82950019D01*
X173516622Y-82959019D01*
X174490196Y-83796819D01*
X174963468Y-84204089D01*
X174972857Y-84213066D01*
X175227925Y-84483910D01*
X176145471Y-85458207D01*
X176153131Y-85467158D01*
X176573485Y-86008510D01*
X177119992Y-86712328D01*
X177126331Y-86721283D01*
X177541717Y-87366884D01*
X177751488Y-87692914D01*
X177927496Y-87966468D01*
X177932734Y-87975412D01*
X178217503Y-88511819D01*
X178593786Y-89220610D01*
X178598087Y-89229558D01*
X179134212Y-90469990D01*
X179136275Y-90474762D01*
X179139737Y-90483709D01*
X179567051Y-91728905D01*
X179569749Y-91737850D01*
X179894628Y-92983076D01*
X179896611Y-92992021D01*
X180124883Y-94237214D01*
X180126188Y-94246158D01*
X180261702Y-95491374D01*
X180262349Y-95500317D01*
X180307284Y-96745527D01*
X180307284Y-96754471D01*
X180262349Y-97999681D01*
X180261702Y-98008624D01*
X180126188Y-99253840D01*
X180124883Y-99262784D01*
X179896611Y-100507978D01*
X179894628Y-100516923D01*
X179569749Y-101762148D01*
X179567051Y-101771093D01*
X179139737Y-103016289D01*
X179136275Y-103025235D01*
X178598087Y-104270440D01*
X178593786Y-104279389D01*
X177932739Y-105524579D01*
X177927496Y-105533530D01*
X177126331Y-106778715D01*
X177119992Y-106787670D01*
X176153136Y-108032835D01*
X176145466Y-108041798D01*
X174972857Y-109286932D01*
X174963468Y-109295909D01*
X173516632Y-110540971D01*
X173504794Y-110549981D01*
X171671329Y-111779000D01*
X171604682Y-111799977D01*
X171602285Y-111800000D01*
X126912608Y-111800000D01*
X126845569Y-111780315D01*
X126843565Y-111779000D01*
X126020084Y-111227000D01*
X125975358Y-111173321D01*
X125966753Y-111103984D01*
X125997001Y-111041001D01*
X126056499Y-111004370D01*
X126089127Y-111000000D01*
X131807447Y-111000000D01*
X131807447Y-98386929D01*
X132396947Y-98386929D01*
X132396947Y-98773070D01*
X132399736Y-98802814D01*
X132399738Y-98802826D01*
X132440388Y-98918993D01*
X132443595Y-98928157D01*
X132522448Y-99034999D01*
X132629290Y-99113852D01*
X132647389Y-99120185D01*
X132754620Y-99157708D01*
X132754624Y-99157708D01*
X132754628Y-99157710D01*
X132769504Y-99159105D01*
X132784377Y-99160500D01*
X132784381Y-99160500D01*
X133230517Y-99160500D01*
X133243736Y-99159260D01*
X133260266Y-99157710D01*
X133260270Y-99157708D01*
X133260273Y-99157708D01*
X133309283Y-99140557D01*
X133385604Y-99113852D01*
X133492446Y-99034999D01*
X133495497Y-99030864D01*
X133551145Y-98988615D01*
X133595266Y-98980500D01*
X133730054Y-98980500D01*
X133797093Y-99000185D01*
X133842848Y-99052989D01*
X133845401Y-99058992D01*
X133869533Y-99120185D01*
X133895083Y-99184976D01*
X133982368Y-99300078D01*
X134097470Y-99387363D01*
X134097471Y-99387363D01*
X134097472Y-99387364D01*
X134231857Y-99440359D01*
X134316303Y-99450500D01*
X134316309Y-99450500D01*
X134898585Y-99450500D01*
X134898591Y-99450500D01*
X134983037Y-99440359D01*
X135117422Y-99387364D01*
X135232525Y-99300078D01*
X135319811Y-99184975D01*
X135321059Y-99181811D01*
X135322163Y-99179011D01*
X135365069Y-99123867D01*
X135430976Y-99100673D01*
X135437518Y-99100500D01*
X135591038Y-99100500D01*
X135658077Y-99120185D01*
X135703832Y-99172989D01*
X135713776Y-99242147D01*
X135706392Y-99269990D01*
X135667570Y-99368434D01*
X135665297Y-99387363D01*
X135656947Y-99456898D01*
X135656947Y-100843102D01*
X135659963Y-100868216D01*
X135667569Y-100931561D01*
X135667569Y-100931563D01*
X135667570Y-100931564D01*
X135679457Y-100961706D01*
X135723086Y-101072343D01*
X135814524Y-101192922D01*
X135935103Y-101284360D01*
X135935104Y-101284360D01*
X135935105Y-101284361D01*
X136075883Y-101339877D01*
X136164345Y-101350500D01*
X136682947Y-101350500D01*
X136749986Y-101370185D01*
X136795741Y-101422989D01*
X136806947Y-101474500D01*
X136806947Y-101650769D01*
X136787262Y-101717808D01*
X136744947Y-101758156D01*
X136638734Y-101819477D01*
X136638729Y-101819481D01*
X136526928Y-101931282D01*
X136526922Y-101931290D01*
X136447873Y-102068209D01*
X136447870Y-102068216D01*
X136406947Y-102220943D01*
X136406947Y-102379057D01*
X136447430Y-102530140D01*
X136447870Y-102531783D01*
X136447873Y-102531790D01*
X136526922Y-102668709D01*
X136526926Y-102668714D01*
X136526927Y-102668716D01*
X136638731Y-102780520D01*
X136638733Y-102780521D01*
X136638737Y-102780524D01*
X136775656Y-102859573D01*
X136775663Y-102859577D01*
X136928390Y-102900500D01*
X136928392Y-102900500D01*
X137086502Y-102900500D01*
X137086504Y-102900500D01*
X137239231Y-102859577D01*
X137376163Y-102780520D01*
X137487967Y-102668716D01*
X137567024Y-102531784D01*
X137607947Y-102379057D01*
X137607947Y-102220943D01*
X137607407Y-102218927D01*
X137607407Y-102216844D01*
X137606886Y-102212887D01*
X137607407Y-102212818D01*
X137607408Y-102160852D01*
X137606887Y-102160784D01*
X137607408Y-102156820D01*
X137607408Y-102154738D01*
X137607948Y-102152727D01*
X137607948Y-102047273D01*
X137607948Y-102039678D01*
X137607947Y-102039660D01*
X137607947Y-101474500D01*
X137627632Y-101407461D01*
X137680436Y-101361706D01*
X137731947Y-101350500D01*
X138250544Y-101350500D01*
X138250549Y-101350500D01*
X138339011Y-101339877D01*
X138479789Y-101284361D01*
X138600369Y-101192922D01*
X138691808Y-101072342D01*
X138747324Y-100931564D01*
X138757947Y-100843102D01*
X138757947Y-99456898D01*
X138747324Y-99368436D01*
X138691808Y-99227658D01*
X138691807Y-99227657D01*
X138691807Y-99227656D01*
X138600369Y-99107077D01*
X138479790Y-99015639D01*
X138339008Y-98960122D01*
X138293373Y-98954642D01*
X138250549Y-98949500D01*
X138250544Y-98949500D01*
X136713702Y-98949500D01*
X136646663Y-98929815D01*
X136600908Y-98877011D01*
X136590964Y-98807853D01*
X136619989Y-98744297D01*
X136626021Y-98737819D01*
X136739340Y-98624500D01*
X137238187Y-98125651D01*
X137299508Y-98092168D01*
X137369199Y-98097152D01*
X137425133Y-98139023D01*
X137429685Y-98146213D01*
X137511023Y-98256423D01*
X137533223Y-98272807D01*
X137616653Y-98334381D01*
X137657958Y-98348834D01*
X137740566Y-98377741D01*
X137748243Y-98378460D01*
X137769990Y-98380500D01*
X138244903Y-98380499D01*
X138274326Y-98377741D01*
X138398241Y-98334381D01*
X138503870Y-98256423D01*
X138503873Y-98256418D01*
X138503875Y-98256417D01*
X138522732Y-98230867D01*
X138578379Y-98188616D01*
X138622502Y-98180500D01*
X138954720Y-98180500D01*
X139060174Y-98180500D01*
X139132947Y-98180500D01*
X139199986Y-98200185D01*
X139245741Y-98252989D01*
X139256947Y-98304500D01*
X139256947Y-109151622D01*
X139284240Y-109253485D01*
X139296105Y-109274035D01*
X139336967Y-109344809D01*
X140412638Y-110420480D01*
X140503963Y-110473207D01*
X140605824Y-110500500D01*
X140605826Y-110500500D01*
X142610172Y-110500500D01*
X142610174Y-110500500D01*
X142712035Y-110473207D01*
X142803360Y-110420480D01*
X145837021Y-107386817D01*
X145898344Y-107353333D01*
X145924702Y-107350499D01*
X146927303Y-107350499D01*
X146927311Y-107350499D01*
X146927326Y-107350497D01*
X146927329Y-107350497D01*
X146952434Y-107347586D01*
X146952435Y-107347585D01*
X146952438Y-107347585D01*
X147055212Y-107302206D01*
X147134653Y-107222765D01*
X147180032Y-107119991D01*
X147182947Y-107094865D01*
X147182947Y-107074500D01*
X147202632Y-107007461D01*
X147255436Y-106961706D01*
X147306947Y-106950500D01*
X150157948Y-106950500D01*
X150224987Y-106970185D01*
X150270742Y-107022989D01*
X150281948Y-107074500D01*
X150281948Y-107094856D01*
X150281949Y-107094882D01*
X150284860Y-107119987D01*
X150284862Y-107119991D01*
X150330240Y-107222764D01*
X150330241Y-107222765D01*
X150409682Y-107302206D01*
X150512456Y-107347585D01*
X150537582Y-107350500D01*
X152177311Y-107350499D01*
X152177326Y-107350497D01*
X152177329Y-107350497D01*
X152202434Y-107347586D01*
X152202435Y-107347585D01*
X152202438Y-107347585D01*
X152305212Y-107302206D01*
X152384653Y-107222765D01*
X152430032Y-107119991D01*
X152432947Y-107094865D01*
X152432946Y-106274499D01*
X152452630Y-106207461D01*
X152505434Y-106161706D01*
X152556946Y-106150500D01*
X168210172Y-106150500D01*
X168210174Y-106150500D01*
X168312035Y-106123207D01*
X168403360Y-106070480D01*
X170737020Y-103736818D01*
X170798343Y-103703334D01*
X170824701Y-103700500D01*
X171525544Y-103700500D01*
X171525549Y-103700500D01*
X171614011Y-103689877D01*
X171754789Y-103634361D01*
X171875369Y-103542922D01*
X171966808Y-103422342D01*
X172022324Y-103281564D01*
X172032947Y-103193102D01*
X172032947Y-102606898D01*
X172022335Y-102518530D01*
X172033887Y-102449625D01*
X172057767Y-102416071D01*
X173937021Y-100536819D01*
X173998344Y-100503334D01*
X174024702Y-100500500D01*
X176120267Y-100500500D01*
X176187306Y-100520185D01*
X176219532Y-100550187D01*
X176299901Y-100657546D01*
X176346090Y-100692123D01*
X176415111Y-100743793D01*
X176415118Y-100743797D01*
X176549964Y-100794091D01*
X176549963Y-100794091D01*
X176556891Y-100794835D01*
X176609574Y-100800500D01*
X177605319Y-100800499D01*
X177664930Y-100794091D01*
X177799778Y-100743796D01*
X177914993Y-100657546D01*
X178001243Y-100542331D01*
X178051538Y-100407483D01*
X178057947Y-100347873D01*
X178057946Y-99852128D01*
X178051538Y-99792517D01*
X178046691Y-99779522D01*
X178001244Y-99657671D01*
X178001240Y-99657664D01*
X177914995Y-99542456D01*
X177914993Y-99542455D01*
X177914993Y-99542454D01*
X177881234Y-99517182D01*
X177839365Y-99461248D01*
X177834382Y-99391556D01*
X177867868Y-99330235D01*
X177901558Y-99296545D01*
X177901561Y-99296542D01*
X177978222Y-99181811D01*
X178031027Y-99054328D01*
X178044098Y-98988615D01*
X178057947Y-98918995D01*
X178057947Y-98781004D01*
X178031028Y-98645677D01*
X178031027Y-98645676D01*
X178031027Y-98645672D01*
X178022257Y-98624500D01*
X177978225Y-98518195D01*
X177978218Y-98518182D01*
X177901561Y-98403458D01*
X177901558Y-98403454D01*
X177810785Y-98312681D01*
X177777300Y-98251358D01*
X177782284Y-98181666D01*
X177810785Y-98137319D01*
X177901558Y-98046545D01*
X177901561Y-98046542D01*
X177978222Y-97931811D01*
X178031027Y-97804328D01*
X178057947Y-97668993D01*
X178057947Y-97531007D01*
X178057947Y-97531004D01*
X178031028Y-97395677D01*
X178031027Y-97395676D01*
X178031027Y-97395672D01*
X178031025Y-97395667D01*
X177978225Y-97268195D01*
X177978218Y-97268182D01*
X177901561Y-97153458D01*
X177901558Y-97153454D01*
X177810785Y-97062681D01*
X177777300Y-97001358D01*
X177782284Y-96931666D01*
X177810785Y-96887319D01*
X177901558Y-96796545D01*
X177901561Y-96796542D01*
X177978222Y-96681811D01*
X178031027Y-96554328D01*
X178057947Y-96418993D01*
X178057947Y-96281007D01*
X178057947Y-96281004D01*
X178031028Y-96145677D01*
X178031027Y-96145676D01*
X178031027Y-96145672D01*
X178017961Y-96114130D01*
X178010493Y-96044662D01*
X178041768Y-95982182D01*
X178044842Y-95978997D01*
X178164266Y-95859573D01*
X178377927Y-95645913D01*
X178430654Y-95554588D01*
X178457947Y-95452727D01*
X178457947Y-95347273D01*
X178457947Y-92372780D01*
X178457948Y-92372767D01*
X178457948Y-92257325D01*
X178456576Y-92252206D01*
X178430654Y-92155464D01*
X178430653Y-92155463D01*
X178430653Y-92155461D01*
X178430652Y-92155460D01*
X178424853Y-92145416D01*
X178424851Y-92145413D01*
X178377929Y-92064141D01*
X178377928Y-92064140D01*
X178377927Y-92064138D01*
X178303360Y-91989571D01*
X178303359Y-91989570D01*
X178299029Y-91985240D01*
X178299018Y-91985230D01*
X177893311Y-91579522D01*
X177893310Y-91579521D01*
X177893309Y-91579520D01*
X177847646Y-91553156D01*
X177801985Y-91526793D01*
X177751053Y-91513146D01*
X177700123Y-91499500D01*
X177700122Y-91499500D01*
X170781947Y-91499500D01*
X170714908Y-91479815D01*
X170669153Y-91427011D01*
X170657947Y-91375500D01*
X170657947Y-90733230D01*
X170655093Y-90702800D01*
X170655093Y-90702798D01*
X170621453Y-90606663D01*
X170610240Y-90574618D01*
X170529597Y-90465350D01*
X170508312Y-90449641D01*
X170466062Y-90393994D01*
X170457947Y-90349872D01*
X170457947Y-87092254D01*
X170477632Y-87025215D01*
X170494266Y-87004573D01*
X170796319Y-86702520D01*
X171099829Y-86399009D01*
X171161150Y-86365526D01*
X171228462Y-86369650D01*
X171240794Y-86373965D01*
X171272748Y-86385146D01*
X171278834Y-86385716D01*
X171303177Y-86388000D01*
X171303181Y-86388000D01*
X171711717Y-86388000D01*
X171742146Y-86385146D01*
X171742148Y-86385146D01*
X171806237Y-86362719D01*
X171870329Y-86340293D01*
X171979597Y-86259650D01*
X172060240Y-86150382D01*
X172085637Y-86077801D01*
X172105093Y-86022201D01*
X172105093Y-86022199D01*
X172107947Y-85991769D01*
X172107947Y-84991254D01*
X172127632Y-84924215D01*
X172180436Y-84878460D01*
X172249594Y-84868516D01*
X172313150Y-84897541D01*
X172319628Y-84903573D01*
X172770628Y-85354573D01*
X172804113Y-85415896D01*
X172806947Y-85442254D01*
X172806947Y-85991771D01*
X172809159Y-86015362D01*
X172795819Y-86083946D01*
X172773384Y-86114618D01*
X172746415Y-86141587D01*
X172746413Y-86141589D01*
X172131220Y-86756781D01*
X172130251Y-86755812D01*
X172098490Y-86782632D01*
X172094567Y-86784705D01*
X171985297Y-86865350D01*
X171904654Y-86974617D01*
X171904653Y-86974619D01*
X171859800Y-87102798D01*
X171859800Y-87102800D01*
X171856947Y-87133230D01*
X171856947Y-88266769D01*
X171859800Y-88297199D01*
X171859800Y-88297201D01*
X171904653Y-88425380D01*
X171904654Y-88425382D01*
X171985297Y-88534650D01*
X172094565Y-88615293D01*
X172137292Y-88630244D01*
X172222746Y-88660146D01*
X172253177Y-88663000D01*
X172253181Y-88663000D01*
X172661717Y-88663000D01*
X172692146Y-88660146D01*
X172692148Y-88660146D01*
X172756237Y-88637719D01*
X172820329Y-88615293D01*
X172929597Y-88534650D01*
X173010240Y-88425382D01*
X173032666Y-88361290D01*
X173055093Y-88297201D01*
X173055093Y-88297199D01*
X173057947Y-88266769D01*
X173057947Y-87133230D01*
X173055093Y-87102800D01*
X173055093Y-87102798D01*
X173045287Y-87074775D01*
X173041725Y-87004996D01*
X173074644Y-86946142D01*
X173196470Y-86824316D01*
X173257791Y-86790834D01*
X173284149Y-86788000D01*
X173800724Y-86788000D01*
X173800726Y-86788000D01*
X173902587Y-86760707D01*
X173993912Y-86707980D01*
X174327927Y-86373965D01*
X174380654Y-86282640D01*
X174407947Y-86180779D01*
X174407947Y-86075325D01*
X174407947Y-84669221D01*
X174380654Y-84567361D01*
X174327927Y-84476035D01*
X174253360Y-84401468D01*
X172891412Y-83039520D01*
X172845749Y-83013156D01*
X172800088Y-82986793D01*
X172749156Y-82973146D01*
X172698226Y-82959500D01*
X146494720Y-82959500D01*
X146392860Y-82986793D01*
X146392859Y-82986793D01*
X146392857Y-82986794D01*
X146392856Y-82986794D01*
X146318009Y-83030008D01*
X146318008Y-83030009D01*
X146301535Y-83039519D01*
X146301532Y-83039521D01*
X144520022Y-84821030D01*
X144458699Y-84854515D01*
X144389007Y-84849531D01*
X144333074Y-84807659D01*
X144324953Y-84795347D01*
X144324752Y-84794999D01*
X144293288Y-84740500D01*
X144287969Y-84731287D01*
X144287965Y-84731282D01*
X144176164Y-84619481D01*
X144176156Y-84619475D01*
X144039235Y-84540424D01*
X144035945Y-84539062D01*
X144033595Y-84537168D01*
X144032193Y-84536359D01*
X144032319Y-84536140D01*
X143981540Y-84495222D01*
X143959474Y-84428928D01*
X143976752Y-84361229D01*
X144027888Y-84313617D01*
X144078457Y-84301666D01*
X144078444Y-84301561D01*
X144079485Y-84301423D01*
X144083395Y-84300500D01*
X144086502Y-84300500D01*
X144086504Y-84300500D01*
X144239231Y-84259577D01*
X144376163Y-84180520D01*
X144487967Y-84068716D01*
X144567024Y-83931784D01*
X144607947Y-83779057D01*
X144607947Y-83620943D01*
X144567024Y-83468216D01*
X144555995Y-83449113D01*
X144487971Y-83331290D01*
X144487965Y-83331282D01*
X144376164Y-83219481D01*
X144376156Y-83219475D01*
X144239237Y-83140426D01*
X144239233Y-83140424D01*
X144239231Y-83140423D01*
X144086504Y-83099500D01*
X144086503Y-83099500D01*
X144024702Y-83099500D01*
X143957663Y-83079815D01*
X143937021Y-83063181D01*
X143353362Y-82479522D01*
X143353360Y-82479520D01*
X143307697Y-82453156D01*
X143262036Y-82426793D01*
X143202104Y-82410735D01*
X143160174Y-82399500D01*
X140654720Y-82399500D01*
X140552860Y-82426793D01*
X140552857Y-82426794D01*
X140461532Y-82479521D01*
X140286969Y-82654084D01*
X140286962Y-82654093D01*
X140231813Y-82749613D01*
X140181246Y-82797828D01*
X140112639Y-82811050D01*
X140086605Y-82804251D01*
X140086439Y-82804864D01*
X140077438Y-82802415D01*
X140052312Y-82799500D01*
X139562590Y-82799500D01*
X139562564Y-82799502D01*
X139537460Y-82802413D01*
X139516733Y-82811564D01*
X139457530Y-82837705D01*
X139388255Y-82846776D01*
X139357360Y-82837704D01*
X139277439Y-82802415D01*
X139252312Y-82799500D01*
X138762590Y-82799500D01*
X138762564Y-82799502D01*
X138737460Y-82802413D01*
X138716733Y-82811564D01*
X138657530Y-82837705D01*
X138588255Y-82846776D01*
X138557360Y-82837704D01*
X138477439Y-82802415D01*
X138452312Y-82799500D01*
X137962590Y-82799500D01*
X137962564Y-82799502D01*
X137937460Y-82802413D01*
X137916733Y-82811564D01*
X137857530Y-82837705D01*
X137788255Y-82846776D01*
X137757360Y-82837704D01*
X137677439Y-82802415D01*
X137652312Y-82799500D01*
X137162590Y-82799500D01*
X137162564Y-82799502D01*
X137137460Y-82802413D01*
X137116733Y-82811564D01*
X137057530Y-82837705D01*
X136988255Y-82846776D01*
X136957360Y-82837704D01*
X136877439Y-82802415D01*
X136852312Y-82799500D01*
X136362590Y-82799500D01*
X136362564Y-82799502D01*
X136337460Y-82802413D01*
X136316733Y-82811564D01*
X136257530Y-82837705D01*
X136188255Y-82846776D01*
X136157360Y-82837704D01*
X136077439Y-82802415D01*
X136052312Y-82799500D01*
X135562590Y-82799500D01*
X135562564Y-82799502D01*
X135537460Y-82802413D01*
X135516733Y-82811564D01*
X135457530Y-82837705D01*
X135388255Y-82846776D01*
X135357360Y-82837704D01*
X135277439Y-82802415D01*
X135252312Y-82799500D01*
X134762590Y-82799500D01*
X134762564Y-82799502D01*
X134737460Y-82802413D01*
X134716733Y-82811564D01*
X134657530Y-82837705D01*
X134588255Y-82846776D01*
X134557360Y-82837704D01*
X134477439Y-82802415D01*
X134452312Y-82799500D01*
X133962590Y-82799500D01*
X133962564Y-82799502D01*
X133937460Y-82802413D01*
X133916733Y-82811564D01*
X133857530Y-82837705D01*
X133788255Y-82846776D01*
X133757360Y-82837704D01*
X133677439Y-82802415D01*
X133652312Y-82799500D01*
X133162590Y-82799500D01*
X133162564Y-82799502D01*
X133137459Y-82802413D01*
X133137455Y-82802415D01*
X133034682Y-82847793D01*
X132955241Y-82927234D01*
X132909862Y-83030006D01*
X132909862Y-83030008D01*
X132906947Y-83055131D01*
X132906947Y-83944856D01*
X132906949Y-83944882D01*
X132909860Y-83969987D01*
X132909862Y-83969991D01*
X132955240Y-84072764D01*
X132955241Y-84072765D01*
X133034682Y-84152206D01*
X133137456Y-84197585D01*
X133162582Y-84200500D01*
X133652311Y-84200499D01*
X133652326Y-84200497D01*
X133652329Y-84200497D01*
X133677433Y-84197586D01*
X133677434Y-84197585D01*
X133677438Y-84197585D01*
X133757364Y-84162294D01*
X133826637Y-84153223D01*
X133857528Y-84162293D01*
X133937456Y-84197585D01*
X133962582Y-84200500D01*
X134452311Y-84200499D01*
X134452326Y-84200497D01*
X134452329Y-84200497D01*
X134477433Y-84197586D01*
X134477434Y-84197585D01*
X134477438Y-84197585D01*
X134557364Y-84162294D01*
X134626637Y-84153223D01*
X134657528Y-84162293D01*
X134737456Y-84197585D01*
X134762582Y-84200500D01*
X135252311Y-84200499D01*
X135252326Y-84200497D01*
X135252329Y-84200497D01*
X135277433Y-84197586D01*
X135277434Y-84197585D01*
X135277438Y-84197585D01*
X135357364Y-84162294D01*
X135426637Y-84153223D01*
X135457528Y-84162293D01*
X135537456Y-84197585D01*
X135562582Y-84200500D01*
X136052311Y-84200499D01*
X136052326Y-84200497D01*
X136052329Y-84200497D01*
X136077433Y-84197586D01*
X136077434Y-84197585D01*
X136077438Y-84197585D01*
X136157364Y-84162294D01*
X136226637Y-84153223D01*
X136257528Y-84162293D01*
X136337456Y-84197585D01*
X136362582Y-84200500D01*
X136852311Y-84200499D01*
X136852326Y-84200497D01*
X136852329Y-84200497D01*
X136877433Y-84197586D01*
X136877434Y-84197585D01*
X136877438Y-84197585D01*
X136957364Y-84162294D01*
X137026637Y-84153223D01*
X137057528Y-84162293D01*
X137137456Y-84197585D01*
X137162582Y-84200500D01*
X137652311Y-84200499D01*
X137652326Y-84200497D01*
X137652329Y-84200497D01*
X137677433Y-84197586D01*
X137677434Y-84197585D01*
X137677438Y-84197585D01*
X137757364Y-84162294D01*
X137826637Y-84153223D01*
X137857528Y-84162293D01*
X137937456Y-84197585D01*
X137962582Y-84200500D01*
X138452311Y-84200499D01*
X138452326Y-84200497D01*
X138452329Y-84200497D01*
X138477433Y-84197586D01*
X138477434Y-84197585D01*
X138477438Y-84197585D01*
X138557364Y-84162294D01*
X138626637Y-84153223D01*
X138657528Y-84162293D01*
X138737456Y-84197585D01*
X138762582Y-84200500D01*
X139082947Y-84200499D01*
X139149986Y-84220183D01*
X139195741Y-84272987D01*
X139206947Y-84324499D01*
X139206947Y-84399902D01*
X139187262Y-84466941D01*
X139170628Y-84487583D01*
X139126928Y-84531282D01*
X139126922Y-84531290D01*
X139047873Y-84668209D01*
X139047870Y-84668216D01*
X139006947Y-84820943D01*
X139006947Y-84979057D01*
X139047395Y-85130009D01*
X139047870Y-85131783D01*
X139047873Y-85131790D01*
X139126922Y-85268709D01*
X139126926Y-85268714D01*
X139126927Y-85268716D01*
X139238731Y-85380520D01*
X139238733Y-85380521D01*
X139238737Y-85380524D01*
X139345658Y-85442254D01*
X139375663Y-85459577D01*
X139528390Y-85500500D01*
X139528392Y-85500500D01*
X139686502Y-85500500D01*
X139686504Y-85500500D01*
X139839231Y-85459577D01*
X139976163Y-85380520D01*
X140051991Y-85304691D01*
X140113310Y-85271209D01*
X140183002Y-85276193D01*
X140238936Y-85318064D01*
X140247056Y-85330375D01*
X140326924Y-85468712D01*
X140326928Y-85468717D01*
X140370628Y-85512417D01*
X140404113Y-85573740D01*
X140406947Y-85600098D01*
X140406947Y-91682745D01*
X140387262Y-91749784D01*
X140370628Y-91770426D01*
X140177873Y-91963181D01*
X140116550Y-91996666D01*
X140090192Y-91999500D01*
X137454720Y-91999500D01*
X137352857Y-92026793D01*
X137261534Y-92079520D01*
X137261531Y-92079522D01*
X134755963Y-94585089D01*
X134718369Y-94610842D01*
X134634681Y-94647794D01*
X134555241Y-94727234D01*
X134509862Y-94830006D01*
X134509862Y-94830008D01*
X134506947Y-94855131D01*
X134506947Y-95744856D01*
X134506949Y-95744882D01*
X134509860Y-95769987D01*
X134509862Y-95769991D01*
X134555240Y-95872764D01*
X134573110Y-95890634D01*
X134605204Y-95946222D01*
X134606947Y-95952727D01*
X134634240Y-96054588D01*
X134686967Y-96145913D01*
X135651534Y-97110480D01*
X135742859Y-97163207D01*
X135844720Y-97190500D01*
X136741192Y-97190500D01*
X136808231Y-97210185D01*
X136853986Y-97262989D01*
X136863930Y-97332147D01*
X136834905Y-97395703D01*
X136828873Y-97402181D01*
X135967873Y-98263181D01*
X135906550Y-98296666D01*
X135880192Y-98299500D01*
X135437518Y-98299500D01*
X135370479Y-98279815D01*
X135324724Y-98227011D01*
X135322163Y-98220989D01*
X135319811Y-98215024D01*
X135232525Y-98099921D01*
X135117423Y-98012636D01*
X134983035Y-97959640D01*
X134939689Y-97954435D01*
X134898591Y-97949500D01*
X134316303Y-97949500D01*
X134278288Y-97954065D01*
X134231858Y-97959640D01*
X134097470Y-98012636D01*
X133982369Y-98099921D01*
X133967660Y-98119317D01*
X133960960Y-98128155D01*
X133959239Y-98130424D01*
X133903047Y-98171948D01*
X133860434Y-98179500D01*
X133595266Y-98179500D01*
X133528227Y-98159815D01*
X133495497Y-98129135D01*
X133492446Y-98125001D01*
X133447959Y-98092168D01*
X133385604Y-98046148D01*
X133385602Y-98046147D01*
X133260273Y-98002291D01*
X133260261Y-98002289D01*
X133230517Y-97999500D01*
X133230513Y-97999500D01*
X132784381Y-97999500D01*
X132784377Y-97999500D01*
X132754632Y-98002289D01*
X132754620Y-98002291D01*
X132629291Y-98046147D01*
X132522448Y-98125001D01*
X132443594Y-98231844D01*
X132399738Y-98357173D01*
X132399736Y-98357185D01*
X132396947Y-98386929D01*
X131807447Y-98386929D01*
X131807447Y-81824000D01*
X131827132Y-81756961D01*
X131879936Y-81711206D01*
X131931447Y-81700000D01*
X171602286Y-81700000D01*
X171669325Y-81719685D01*
G37*
%TD.AperFunction*%
%TD*%
M02*
