%TF.GenerationSoftware,KiCad,Pcbnew,10.0.5*%
%TF.CreationDate,2026-08-01T13:24:11-04:00*%
%TF.ProjectId,lumary-brain,6c756d61-7279-42d6-9272-61696e2e6b69,rev?*%
%TF.SameCoordinates,Original*%
%TF.FileFunction,Soldermask,Top*%
%TF.FilePolarity,Negative*%
%FSLAX46Y46*%
G04 Gerber Fmt 4.6, Leading zero omitted, Abs format (unit mm)*
G04 Created by KiCad (PCBNEW 10.0.5) date 2026-08-01 13:24:11*
%MOMM*%
%LPD*%
G01*
G04 APERTURE LIST*
G04 Aperture macros list*
%AMRoundRect*
0 Rectangle with rounded corners*
0 $1 Rounding radius*
0 $2 $3 $4 $5 $6 $7 $8 $9 X,Y pos of 4 corners*
0 Add a 4 corners polygon primitive as box body*
4,1,4,$2,$3,$4,$5,$6,$7,$8,$9,$2,$3,0*
0 Add four circle primitives for the rounded corners*
1,1,$1+$1,$2,$3*
1,1,$1+$1,$4,$5*
1,1,$1+$1,$6,$7*
1,1,$1+$1,$8,$9*
0 Add four rect primitives between the rounded corners*
20,1,$1+$1,$2,$3,$4,$5,0*
20,1,$1+$1,$4,$5,$6,$7,0*
20,1,$1+$1,$6,$7,$8,$9,0*
20,1,$1+$1,$8,$9,$2,$3,0*%
%AMOutline5P*
0 Free polygon, 5 corners , with rotation*
0 The origin of the aperture is its center*
0 number of corners: always 5*
0 $1 to $10 corner X, Y*
0 $11 Rotation angle, in degrees counterclockwise*
0 create outline with 5 corners*
4,1,5,$1,$2,$3,$4,$5,$6,$7,$8,$9,$10,$1,$2,$11*%
%AMOutline6P*
0 Free polygon, 6 corners , with rotation*
0 The origin of the aperture is its center*
0 number of corners: always 6*
0 $1 to $12 corner X, Y*
0 $13 Rotation angle, in degrees counterclockwise*
0 create outline with 6 corners*
4,1,6,$1,$2,$3,$4,$5,$6,$7,$8,$9,$10,$11,$12,$1,$2,$13*%
%AMOutline7P*
0 Free polygon, 7 corners , with rotation*
0 The origin of the aperture is its center*
0 number of corners: always 7*
0 $1 to $14 corner X, Y*
0 $15 Rotation angle, in degrees counterclockwise*
0 create outline with 7 corners*
4,1,7,$1,$2,$3,$4,$5,$6,$7,$8,$9,$10,$11,$12,$13,$14,$1,$2,$15*%
%AMOutline8P*
0 Free polygon, 8 corners , with rotation*
0 The origin of the aperture is its center*
0 number of corners: always 8*
0 $1 to $16 corner X, Y*
0 $17 Rotation angle, in degrees counterclockwise*
0 create outline with 8 corners*
4,1,8,$1,$2,$3,$4,$5,$6,$7,$8,$9,$10,$11,$12,$13,$14,$15,$16,$1,$2,$17*%
G04 Aperture macros list end*
%ADD10R,1.550000X1.000000*%
%ADD11RoundRect,0.225000X-0.225000X-0.250000X0.225000X-0.250000X0.225000X0.250000X-0.225000X0.250000X0*%
%ADD12RoundRect,0.250000X-1.000000X-0.650000X1.000000X-0.650000X1.000000X0.650000X-1.000000X0.650000X0*%
%ADD13RoundRect,0.140000X0.170000X-0.140000X0.170000X0.140000X-0.170000X0.140000X-0.170000X-0.140000X0*%
%ADD14RoundRect,0.150000X0.150000X-0.512500X0.150000X0.512500X-0.150000X0.512500X-0.150000X-0.512500X0*%
%ADD15RoundRect,0.150000X-0.512500X-0.150000X0.512500X-0.150000X0.512500X0.150000X-0.512500X0.150000X0*%
%ADD16RoundRect,0.135000X-0.135000X-0.185000X0.135000X-0.185000X0.135000X0.185000X-0.135000X0.185000X0*%
%ADD17RoundRect,0.225000X-0.250000X0.225000X-0.250000X-0.225000X0.250000X-0.225000X0.250000X0.225000X0*%
%ADD18RoundRect,0.225000X0.250000X-0.225000X0.250000X0.225000X-0.250000X0.225000X-0.250000X-0.225000X0*%
%ADD19RoundRect,0.225000X-0.225000X-0.375000X0.225000X-0.375000X0.225000X0.375000X-0.225000X0.375000X0*%
%ADD20RoundRect,0.135000X0.185000X-0.135000X0.185000X0.135000X-0.185000X0.135000X-0.185000X-0.135000X0*%
%ADD21RoundRect,0.200000X0.450000X-0.200000X0.450000X0.200000X-0.450000X0.200000X-0.450000X-0.200000X0*%
%ADD22O,1.300000X0.800000*%
%ADD23RoundRect,0.150000X0.150000X-0.587500X0.150000X0.587500X-0.150000X0.587500X-0.150000X-0.587500X0*%
%ADD24RoundRect,0.225000X0.225000X0.250000X-0.225000X0.250000X-0.225000X-0.250000X0.225000X-0.250000X0*%
%ADD25RoundRect,0.250000X0.475000X-0.250000X0.475000X0.250000X-0.475000X0.250000X-0.475000X-0.250000X0*%
%ADD26C,0.650000*%
%ADD27RoundRect,0.150000X-0.150000X-0.575000X0.150000X-0.575000X0.150000X0.575000X-0.150000X0.575000X0*%
%ADD28RoundRect,0.075000X-0.075000X-0.650000X0.075000X-0.650000X0.075000X0.650000X-0.075000X0.650000X0*%
%ADD29O,1.000000X2.100000*%
%ADD30O,1.000000X1.600000*%
%ADD31RoundRect,0.250000X-0.625000X0.350000X-0.625000X-0.350000X0.625000X-0.350000X0.625000X0.350000X0*%
%ADD32O,1.750000X1.200000*%
%ADD33R,0.400000X0.800000*%
%ADD34R,0.800000X0.400000*%
%ADD35Outline5P,-0.725000X0.130500X-0.130500X0.725000X0.725000X0.725000X0.725000X-0.725000X-0.725000X-0.725000X90.000000*%
%ADD36R,1.450000X1.450000*%
%ADD37R,0.700000X0.700000*%
%ADD38RoundRect,0.140000X-0.170000X0.140000X-0.170000X-0.140000X0.170000X-0.140000X0.170000X0.140000X0*%
G04 APERTURE END LIST*
D10*
%TO.C,SW2*%
X146107447Y-106550000D03*
X151357447Y-106550000D03*
X146107447Y-108250000D03*
X151357447Y-108250000D03*
%TD*%
D11*
%TO.C,C4*%
X168332447Y-93937500D03*
X169882447Y-93937500D03*
%TD*%
D12*
%TO.C,D3*%
X137207447Y-100150000D03*
X141207447Y-100150000D03*
%TD*%
D13*
%TO.C,C6*%
X133007447Y-98580000D03*
X133007447Y-97620000D03*
%TD*%
D14*
%TO.C,U3*%
X171507447Y-87700000D03*
X172457447Y-87700000D03*
X173407447Y-87700000D03*
X173407447Y-85425000D03*
X171507447Y-85425000D03*
%TD*%
D15*
%TO.C,U4*%
X158332447Y-97900000D03*
X158332447Y-98850000D03*
X158332447Y-99800000D03*
X160607447Y-99800000D03*
X160607447Y-98850000D03*
X160607447Y-97900000D03*
%TD*%
D16*
%TO.C,R2*%
X156297447Y-90700000D03*
X157317447Y-90700000D03*
%TD*%
D17*
%TO.C,C2*%
X150632447Y-84900000D03*
X150632447Y-86450000D03*
%TD*%
D18*
%TO.C,C5*%
X134607447Y-98700000D03*
X134607447Y-97150000D03*
%TD*%
D14*
%TO.C,U2*%
X153407447Y-86675000D03*
X154357447Y-86675000D03*
X155307447Y-86675000D03*
X155307447Y-84400000D03*
X153407447Y-84400000D03*
%TD*%
D19*
%TO.C,D1*%
X162907447Y-87900000D03*
X166207447Y-87900000D03*
%TD*%
D20*
%TO.C,R7*%
X155807447Y-100810000D03*
X155807447Y-99790000D03*
%TD*%
D21*
%TO.C,J2*%
X177107447Y-100100000D03*
D22*
X177107447Y-98850000D03*
X177107447Y-97600000D03*
X177107447Y-96350000D03*
X177107447Y-95100000D03*
X177107447Y-93850000D03*
X177107447Y-92600000D03*
%TD*%
D16*
%TO.C,R9*%
X168097447Y-87100000D03*
X169117447Y-87100000D03*
%TD*%
D23*
%TO.C,Q1*%
X154007447Y-94700000D03*
X155907447Y-94700000D03*
X154957447Y-92825000D03*
%TD*%
D13*
%TO.C,C8*%
X139807447Y-97780000D03*
X139807447Y-96820000D03*
%TD*%
D23*
%TO.C,Q2*%
X158857447Y-90575000D03*
X160757447Y-90575000D03*
X159807447Y-88700000D03*
%TD*%
D16*
%TO.C,R4*%
X165597447Y-93437500D03*
X166617447Y-93437500D03*
%TD*%
D23*
%TO.C,Q3*%
X168157447Y-91375000D03*
X170057447Y-91375000D03*
X169107447Y-89500000D03*
%TD*%
D19*
%TO.C,D2*%
X157507447Y-86300000D03*
X160807447Y-86300000D03*
%TD*%
D20*
%TO.C,R6*%
X138007447Y-97810000D03*
X138007447Y-96790000D03*
%TD*%
D24*
%TO.C,C3*%
X152582447Y-88900000D03*
X151032447Y-88900000D03*
%TD*%
D25*
%TO.C,C1*%
X171007447Y-102900000D03*
X171007447Y-101000000D03*
%TD*%
D26*
%TO.C,J3*%
X156647447Y-104450000D03*
X162427447Y-104450000D03*
D27*
X156287447Y-103005000D03*
X157087447Y-103005000D03*
D28*
X158287447Y-103005000D03*
X159287447Y-103005000D03*
X159787447Y-103005000D03*
X160787447Y-103005000D03*
D27*
X161987447Y-103005000D03*
X162787447Y-103005000D03*
X162787447Y-103005000D03*
X161987447Y-103005000D03*
D28*
X161287447Y-103005000D03*
X160287447Y-103005000D03*
X158787447Y-103005000D03*
X157787447Y-103005000D03*
D27*
X157087447Y-103005000D03*
X156287447Y-103005000D03*
D29*
X155217447Y-103920000D03*
D30*
X155217447Y-108100000D03*
D29*
X163857447Y-103920000D03*
D30*
X163857447Y-108100000D03*
%TD*%
D16*
%TO.C,R3*%
X153897447Y-96900000D03*
X154917447Y-96900000D03*
%TD*%
%TO.C,R5*%
X160597447Y-93437500D03*
X161617447Y-93437500D03*
%TD*%
D20*
%TO.C,R8*%
X163007447Y-100720000D03*
X163007447Y-99700000D03*
%TD*%
D31*
%TO.C,J1*%
X141457447Y-104700000D03*
D32*
X141457447Y-106700000D03*
X141457447Y-108700000D03*
%TD*%
D33*
%TO.C,U1*%
X133407447Y-95300000D03*
X134207447Y-95300000D03*
X135007447Y-95300000D03*
X135807447Y-95300000D03*
X136607447Y-95300000D03*
X137407447Y-95300000D03*
X138207447Y-95300000D03*
X139007447Y-95300000D03*
X139807447Y-95300000D03*
X140607447Y-95300000D03*
X141407447Y-95300000D03*
D34*
X142307447Y-94200000D03*
X142307447Y-93400000D03*
X142307447Y-92600000D03*
X142307447Y-91800000D03*
X142307447Y-91000000D03*
X142307447Y-90200000D03*
X142307447Y-89400000D03*
X142307447Y-88600000D03*
X142307447Y-87800000D03*
X142307447Y-87000000D03*
X142307447Y-86200000D03*
X142307447Y-85400000D03*
X142307447Y-84600000D03*
D33*
X141407447Y-83500000D03*
X140607447Y-83500000D03*
X139807447Y-83500000D03*
X139007447Y-83500000D03*
X138207447Y-83500000D03*
X137407447Y-83500000D03*
X136607447Y-83500000D03*
X135807447Y-83500000D03*
X135007447Y-83500000D03*
X134207447Y-83500000D03*
X133407447Y-83500000D03*
D34*
X132507447Y-84600000D03*
X132507447Y-85400000D03*
X132507447Y-86200000D03*
X132507447Y-87000000D03*
X132507447Y-87800000D03*
X132507447Y-88600000D03*
X132507447Y-89400000D03*
X132507447Y-90200000D03*
X132507447Y-91000000D03*
X132507447Y-91800000D03*
X132507447Y-92600000D03*
X132507447Y-93400000D03*
X132507447Y-94200000D03*
D35*
X135432447Y-91375000D03*
D36*
X137407447Y-91375000D03*
X139382447Y-91375000D03*
X135432447Y-89400000D03*
X137407447Y-89400000D03*
X139382447Y-89400000D03*
X135432447Y-87425000D03*
X137407447Y-87425000D03*
X139382447Y-87425000D03*
D37*
X132457447Y-83450000D03*
X142357447Y-83450000D03*
X142357447Y-95350000D03*
X132457447Y-95350000D03*
%TD*%
D16*
%TO.C,R1*%
X151007447Y-94700000D03*
X152027447Y-94700000D03*
%TD*%
D10*
%TO.C,SW1*%
X146107447Y-100550000D03*
X151357447Y-100550000D03*
X146107447Y-102250000D03*
X151357447Y-102250000D03*
%TD*%
D38*
%TO.C,C7*%
X169007447Y-84340000D03*
X169007447Y-85300000D03*
%TD*%
M02*
