M48
; DRILL file KiCad 10.0.5 date 2026-08-01T13:24:11
; FORMAT={-:-/ absolute / metric / decimal}
; #@! TF.CreationDate,2026-08-01T13:24:11-04:00
; #@! TF.GenerationSoftware,Kicad,Pcbnew,10.0.5
; #@! TF.FileFunction,MixedPlating,1,4
FMAT,2
METRIC
; #@! TA.AperFunction,Plated,PTH,ViaDrill
T1C0.300
; #@! TA.AperFunction,Plated,PTH,ComponentDrill
T2C0.500
; #@! TA.AperFunction,Plated,PTH,ComponentDrill
T3C0.600
; #@! TA.AperFunction,Plated,PTH,ComponentDrill
T4C0.750
; #@! TA.AperFunction,NonPlated,NPTH,ComponentDrill
T5C0.650
%
G90
G05
T1
X137.007Y-102.3
X139.607Y-84.9
X140.407Y-103.1
X140.807Y-85.1
X142.881Y-83.65
X143.807Y-85.1
X143.807Y-91.5
X144.007Y-83.7
X147.207Y-84.9
X148.007Y-95.3
X150.501Y-87.03
X155.711Y-95.078
X157.407Y-94.9
X158.207Y-101.1
X160.207Y-101.1
X161.207Y-101.1
X161.712Y-89.935
X161.807Y-96.7
X162.407Y-85.7
X163.386Y-99.562
X164.007Y-101.5
X164.207Y-99.7
X165.942Y-89.526
X166.207Y-92.3
X169.207Y-88.1
X172.76Y-93.306
T2
X177.107Y-92.6
X177.107Y-93.85
X177.107Y-95.1
X177.107Y-96.35
X177.107Y-97.6
X177.107Y-98.85
X177.107Y-100.1
T4
X141.457Y-104.7
X141.457Y-106.7
X141.457Y-108.7
T5
X156.647Y-104.45
X162.427Y-104.45
T3
X155.217Y-103.37G85X155.217Y-104.47
G05
X155.217Y-107.8G85X155.217Y-108.4
G05
X163.857Y-103.37G85X163.857Y-104.47
G05
X163.857Y-107.8G85X163.857Y-108.4
G05
M30
