%TF.GenerationSoftware,KiCad,Pcbnew,10.0.5*%
%TF.CreationDate,2026-09-25T06:50:18-04:00*%
%TF.ProjectId,lumary-brain,6c756d61-7279-42d6-9272-61696e2e6b69,rev?*%
%TF.SameCoordinates,Original*%
%TF.FileFunction,Legend,Top*%
%TF.FilePolarity,Positive*%
%FSLAX46Y46*%
G04 Gerber Fmt 4.6, Leading zero omitted, Abs format (unit mm)*
G04 Created by KiCad (PCBNEW 10.0.5) date 2026-09-25 06:50:18*
%MOMM*%
%LPD*%
G01*
G04 APERTURE LIST*
%ADD10C,0.120000*%
G04 APERTURE END LIST*
%TO.C,SW2*%
D10*
X146282447Y-107675000D02*
X146282447Y-107125000D01*
X147307447Y-105550000D02*
X146382447Y-105550000D01*
X151082447Y-105550000D02*
X150157447Y-105550000D01*
X151082447Y-109250000D02*
X146382447Y-109250000D01*
X151182447Y-107675000D02*
X151182447Y-107125000D01*
%TO.C,C4*%
X168966867Y-93427500D02*
X169248027Y-93427500D01*
X168966867Y-94447500D02*
X169248027Y-94447500D01*
%TO.C,D3*%
X135697447Y-98500000D02*
X135697447Y-101800000D01*
X135697447Y-98500000D02*
X141207447Y-98500000D01*
X135697447Y-101800000D02*
X141207447Y-101800000D01*
%TO.C,C6*%
X132647447Y-98207836D02*
X132647447Y-97992164D01*
X133367447Y-98207836D02*
X133367447Y-97992164D01*
%TO.C,U3*%
X170897447Y-85652500D02*
X170947447Y-85652500D01*
X170897447Y-87472500D02*
X170897447Y-85652500D01*
X170947447Y-87472500D02*
X170897447Y-87472500D01*
X172067447Y-85652500D02*
X172847447Y-85652500D01*
X173967447Y-85652500D02*
X174017447Y-85652500D01*
X174017447Y-85652500D02*
X174017447Y-87472500D01*
X174017447Y-87472500D02*
X173967447Y-87472500D01*
X170947447Y-88012500D02*
X170617447Y-88252500D01*
X170617447Y-87772500D01*
X170947447Y-88012500D01*
G36*
X170947447Y-88012500D02*
G01*
X170617447Y-88252500D01*
X170617447Y-87772500D01*
X170947447Y-88012500D01*
G37*
%TO.C,U4*%
X158559947Y-97290000D02*
X160379947Y-97290000D01*
X158559947Y-97340000D02*
X158559947Y-97290000D01*
X158559947Y-100410000D02*
X158559947Y-100360000D01*
X160379947Y-97290000D02*
X160379947Y-97340000D01*
X160379947Y-100360000D02*
X160379947Y-100410000D01*
X160379947Y-100410000D02*
X158559947Y-100410000D01*
X158019947Y-97340000D02*
X157779947Y-97010000D01*
X158259947Y-97010000D01*
X158019947Y-97340000D01*
G36*
X158019947Y-97340000D02*
G01*
X157779947Y-97010000D01*
X158259947Y-97010000D01*
X158019947Y-97340000D01*
G37*
%TO.C,R2*%
X156653806Y-90320000D02*
X156961088Y-90320000D01*
X156653806Y-91080000D02*
X156961088Y-91080000D01*
%TO.C,C2*%
X150122447Y-85534420D02*
X150122447Y-85815580D01*
X151142447Y-85534420D02*
X151142447Y-85815580D01*
%TO.C,C5*%
X134097447Y-98065580D02*
X134097447Y-97784420D01*
X135117447Y-98065580D02*
X135117447Y-97784420D01*
%TO.C,U2*%
X152797447Y-84627500D02*
X152847447Y-84627500D01*
X152797447Y-86447500D02*
X152797447Y-84627500D01*
X152847447Y-86447500D02*
X152797447Y-86447500D01*
X153967447Y-84627500D02*
X154747447Y-84627500D01*
X155867447Y-84627500D02*
X155917447Y-84627500D01*
X155917447Y-84627500D02*
X155917447Y-86447500D01*
X155917447Y-86447500D02*
X155867447Y-86447500D01*
X152847447Y-86987500D02*
X152517447Y-87227500D01*
X152517447Y-86747500D01*
X152847447Y-86987500D01*
G36*
X152847447Y-86987500D02*
G01*
X152517447Y-87227500D01*
X152517447Y-86747500D01*
X152847447Y-86987500D01*
G37*
%TO.C,D1*%
X162197447Y-86900000D02*
X162197447Y-88900000D01*
X162197447Y-86900000D02*
X166207447Y-86900000D01*
X162197447Y-88900000D02*
X166207447Y-88900000D01*
%TO.C,R7*%
X155427447Y-100453641D02*
X155427447Y-100146359D01*
X156187447Y-100453641D02*
X156187447Y-100146359D01*
%TO.C,R9*%
X168453806Y-86720000D02*
X168761088Y-86720000D01*
X168453806Y-87480000D02*
X168761088Y-87480000D01*
%TO.C,Q1*%
X153397447Y-93002500D02*
X154397447Y-93002500D01*
X153397447Y-94522500D02*
X153397447Y-93002500D01*
X153447447Y-94522500D02*
X153397447Y-94522500D01*
X155347447Y-94522500D02*
X154567447Y-94522500D01*
X155517447Y-93002500D02*
X156517447Y-93002500D01*
X156517447Y-93002500D02*
X156517447Y-94522500D01*
X156517447Y-94522500D02*
X156467447Y-94522500D01*
X154577447Y-95062500D02*
X154907447Y-94822500D01*
X154907447Y-95302500D01*
X154577447Y-95062500D01*
G36*
X154907447Y-95302500D02*
G01*
X154577447Y-95062500D01*
X154907447Y-94822500D01*
X154907447Y-95302500D01*
G37*
%TO.C,C8*%
X139447447Y-97407836D02*
X139447447Y-97192164D01*
X140167447Y-97407836D02*
X140167447Y-97192164D01*
%TO.C,J2*%
X172147447Y-89890000D02*
X172147447Y-91640000D01*
X172147447Y-101860000D02*
X171257447Y-101860000D01*
X172147447Y-103610000D02*
X172147447Y-101860000D01*
X175097447Y-89890000D02*
X172147447Y-89890000D01*
X175097447Y-103610000D02*
X172147447Y-103610000D01*
X177517447Y-103610000D02*
X178367447Y-103610000D01*
X178367447Y-89890000D02*
X177517447Y-89890000D01*
X178367447Y-103610000D02*
X178367447Y-89890000D01*
%TO.C,Q2*%
X158247447Y-88877500D02*
X159247447Y-88877500D01*
X158247447Y-90397500D02*
X158247447Y-88877500D01*
X158297447Y-90397500D02*
X158247447Y-90397500D01*
X160197447Y-90397500D02*
X159417447Y-90397500D01*
X160367447Y-88877500D02*
X161367447Y-88877500D01*
X161367447Y-88877500D02*
X161367447Y-90397500D01*
X161367447Y-90397500D02*
X161317447Y-90397500D01*
X159427447Y-90937500D02*
X159757447Y-90697500D01*
X159757447Y-91177500D01*
X159427447Y-90937500D01*
G36*
X159757447Y-91177500D02*
G01*
X159427447Y-90937500D01*
X159757447Y-90697500D01*
X159757447Y-91177500D01*
G37*
%TO.C,R4*%
X165953806Y-93057500D02*
X166261088Y-93057500D01*
X165953806Y-93817500D02*
X166261088Y-93817500D01*
%TO.C,Q3*%
X167197447Y-89677500D02*
X168197447Y-89677500D01*
X167197447Y-91197500D02*
X167197447Y-89677500D01*
X167247447Y-91197500D02*
X167197447Y-91197500D01*
X169147447Y-91197500D02*
X168367447Y-91197500D01*
X169317447Y-89677500D02*
X170317447Y-89677500D01*
X170317447Y-89677500D02*
X170317447Y-91197500D01*
X170317447Y-91197500D02*
X170267447Y-91197500D01*
X168377447Y-91737500D02*
X168707447Y-91497500D01*
X168707447Y-91977500D01*
X168377447Y-91737500D01*
G36*
X168707447Y-91977500D02*
G01*
X168377447Y-91737500D01*
X168707447Y-91497500D01*
X168707447Y-91977500D01*
G37*
%TO.C,D2*%
X156797447Y-85300000D02*
X156797447Y-87300000D01*
X156797447Y-85300000D02*
X160807447Y-85300000D01*
X156797447Y-87300000D02*
X160807447Y-87300000D01*
%TO.C,R6*%
X137627447Y-97453641D02*
X137627447Y-97146359D01*
X138387447Y-97453641D02*
X138387447Y-97146359D01*
%TO.C,C3*%
X151948027Y-88390000D02*
X151666867Y-88390000D01*
X151948027Y-89410000D02*
X151666867Y-89410000D01*
%TO.C,C1*%
X168265000Y-102311252D02*
X168265000Y-101788748D01*
X169735000Y-102311252D02*
X169735000Y-101788748D01*
%TO.C,J3*%
X154837447Y-105150000D02*
X154837447Y-107150000D01*
X154837447Y-109050000D02*
X154837447Y-110950000D01*
X154837447Y-110950000D02*
X164237447Y-110950000D01*
X164237447Y-105150000D02*
X164237447Y-107150000D01*
X164237447Y-109050000D02*
X164237447Y-110950000D01*
%TO.C,R3*%
X154253806Y-96520000D02*
X154561088Y-96520000D01*
X154253806Y-97280000D02*
X154561088Y-97280000D01*
%TO.C,R5*%
X160953806Y-93057500D02*
X161261088Y-93057500D01*
X160953806Y-93817500D02*
X161261088Y-93817500D01*
%TO.C,R8*%
X162627447Y-100363641D02*
X162627447Y-100056359D01*
X163387447Y-100363641D02*
X163387447Y-100056359D01*
%TO.C,J1*%
X135097447Y-102640000D02*
X135097447Y-110760000D01*
X135097447Y-105200000D02*
X139457447Y-105200000D01*
X135097447Y-110760000D02*
X142917447Y-110760000D01*
X137357447Y-103900000D02*
X135097447Y-103900000D01*
X137357447Y-104400000D02*
X135097447Y-104400000D01*
X139457447Y-105200000D02*
X139457447Y-108200000D01*
X139457447Y-108200000D02*
X135097447Y-108200000D01*
X141317447Y-102640000D02*
X141317447Y-103560000D01*
X141317447Y-103560000D02*
X142917447Y-103560000D01*
X141317447Y-103840000D02*
X141317447Y-103560000D01*
X141317447Y-103840000D02*
X142532447Y-103840000D01*
X141317447Y-109840000D02*
X141317447Y-109560000D01*
X141317447Y-110760000D02*
X141317447Y-109840000D01*
X142917447Y-102640000D02*
X135097447Y-102640000D01*
X142917447Y-103560000D02*
X142917447Y-102640000D01*
X142917447Y-109840000D02*
X141317447Y-109840000D01*
X142917447Y-110760000D02*
X142917447Y-109840000D01*
X137357447Y-103400000D02*
X138957447Y-103400000D01*
X138957447Y-104400000D01*
X137357447Y-104400000D01*
X137357447Y-103400000D01*
X137357447Y-109000000D02*
X138957447Y-109000000D01*
X138957447Y-110000000D01*
X137357447Y-110000000D01*
X137357447Y-109000000D01*
%TO.C,U1*%
X126257447Y-82650000D02*
X143157447Y-82650000D01*
X126257447Y-96150000D02*
X126257447Y-82650000D01*
X143157447Y-82650000D02*
X143157447Y-96150000D01*
X143157447Y-96150000D02*
X126257447Y-96150000D01*
X133407447Y-96500000D02*
X133647447Y-96836000D01*
X133167447Y-96836000D01*
X133407447Y-96500000D01*
G36*
X133647447Y-96836000D02*
G01*
X133167447Y-96836000D01*
X133407447Y-96500000D01*
X133647447Y-96836000D01*
G37*
%TO.C,R1*%
X151363806Y-94320000D02*
X151671088Y-94320000D01*
X151363806Y-95080000D02*
X151671088Y-95080000D01*
%TO.C,SW1*%
X146282447Y-101675000D02*
X146282447Y-101125000D01*
X147307447Y-99550000D02*
X146382447Y-99550000D01*
X151082447Y-99550000D02*
X150157447Y-99550000D01*
X151082447Y-103250000D02*
X146382447Y-103250000D01*
X151182447Y-101675000D02*
X151182447Y-101125000D01*
%TO.C,C7*%
X168647447Y-84712164D02*
X168647447Y-84927836D01*
X169367447Y-84712164D02*
X169367447Y-84927836D01*
%TD*%
M02*
