%TF.GenerationSoftware,KiCad,Pcbnew,10.0.5*%
%TF.CreationDate,2026-09-25T06:50:18-04:00*%
%TF.ProjectId,lumary-brain,6c756d61-7279-42d6-9272-61696e2e6b69,rev?*%
%TF.SameCoordinates,Original*%
%TF.FileFunction,Legend,Bot*%
%TF.FilePolarity,Positive*%
%FSLAX46Y46*%
G04 Gerber Fmt 4.6, Leading zero omitted, Abs format (unit mm)*
G04 Created by KiCad (PCBNEW 10.0.5) date 2026-09-25 06:50:18*
%MOMM*%
%LPD*%
G01*
G04 APERTURE LIST*
%ADD10C,0.150000*%
%ADD11C,0.200000*%
G04 APERTURE END LIST*
D10*
X155761905Y-97159580D02*
X155809524Y-97207200D01*
X155809524Y-97207200D02*
X155952381Y-97254819D01*
X155952381Y-97254819D02*
X156047619Y-97254819D01*
X156047619Y-97254819D02*
X156190476Y-97207200D01*
X156190476Y-97207200D02*
X156285714Y-97111961D01*
X156285714Y-97111961D02*
X156333333Y-97016723D01*
X156333333Y-97016723D02*
X156380952Y-96826247D01*
X156380952Y-96826247D02*
X156380952Y-96683390D01*
X156380952Y-96683390D02*
X156333333Y-96492914D01*
X156333333Y-96492914D02*
X156285714Y-96397676D01*
X156285714Y-96397676D02*
X156190476Y-96302438D01*
X156190476Y-96302438D02*
X156047619Y-96254819D01*
X156047619Y-96254819D02*
X155952381Y-96254819D01*
X155952381Y-96254819D02*
X155809524Y-96302438D01*
X155809524Y-96302438D02*
X155761905Y-96350057D01*
X155333333Y-97254819D02*
X155333333Y-96254819D01*
X154904762Y-97254819D02*
X154904762Y-96731009D01*
X154904762Y-96731009D02*
X154952381Y-96635771D01*
X154952381Y-96635771D02*
X155047619Y-96588152D01*
X155047619Y-96588152D02*
X155190476Y-96588152D01*
X155190476Y-96588152D02*
X155285714Y-96635771D01*
X155285714Y-96635771D02*
X155333333Y-96683390D01*
X154000000Y-97254819D02*
X154000000Y-96731009D01*
X154000000Y-96731009D02*
X154047619Y-96635771D01*
X154047619Y-96635771D02*
X154142857Y-96588152D01*
X154142857Y-96588152D02*
X154333333Y-96588152D01*
X154333333Y-96588152D02*
X154428571Y-96635771D01*
X154000000Y-97207200D02*
X154095238Y-97254819D01*
X154095238Y-97254819D02*
X154333333Y-97254819D01*
X154333333Y-97254819D02*
X154428571Y-97207200D01*
X154428571Y-97207200D02*
X154476190Y-97111961D01*
X154476190Y-97111961D02*
X154476190Y-97016723D01*
X154476190Y-97016723D02*
X154428571Y-96921485D01*
X154428571Y-96921485D02*
X154333333Y-96873866D01*
X154333333Y-96873866D02*
X154095238Y-96873866D01*
X154095238Y-96873866D02*
X154000000Y-96826247D01*
X153095238Y-97254819D02*
X153095238Y-96254819D01*
X153095238Y-97207200D02*
X153190476Y-97254819D01*
X153190476Y-97254819D02*
X153380952Y-97254819D01*
X153380952Y-97254819D02*
X153476190Y-97207200D01*
X153476190Y-97207200D02*
X153523809Y-97159580D01*
X153523809Y-97159580D02*
X153571428Y-97064342D01*
X153571428Y-97064342D02*
X153571428Y-96778628D01*
X153571428Y-96778628D02*
X153523809Y-96683390D01*
X153523809Y-96683390D02*
X153476190Y-96635771D01*
X153476190Y-96635771D02*
X153380952Y-96588152D01*
X153380952Y-96588152D02*
X153190476Y-96588152D01*
X153190476Y-96588152D02*
X153095238Y-96635771D01*
X151857142Y-97254819D02*
X151857142Y-96254819D01*
X151857142Y-96254819D02*
X151523809Y-96969104D01*
X151523809Y-96969104D02*
X151190476Y-96254819D01*
X151190476Y-96254819D02*
X151190476Y-97254819D01*
X150714285Y-97254819D02*
X150714285Y-96588152D01*
X150714285Y-96254819D02*
X150761904Y-96302438D01*
X150761904Y-96302438D02*
X150714285Y-96350057D01*
X150714285Y-96350057D02*
X150666666Y-96302438D01*
X150666666Y-96302438D02*
X150714285Y-96254819D01*
X150714285Y-96254819D02*
X150714285Y-96350057D01*
X149809524Y-97207200D02*
X149904762Y-97254819D01*
X149904762Y-97254819D02*
X150095238Y-97254819D01*
X150095238Y-97254819D02*
X150190476Y-97207200D01*
X150190476Y-97207200D02*
X150238095Y-97159580D01*
X150238095Y-97159580D02*
X150285714Y-97064342D01*
X150285714Y-97064342D02*
X150285714Y-96778628D01*
X150285714Y-96778628D02*
X150238095Y-96683390D01*
X150238095Y-96683390D02*
X150190476Y-96635771D01*
X150190476Y-96635771D02*
X150095238Y-96588152D01*
X150095238Y-96588152D02*
X149904762Y-96588152D01*
X149904762Y-96588152D02*
X149809524Y-96635771D01*
X149380952Y-97254819D02*
X149380952Y-96254819D01*
X148952381Y-97254819D02*
X148952381Y-96731009D01*
X148952381Y-96731009D02*
X149000000Y-96635771D01*
X149000000Y-96635771D02*
X149095238Y-96588152D01*
X149095238Y-96588152D02*
X149238095Y-96588152D01*
X149238095Y-96588152D02*
X149333333Y-96635771D01*
X149333333Y-96635771D02*
X149380952Y-96683390D01*
X148047619Y-97254819D02*
X148047619Y-96731009D01*
X148047619Y-96731009D02*
X148095238Y-96635771D01*
X148095238Y-96635771D02*
X148190476Y-96588152D01*
X148190476Y-96588152D02*
X148380952Y-96588152D01*
X148380952Y-96588152D02*
X148476190Y-96635771D01*
X148047619Y-97207200D02*
X148142857Y-97254819D01*
X148142857Y-97254819D02*
X148380952Y-97254819D01*
X148380952Y-97254819D02*
X148476190Y-97207200D01*
X148476190Y-97207200D02*
X148523809Y-97111961D01*
X148523809Y-97111961D02*
X148523809Y-97016723D01*
X148523809Y-97016723D02*
X148476190Y-96921485D01*
X148476190Y-96921485D02*
X148380952Y-96873866D01*
X148380952Y-96873866D02*
X148142857Y-96873866D01*
X148142857Y-96873866D02*
X148047619Y-96826247D01*
X147142857Y-96588152D02*
X147142857Y-97254819D01*
X147571428Y-96588152D02*
X147571428Y-97111961D01*
X147571428Y-97111961D02*
X147523809Y-97207200D01*
X147523809Y-97207200D02*
X147428571Y-97254819D01*
X147428571Y-97254819D02*
X147285714Y-97254819D01*
X147285714Y-97254819D02*
X147190476Y-97207200D01*
X147190476Y-97207200D02*
X147142857Y-97159580D01*
X146238095Y-97254819D02*
X146238095Y-96254819D01*
X146238095Y-97207200D02*
X146333333Y-97254819D01*
X146333333Y-97254819D02*
X146523809Y-97254819D01*
X146523809Y-97254819D02*
X146619047Y-97207200D01*
X146619047Y-97207200D02*
X146666666Y-97159580D01*
X146666666Y-97159580D02*
X146714285Y-97064342D01*
X146714285Y-97064342D02*
X146714285Y-96778628D01*
X146714285Y-96778628D02*
X146666666Y-96683390D01*
X146666666Y-96683390D02*
X146619047Y-96635771D01*
X146619047Y-96635771D02*
X146523809Y-96588152D01*
X146523809Y-96588152D02*
X146333333Y-96588152D01*
X146333333Y-96588152D02*
X146238095Y-96635771D01*
X145047618Y-96350057D02*
X144999999Y-96302438D01*
X144999999Y-96302438D02*
X144904761Y-96254819D01*
X144904761Y-96254819D02*
X144666666Y-96254819D01*
X144666666Y-96254819D02*
X144571428Y-96302438D01*
X144571428Y-96302438D02*
X144523809Y-96350057D01*
X144523809Y-96350057D02*
X144476190Y-96445295D01*
X144476190Y-96445295D02*
X144476190Y-96540533D01*
X144476190Y-96540533D02*
X144523809Y-96683390D01*
X144523809Y-96683390D02*
X145095237Y-97254819D01*
X145095237Y-97254819D02*
X144476190Y-97254819D01*
X143857142Y-96254819D02*
X143761904Y-96254819D01*
X143761904Y-96254819D02*
X143666666Y-96302438D01*
X143666666Y-96302438D02*
X143619047Y-96350057D01*
X143619047Y-96350057D02*
X143571428Y-96445295D01*
X143571428Y-96445295D02*
X143523809Y-96635771D01*
X143523809Y-96635771D02*
X143523809Y-96873866D01*
X143523809Y-96873866D02*
X143571428Y-97064342D01*
X143571428Y-97064342D02*
X143619047Y-97159580D01*
X143619047Y-97159580D02*
X143666666Y-97207200D01*
X143666666Y-97207200D02*
X143761904Y-97254819D01*
X143761904Y-97254819D02*
X143857142Y-97254819D01*
X143857142Y-97254819D02*
X143952380Y-97207200D01*
X143952380Y-97207200D02*
X143999999Y-97159580D01*
X143999999Y-97159580D02*
X144047618Y-97064342D01*
X144047618Y-97064342D02*
X144095237Y-96873866D01*
X144095237Y-96873866D02*
X144095237Y-96635771D01*
X144095237Y-96635771D02*
X144047618Y-96445295D01*
X144047618Y-96445295D02*
X143999999Y-96350057D01*
X143999999Y-96350057D02*
X143952380Y-96302438D01*
X143952380Y-96302438D02*
X143857142Y-96254819D01*
X143142856Y-96350057D02*
X143095237Y-96302438D01*
X143095237Y-96302438D02*
X142999999Y-96254819D01*
X142999999Y-96254819D02*
X142761904Y-96254819D01*
X142761904Y-96254819D02*
X142666666Y-96302438D01*
X142666666Y-96302438D02*
X142619047Y-96350057D01*
X142619047Y-96350057D02*
X142571428Y-96445295D01*
X142571428Y-96445295D02*
X142571428Y-96540533D01*
X142571428Y-96540533D02*
X142619047Y-96683390D01*
X142619047Y-96683390D02*
X143190475Y-97254819D01*
X143190475Y-97254819D02*
X142571428Y-97254819D01*
X141714285Y-96254819D02*
X141904761Y-96254819D01*
X141904761Y-96254819D02*
X141999999Y-96302438D01*
X141999999Y-96302438D02*
X142047618Y-96350057D01*
X142047618Y-96350057D02*
X142142856Y-96492914D01*
X142142856Y-96492914D02*
X142190475Y-96683390D01*
X142190475Y-96683390D02*
X142190475Y-97064342D01*
X142190475Y-97064342D02*
X142142856Y-97159580D01*
X142142856Y-97159580D02*
X142095237Y-97207200D01*
X142095237Y-97207200D02*
X141999999Y-97254819D01*
X141999999Y-97254819D02*
X141809523Y-97254819D01*
X141809523Y-97254819D02*
X141714285Y-97207200D01*
X141714285Y-97207200D02*
X141666666Y-97159580D01*
X141666666Y-97159580D02*
X141619047Y-97064342D01*
X141619047Y-97064342D02*
X141619047Y-96826247D01*
X141619047Y-96826247D02*
X141666666Y-96731009D01*
X141666666Y-96731009D02*
X141714285Y-96683390D01*
X141714285Y-96683390D02*
X141809523Y-96635771D01*
X141809523Y-96635771D02*
X141999999Y-96635771D01*
X141999999Y-96635771D02*
X142095237Y-96683390D01*
X142095237Y-96683390D02*
X142142856Y-96731009D01*
X142142856Y-96731009D02*
X142190475Y-96826247D01*
D11*
X157000000Y-95144742D02*
X157571428Y-95144742D01*
X157571428Y-95144742D02*
X157571428Y-93944742D01*
X156085714Y-94344742D02*
X156085714Y-95144742D01*
X156599999Y-94344742D02*
X156599999Y-94973314D01*
X156599999Y-94973314D02*
X156542856Y-95087600D01*
X156542856Y-95087600D02*
X156428571Y-95144742D01*
X156428571Y-95144742D02*
X156257142Y-95144742D01*
X156257142Y-95144742D02*
X156142856Y-95087600D01*
X156142856Y-95087600D02*
X156085714Y-95030457D01*
X155514285Y-95144742D02*
X155514285Y-94344742D01*
X155514285Y-94459028D02*
X155457142Y-94401885D01*
X155457142Y-94401885D02*
X155342857Y-94344742D01*
X155342857Y-94344742D02*
X155171428Y-94344742D01*
X155171428Y-94344742D02*
X155057142Y-94401885D01*
X155057142Y-94401885D02*
X155000000Y-94516171D01*
X155000000Y-94516171D02*
X155000000Y-95144742D01*
X155000000Y-94516171D02*
X154942857Y-94401885D01*
X154942857Y-94401885D02*
X154828571Y-94344742D01*
X154828571Y-94344742D02*
X154657142Y-94344742D01*
X154657142Y-94344742D02*
X154542857Y-94401885D01*
X154542857Y-94401885D02*
X154485714Y-94516171D01*
X154485714Y-94516171D02*
X154485714Y-95144742D01*
X153400000Y-95144742D02*
X153400000Y-94516171D01*
X153400000Y-94516171D02*
X153457142Y-94401885D01*
X153457142Y-94401885D02*
X153571428Y-94344742D01*
X153571428Y-94344742D02*
X153800000Y-94344742D01*
X153800000Y-94344742D02*
X153914285Y-94401885D01*
X153400000Y-95087600D02*
X153514285Y-95144742D01*
X153514285Y-95144742D02*
X153800000Y-95144742D01*
X153800000Y-95144742D02*
X153914285Y-95087600D01*
X153914285Y-95087600D02*
X153971428Y-94973314D01*
X153971428Y-94973314D02*
X153971428Y-94859028D01*
X153971428Y-94859028D02*
X153914285Y-94744742D01*
X153914285Y-94744742D02*
X153800000Y-94687600D01*
X153800000Y-94687600D02*
X153514285Y-94687600D01*
X153514285Y-94687600D02*
X153400000Y-94630457D01*
X152828571Y-95144742D02*
X152828571Y-94344742D01*
X152828571Y-94573314D02*
X152771428Y-94459028D01*
X152771428Y-94459028D02*
X152714286Y-94401885D01*
X152714286Y-94401885D02*
X152600000Y-94344742D01*
X152600000Y-94344742D02*
X152485714Y-94344742D01*
X152200000Y-94344742D02*
X151914286Y-95144742D01*
X151628571Y-94344742D02*
X151914286Y-95144742D01*
X151914286Y-95144742D02*
X152028571Y-95430457D01*
X152028571Y-95430457D02*
X152085714Y-95487600D01*
X152085714Y-95487600D02*
X152200000Y-95544742D01*
X149857142Y-94516171D02*
X149685714Y-94573314D01*
X149685714Y-94573314D02*
X149628571Y-94630457D01*
X149628571Y-94630457D02*
X149571428Y-94744742D01*
X149571428Y-94744742D02*
X149571428Y-94916171D01*
X149571428Y-94916171D02*
X149628571Y-95030457D01*
X149628571Y-95030457D02*
X149685714Y-95087600D01*
X149685714Y-95087600D02*
X149799999Y-95144742D01*
X149799999Y-95144742D02*
X150257142Y-95144742D01*
X150257142Y-95144742D02*
X150257142Y-93944742D01*
X150257142Y-93944742D02*
X149857142Y-93944742D01*
X149857142Y-93944742D02*
X149742857Y-94001885D01*
X149742857Y-94001885D02*
X149685714Y-94059028D01*
X149685714Y-94059028D02*
X149628571Y-94173314D01*
X149628571Y-94173314D02*
X149628571Y-94287600D01*
X149628571Y-94287600D02*
X149685714Y-94401885D01*
X149685714Y-94401885D02*
X149742857Y-94459028D01*
X149742857Y-94459028D02*
X149857142Y-94516171D01*
X149857142Y-94516171D02*
X150257142Y-94516171D01*
X149057142Y-95144742D02*
X149057142Y-94344742D01*
X149057142Y-94573314D02*
X148999999Y-94459028D01*
X148999999Y-94459028D02*
X148942857Y-94401885D01*
X148942857Y-94401885D02*
X148828571Y-94344742D01*
X148828571Y-94344742D02*
X148714285Y-94344742D01*
X147800000Y-95144742D02*
X147800000Y-94516171D01*
X147800000Y-94516171D02*
X147857142Y-94401885D01*
X147857142Y-94401885D02*
X147971428Y-94344742D01*
X147971428Y-94344742D02*
X148200000Y-94344742D01*
X148200000Y-94344742D02*
X148314285Y-94401885D01*
X147800000Y-95087600D02*
X147914285Y-95144742D01*
X147914285Y-95144742D02*
X148200000Y-95144742D01*
X148200000Y-95144742D02*
X148314285Y-95087600D01*
X148314285Y-95087600D02*
X148371428Y-94973314D01*
X148371428Y-94973314D02*
X148371428Y-94859028D01*
X148371428Y-94859028D02*
X148314285Y-94744742D01*
X148314285Y-94744742D02*
X148200000Y-94687600D01*
X148200000Y-94687600D02*
X147914285Y-94687600D01*
X147914285Y-94687600D02*
X147800000Y-94630457D01*
X147228571Y-95144742D02*
X147228571Y-94344742D01*
X147228571Y-93944742D02*
X147285714Y-94001885D01*
X147285714Y-94001885D02*
X147228571Y-94059028D01*
X147228571Y-94059028D02*
X147171428Y-94001885D01*
X147171428Y-94001885D02*
X147228571Y-93944742D01*
X147228571Y-93944742D02*
X147228571Y-94059028D01*
X146657142Y-94344742D02*
X146657142Y-95144742D01*
X146657142Y-94459028D02*
X146599999Y-94401885D01*
X146599999Y-94401885D02*
X146485714Y-94344742D01*
X146485714Y-94344742D02*
X146314285Y-94344742D01*
X146314285Y-94344742D02*
X146199999Y-94401885D01*
X146199999Y-94401885D02*
X146142857Y-94516171D01*
X146142857Y-94516171D02*
X146142857Y-95144742D01*
X144657142Y-95144742D02*
X144657142Y-94344742D01*
X144657142Y-94573314D02*
X144599999Y-94459028D01*
X144599999Y-94459028D02*
X144542857Y-94401885D01*
X144542857Y-94401885D02*
X144428571Y-94344742D01*
X144428571Y-94344742D02*
X144314285Y-94344742D01*
X143457142Y-95087600D02*
X143571428Y-95144742D01*
X143571428Y-95144742D02*
X143800000Y-95144742D01*
X143800000Y-95144742D02*
X143914285Y-95087600D01*
X143914285Y-95087600D02*
X143971428Y-94973314D01*
X143971428Y-94973314D02*
X143971428Y-94516171D01*
X143971428Y-94516171D02*
X143914285Y-94401885D01*
X143914285Y-94401885D02*
X143800000Y-94344742D01*
X143800000Y-94344742D02*
X143571428Y-94344742D01*
X143571428Y-94344742D02*
X143457142Y-94401885D01*
X143457142Y-94401885D02*
X143400000Y-94516171D01*
X143400000Y-94516171D02*
X143400000Y-94630457D01*
X143400000Y-94630457D02*
X143971428Y-94744742D01*
X143000000Y-94344742D02*
X142714286Y-95144742D01*
X142714286Y-95144742D02*
X142428571Y-94344742D01*
X140657142Y-94516171D02*
X140485714Y-94573314D01*
X140485714Y-94573314D02*
X140428571Y-94630457D01*
X140428571Y-94630457D02*
X140371428Y-94744742D01*
X140371428Y-94744742D02*
X140371428Y-94916171D01*
X140371428Y-94916171D02*
X140428571Y-95030457D01*
X140428571Y-95030457D02*
X140485714Y-95087600D01*
X140485714Y-95087600D02*
X140599999Y-95144742D01*
X140599999Y-95144742D02*
X141057142Y-95144742D01*
X141057142Y-95144742D02*
X141057142Y-93944742D01*
X141057142Y-93944742D02*
X140657142Y-93944742D01*
X140657142Y-93944742D02*
X140542857Y-94001885D01*
X140542857Y-94001885D02*
X140485714Y-94059028D01*
X140485714Y-94059028D02*
X140428571Y-94173314D01*
X140428571Y-94173314D02*
X140428571Y-94287600D01*
X140428571Y-94287600D02*
X140485714Y-94401885D01*
X140485714Y-94401885D02*
X140542857Y-94459028D01*
X140542857Y-94459028D02*
X140657142Y-94516171D01*
X140657142Y-94516171D02*
X141057142Y-94516171D01*
M02*
