%TF.GenerationSoftware,KiCad,Pcbnew,10.0.5*%
%TF.CreationDate,2026-09-25T06:50:18-04:00*%
%TF.ProjectId,lumary-brain,6c756d61-7279-42d6-9272-61696e2e6b69,rev?*%
%TF.SameCoordinates,Original*%
%TF.FileFunction,Copper,L2,Bot*%
%TF.FilePolarity,Positive*%
%FSLAX46Y46*%
G04 Gerber Fmt 4.6, Leading zero omitted, Abs format (unit mm)*
G04 Created by KiCad (PCBNEW 10.0.5) date 2026-09-25 06:50:18*
%MOMM*%
%LPD*%
G01*
G04 APERTURE LIST*
G04 Aperture macros list*
%AMRoundRect*
0 Rectangle with rounded corners*
0 $1 Rounding radius*
0 $2 $3 $4 $5 $6 $7 $8 $9 X,Y pos of 4 corners*
0 Add a 4 corners polygon primitive as box body*
4,1,4,$2,$3,$4,$5,$6,$7,$8,$9,$2,$3,0*
0 Add four circle primitives for the rounded corners*
1,1,$1+$1,$2,$3*
1,1,$1+$1,$4,$5*
1,1,$1+$1,$6,$7*
1,1,$1+$1,$8,$9*
0 Add four rect primitives between the rounded corners*
20,1,$1+$1,$2,$3,$4,$5,0*
20,1,$1+$1,$4,$5,$6,$7,0*
20,1,$1+$1,$6,$7,$8,$9,0*
20,1,$1+$1,$8,$9,$2,$3,0*%
G04 Aperture macros list end*
%TA.AperFunction,ComponentPad*%
%ADD10O,1.000000X2.100000*%
%TD*%
%TA.AperFunction,ComponentPad*%
%ADD11O,1.000000X1.600000*%
%TD*%
%TA.AperFunction,ComponentPad*%
%ADD12RoundRect,0.250000X-0.625000X0.350000X-0.625000X-0.350000X0.625000X-0.350000X0.625000X0.350000X0*%
%TD*%
%TA.AperFunction,ComponentPad*%
%ADD13O,1.750000X1.200000*%
%TD*%
%TA.AperFunction,ViaPad*%
%ADD14C,0.600000*%
%TD*%
%TA.AperFunction,Conductor*%
%ADD15C,0.500000*%
%TD*%
%TA.AperFunction,Conductor*%
%ADD16C,0.200000*%
%TD*%
G04 APERTURE END LIST*
D10*
%TO.P,J3,SH*%
%TO.N,GND*%
X155217447Y-103920000D03*
D11*
X155217447Y-108100000D03*
D10*
X163857447Y-103920000D03*
D11*
X163857447Y-108100000D03*
%TD*%
D12*
%TO.P,J1,1*%
%TO.N,+4V7_IN*%
X141457447Y-104700000D03*
D13*
%TO.P,J1,2*%
%TO.N,GND*%
X141457447Y-106700000D03*
%TO.P,J1,3*%
%TO.N,+36V*%
X141457447Y-108700000D03*
%TD*%
D14*
%TO.N,GND*%
X163385972Y-99562298D03*
X165942402Y-89526250D03*
X161711590Y-89934607D03*
X150501031Y-87030000D03*
X142880735Y-83650200D03*
X155710647Y-95077700D03*
%TO.N,+4V7_IN*%
X137007447Y-102300000D03*
X169207447Y-88100000D03*
X140407447Y-103100000D03*
%TO.N,+3V3*%
X140807447Y-85100000D03*
X147207447Y-84900000D03*
%TO.N,USB_DP*%
X157407447Y-94900000D03*
X139607447Y-84900000D03*
%TO.N,USB_DM*%
X148007447Y-95300000D03*
X144007447Y-83700000D03*
X160207447Y-101100000D03*
X158207447Y-101100000D03*
%TO.N,VBUS*%
X164207447Y-99700000D03*
X162407447Y-85700000D03*
%TO.N,WW_GATE*%
X161807447Y-96700000D03*
X166207447Y-92300000D03*
%TO.N,CC2*%
X164007447Y-101500000D03*
X161207447Y-101100000D03*
%TO.N,IO9*%
X143807447Y-91500000D03*
X143807447Y-85100000D03*
%TD*%
%TO.N,+4V7_IN*%
D15*
X140407447Y-103100000D02*
X139607447Y-102300000D01*
X169207447Y-88100000D02*
X155268107Y-102039340D01*
X139607447Y-102300000D02*
X137007447Y-102300000D01*
D16*
X155268107Y-102039340D02*
X154207447Y-103100000D01*
D15*
X154207447Y-103100000D02*
X140407447Y-103100000D01*
%TO.N,+3V3*%
D16*
X141407447Y-84500000D02*
X140807447Y-85100000D01*
X147207447Y-84900000D02*
X146807447Y-84500000D01*
X146807447Y-84500000D02*
X141407447Y-84500000D01*
%TO.N,USB_DP*%
X139607447Y-88148529D02*
X139607447Y-84900000D01*
X147358918Y-95900000D02*
X139607447Y-88148529D01*
X157407447Y-94900000D02*
X156407447Y-95900000D01*
X156407447Y-95900000D02*
X147358918Y-95900000D01*
%TO.N,USB_DM*%
X148007447Y-95300000D02*
X148007447Y-84851471D01*
X160207447Y-101100000D02*
X158207447Y-101100000D01*
X148007447Y-84851471D02*
X146855976Y-83700000D01*
X146855976Y-83700000D02*
X144007447Y-83700000D01*
%TO.N,VBUS*%
X169807447Y-94100000D02*
X164207447Y-99700000D01*
X169807447Y-87851471D02*
X169807447Y-94100000D01*
X162407447Y-85700000D02*
X167655976Y-85700000D01*
X167655976Y-85700000D02*
X169807447Y-87851471D01*
%TO.N,WW_GATE*%
X161807447Y-96700000D02*
X166207447Y-92300000D01*
%TO.N,CC2*%
X161207447Y-101100000D02*
X161607447Y-101500000D01*
X161607447Y-101500000D02*
X164007447Y-101500000D01*
%TO.N,IO9*%
X143807447Y-91500000D02*
X143807447Y-85100000D01*
%TD*%
%TA.AperFunction,Conductor*%
%TO.N,GND*%
G36*
X171556211Y-82118658D02*
G01*
X172104040Y-82453034D01*
X172109000Y-82456226D01*
X172773502Y-82906535D01*
X172778305Y-82909959D01*
X173420638Y-83391356D01*
X173425273Y-83395004D01*
X174044020Y-83906429D01*
X174048475Y-83910294D01*
X174642177Y-84450540D01*
X174646445Y-84454613D01*
X175170398Y-84979057D01*
X175213778Y-85022477D01*
X175217846Y-85026747D01*
X175757548Y-85620962D01*
X175761409Y-85625422D01*
X176272231Y-86244614D01*
X176275875Y-86249251D01*
X176756681Y-86892044D01*
X176760101Y-86896850D01*
X177209800Y-87561785D01*
X177212987Y-87566748D01*
X177630548Y-88252300D01*
X177633496Y-88257409D01*
X178017998Y-88962069D01*
X178020699Y-88967313D01*
X178245618Y-89430645D01*
X178371243Y-89689430D01*
X178373692Y-89694796D01*
X178689504Y-90432777D01*
X178691691Y-90438244D01*
X178910868Y-91026260D01*
X178972057Y-91190420D01*
X178973985Y-91195994D01*
X179218261Y-91960640D01*
X179219922Y-91966300D01*
X179427559Y-92741695D01*
X179428949Y-92747427D01*
X179599483Y-93531841D01*
X179600598Y-93537633D01*
X179733633Y-94329236D01*
X179734472Y-94335075D01*
X179829713Y-95132127D01*
X179830273Y-95137998D01*
X179887503Y-95938657D01*
X179887784Y-95944549D01*
X179906876Y-96747051D01*
X179906876Y-96752949D01*
X179887784Y-97555450D01*
X179887503Y-97561342D01*
X179830273Y-98362001D01*
X179829713Y-98367872D01*
X179734472Y-99164924D01*
X179733633Y-99170763D01*
X179600598Y-99962366D01*
X179599483Y-99968158D01*
X179428949Y-100752572D01*
X179427559Y-100758304D01*
X179219922Y-101533699D01*
X179218261Y-101539359D01*
X178973985Y-102304005D01*
X178972057Y-102309579D01*
X178691695Y-103061746D01*
X178689504Y-103067222D01*
X178373692Y-103805203D01*
X178371243Y-103810569D01*
X178020699Y-104532686D01*
X178017998Y-104537930D01*
X177633496Y-105242590D01*
X177630548Y-105247699D01*
X177212987Y-105933251D01*
X177209800Y-105938214D01*
X176760101Y-106603149D01*
X176756681Y-106607955D01*
X176275875Y-107250748D01*
X176272231Y-107255385D01*
X175761409Y-107874577D01*
X175757548Y-107879037D01*
X175217846Y-108473252D01*
X175213778Y-108477522D01*
X174646444Y-109045386D01*
X174642177Y-109049459D01*
X174048475Y-109589705D01*
X174044020Y-109593570D01*
X173425273Y-110104995D01*
X173420638Y-110108643D01*
X172778305Y-110590040D01*
X172773502Y-110593464D01*
X172109000Y-111043773D01*
X172104040Y-111046965D01*
X171556211Y-111381342D01*
X171491609Y-111399500D01*
X131931447Y-111399500D01*
X131864408Y-111379815D01*
X131818653Y-111327011D01*
X131807447Y-111275500D01*
X131807447Y-108611304D01*
X140281947Y-108611304D01*
X140281947Y-108788695D01*
X140316550Y-108962658D01*
X140316553Y-108962667D01*
X140384430Y-109126540D01*
X140384437Y-109126553D01*
X140482982Y-109274034D01*
X140482985Y-109274038D01*
X140608408Y-109399461D01*
X140608412Y-109399464D01*
X140755893Y-109498009D01*
X140755906Y-109498016D01*
X140878810Y-109548923D01*
X140919781Y-109565894D01*
X140919783Y-109565894D01*
X140919788Y-109565896D01*
X141093751Y-109600499D01*
X141093754Y-109600500D01*
X141093756Y-109600500D01*
X141821140Y-109600500D01*
X141821141Y-109600499D01*
X141879129Y-109588964D01*
X141995105Y-109565896D01*
X141995108Y-109565894D01*
X141995113Y-109565894D01*
X142158994Y-109498013D01*
X142306482Y-109399464D01*
X142431911Y-109274035D01*
X142530460Y-109126547D01*
X142598341Y-108962666D01*
X142632947Y-108788691D01*
X142632947Y-108611309D01*
X142632947Y-108611306D01*
X142632946Y-108611304D01*
X142598343Y-108437341D01*
X142598340Y-108437332D01*
X142530463Y-108273459D01*
X142530456Y-108273446D01*
X142431911Y-108125965D01*
X142431908Y-108125961D01*
X142306485Y-108000538D01*
X142306481Y-108000535D01*
X142159000Y-107901990D01*
X142158987Y-107901983D01*
X141995114Y-107834106D01*
X141995105Y-107834103D01*
X141821141Y-107799500D01*
X141821138Y-107799500D01*
X141093756Y-107799500D01*
X141093753Y-107799500D01*
X140919788Y-107834103D01*
X140919779Y-107834106D01*
X140755906Y-107901983D01*
X140755893Y-107901990D01*
X140608412Y-108000535D01*
X140608408Y-108000538D01*
X140482985Y-108125961D01*
X140482982Y-108125965D01*
X140384437Y-108273446D01*
X140384430Y-108273459D01*
X140316553Y-108437332D01*
X140316550Y-108437341D01*
X140281947Y-108611304D01*
X131807447Y-108611304D01*
X131807447Y-102220943D01*
X136406947Y-102220943D01*
X136406947Y-102379057D01*
X136447343Y-102529815D01*
X136447870Y-102531783D01*
X136447873Y-102531790D01*
X136526922Y-102668709D01*
X136526926Y-102668714D01*
X136526927Y-102668716D01*
X136638731Y-102780520D01*
X136638733Y-102780521D01*
X136638737Y-102780524D01*
X136759941Y-102850500D01*
X136775663Y-102859577D01*
X136928390Y-102900500D01*
X136928392Y-102900500D01*
X137086502Y-102900500D01*
X137086504Y-102900500D01*
X137239231Y-102859577D01*
X137239232Y-102859576D01*
X137247082Y-102857473D01*
X137247267Y-102858165D01*
X137285810Y-102850500D01*
X139328060Y-102850500D01*
X139395099Y-102870185D01*
X139415741Y-102886819D01*
X139821352Y-103292430D01*
X139843184Y-103325105D01*
X139843806Y-103324746D01*
X139926924Y-103468712D01*
X139926926Y-103468715D01*
X139926927Y-103468716D01*
X140038731Y-103580520D01*
X140038733Y-103580521D01*
X140038737Y-103580524D01*
X140159941Y-103650500D01*
X140175663Y-103659577D01*
X140328390Y-103700500D01*
X140328392Y-103700500D01*
X140409137Y-103700500D01*
X140476176Y-103720185D01*
X140521931Y-103772989D01*
X140531875Y-103842147D01*
X140502850Y-103905703D01*
X140484062Y-103923304D01*
X140439524Y-103957077D01*
X140348086Y-104077656D01*
X140292569Y-104218438D01*
X140286635Y-104267853D01*
X140281947Y-104306898D01*
X140281947Y-105093102D01*
X140287573Y-105139954D01*
X140292569Y-105181561D01*
X140348086Y-105322343D01*
X140439524Y-105442922D01*
X140560103Y-105534360D01*
X140560104Y-105534360D01*
X140560105Y-105534361D01*
X140700883Y-105589877D01*
X140789345Y-105600500D01*
X140789350Y-105600500D01*
X142125544Y-105600500D01*
X142125549Y-105600500D01*
X142214011Y-105589877D01*
X142354789Y-105534361D01*
X142475369Y-105442922D01*
X142566808Y-105322342D01*
X142622324Y-105181564D01*
X142632947Y-105093102D01*
X142632947Y-104374234D01*
X156071947Y-104374234D01*
X156071947Y-104525766D01*
X156091556Y-104598950D01*
X156111166Y-104672136D01*
X156149049Y-104737750D01*
X156186932Y-104803365D01*
X156294082Y-104910515D01*
X156425312Y-104986281D01*
X156571681Y-105025500D01*
X156571683Y-105025500D01*
X156723211Y-105025500D01*
X156723213Y-105025500D01*
X156869582Y-104986281D01*
X157000812Y-104910515D01*
X157107962Y-104803365D01*
X157183728Y-104672135D01*
X157222947Y-104525766D01*
X157222947Y-104374234D01*
X161851947Y-104374234D01*
X161851947Y-104525766D01*
X161871556Y-104598950D01*
X161891166Y-104672136D01*
X161929049Y-104737750D01*
X161966932Y-104803365D01*
X162074082Y-104910515D01*
X162205312Y-104986281D01*
X162351681Y-105025500D01*
X162351683Y-105025500D01*
X162503211Y-105025500D01*
X162503213Y-105025500D01*
X162649582Y-104986281D01*
X162780812Y-104910515D01*
X162887962Y-104803365D01*
X162963728Y-104672135D01*
X163002947Y-104525766D01*
X163002947Y-104374234D01*
X162963728Y-104227865D01*
X162887962Y-104096635D01*
X162780812Y-103989485D01*
X162666184Y-103923304D01*
X162649583Y-103913719D01*
X162576397Y-103894109D01*
X162503213Y-103874500D01*
X162351681Y-103874500D01*
X162205310Y-103913719D01*
X162074082Y-103989485D01*
X162074079Y-103989487D01*
X161966934Y-104096632D01*
X161966932Y-104096635D01*
X161891166Y-104227863D01*
X161869989Y-104306898D01*
X161851947Y-104374234D01*
X157222947Y-104374234D01*
X157183728Y-104227865D01*
X157107962Y-104096635D01*
X157000812Y-103989485D01*
X156886184Y-103923304D01*
X156869583Y-103913719D01*
X156796397Y-103894109D01*
X156723213Y-103874500D01*
X156571681Y-103874500D01*
X156425310Y-103913719D01*
X156294082Y-103989485D01*
X156294079Y-103989487D01*
X156186934Y-104096632D01*
X156186932Y-104096635D01*
X156111166Y-104227863D01*
X156089989Y-104306898D01*
X156071947Y-104374234D01*
X142632947Y-104374234D01*
X142632947Y-104306898D01*
X142622324Y-104218436D01*
X142566808Y-104077658D01*
X142566807Y-104077657D01*
X142566807Y-104077656D01*
X142475369Y-103957077D01*
X142364897Y-103873304D01*
X142323373Y-103817111D01*
X142318822Y-103747390D01*
X142352687Y-103686276D01*
X142414217Y-103653172D01*
X142439822Y-103650500D01*
X154279919Y-103650500D01*
X154279922Y-103650500D01*
X154419932Y-103612984D01*
X154545462Y-103540509D01*
X154647956Y-103438015D01*
X154720431Y-103312485D01*
X154757947Y-103172475D01*
X154757947Y-103167254D01*
X154777632Y-103100215D01*
X154794266Y-103079573D01*
X155247680Y-102626159D01*
X155309003Y-102592674D01*
X155335361Y-102589840D01*
X155340578Y-102589840D01*
X155340581Y-102589840D01*
X155480592Y-102552324D01*
X155606122Y-102479850D01*
X157065028Y-101020943D01*
X157606947Y-101020943D01*
X157606947Y-101179056D01*
X157647870Y-101331783D01*
X157647873Y-101331790D01*
X157726922Y-101468709D01*
X157726926Y-101468714D01*
X157726927Y-101468716D01*
X157838731Y-101580520D01*
X157838733Y-101580521D01*
X157838737Y-101580524D01*
X157975656Y-101659573D01*
X157975663Y-101659577D01*
X158128390Y-101700500D01*
X158128392Y-101700500D01*
X158286502Y-101700500D01*
X158286504Y-101700500D01*
X158439231Y-101659577D01*
X158576163Y-101580520D01*
X158619864Y-101536819D01*
X158681187Y-101503334D01*
X158707545Y-101500500D01*
X159707349Y-101500500D01*
X159774388Y-101520185D01*
X159795030Y-101536819D01*
X159838731Y-101580520D01*
X159838733Y-101580521D01*
X159838737Y-101580524D01*
X159975656Y-101659573D01*
X159975663Y-101659577D01*
X160128390Y-101700500D01*
X160128392Y-101700500D01*
X160286502Y-101700500D01*
X160286504Y-101700500D01*
X160439231Y-101659577D01*
X160576163Y-101580520D01*
X160619766Y-101536917D01*
X160681089Y-101503432D01*
X160750781Y-101508416D01*
X160795128Y-101536917D01*
X160838731Y-101580520D01*
X160838733Y-101580521D01*
X160838737Y-101580524D01*
X160975656Y-101659573D01*
X160975663Y-101659577D01*
X161128390Y-101700500D01*
X161190192Y-101700500D01*
X161257231Y-101720185D01*
X161277873Y-101736819D01*
X161286966Y-101745912D01*
X161286967Y-101745913D01*
X161361534Y-101820480D01*
X161452860Y-101873207D01*
X161554720Y-101900500D01*
X163507349Y-101900500D01*
X163574388Y-101920185D01*
X163595030Y-101936819D01*
X163638731Y-101980520D01*
X163638733Y-101980521D01*
X163638737Y-101980524D01*
X163713083Y-102023447D01*
X163775663Y-102059577D01*
X163928390Y-102100500D01*
X163928392Y-102100500D01*
X164086502Y-102100500D01*
X164086504Y-102100500D01*
X164239231Y-102059577D01*
X164376163Y-101980520D01*
X164487967Y-101868716D01*
X164567024Y-101731784D01*
X164607947Y-101579057D01*
X164607947Y-101420943D01*
X164567024Y-101268216D01*
X164515548Y-101179056D01*
X164487971Y-101131290D01*
X164487965Y-101131282D01*
X164376164Y-101019481D01*
X164376156Y-101019475D01*
X164239237Y-100940426D01*
X164239233Y-100940424D01*
X164239231Y-100940423D01*
X164086504Y-100899500D01*
X163928390Y-100899500D01*
X163775663Y-100940423D01*
X163775656Y-100940426D01*
X163638737Y-101019475D01*
X163638729Y-101019481D01*
X163595030Y-101063181D01*
X163533707Y-101096666D01*
X163507349Y-101099500D01*
X161924144Y-101099500D01*
X161857105Y-101079815D01*
X161811350Y-101027011D01*
X161804372Y-101007602D01*
X161767024Y-100868216D01*
X161700258Y-100752572D01*
X161687971Y-100731290D01*
X161687965Y-100731282D01*
X161576164Y-100619481D01*
X161576156Y-100619475D01*
X161439237Y-100540426D01*
X161439233Y-100540424D01*
X161439231Y-100540423D01*
X161286504Y-100499500D01*
X161128390Y-100499500D01*
X160975663Y-100540423D01*
X160975656Y-100540426D01*
X160838737Y-100619475D01*
X160838729Y-100619481D01*
X160795128Y-100663083D01*
X160733805Y-100696568D01*
X160664113Y-100691584D01*
X160619766Y-100663083D01*
X160576164Y-100619481D01*
X160576156Y-100619475D01*
X160439237Y-100540426D01*
X160439233Y-100540424D01*
X160439231Y-100540423D01*
X160286504Y-100499500D01*
X160128390Y-100499500D01*
X159975663Y-100540423D01*
X159975656Y-100540426D01*
X159838737Y-100619475D01*
X159838729Y-100619481D01*
X159795030Y-100663181D01*
X159733707Y-100696666D01*
X159707349Y-100699500D01*
X158707545Y-100699500D01*
X158640506Y-100679815D01*
X158619864Y-100663181D01*
X158576164Y-100619481D01*
X158576156Y-100619475D01*
X158439237Y-100540426D01*
X158439233Y-100540424D01*
X158439231Y-100540423D01*
X158286504Y-100499500D01*
X158128390Y-100499500D01*
X157975663Y-100540423D01*
X157975656Y-100540426D01*
X157838737Y-100619475D01*
X157838729Y-100619481D01*
X157726928Y-100731282D01*
X157726922Y-100731290D01*
X157647873Y-100868209D01*
X157647870Y-100868216D01*
X157606947Y-101020943D01*
X157065028Y-101020943D01*
X161099312Y-96986657D01*
X161160633Y-96953174D01*
X161230325Y-96958158D01*
X161286258Y-97000030D01*
X161294378Y-97012340D01*
X161326924Y-97068712D01*
X161326926Y-97068715D01*
X161326927Y-97068716D01*
X161438731Y-97180520D01*
X161438733Y-97180521D01*
X161438737Y-97180524D01*
X161575656Y-97259573D01*
X161575663Y-97259577D01*
X161728390Y-97300500D01*
X161728392Y-97300500D01*
X161886502Y-97300500D01*
X161886504Y-97300500D01*
X162039231Y-97259577D01*
X162176163Y-97180520D01*
X162287967Y-97068716D01*
X162367024Y-96931784D01*
X162407947Y-96779057D01*
X162407947Y-96717254D01*
X162427632Y-96650215D01*
X162444266Y-96629573D01*
X166137020Y-92936819D01*
X166198343Y-92903334D01*
X166224701Y-92900500D01*
X166286502Y-92900500D01*
X166286504Y-92900500D01*
X166439231Y-92859577D01*
X166576163Y-92780520D01*
X166687967Y-92668716D01*
X166767024Y-92531784D01*
X166807947Y-92379057D01*
X166807947Y-92220943D01*
X166767024Y-92068216D01*
X166740545Y-92022352D01*
X166687971Y-91931290D01*
X166687965Y-91931282D01*
X166576164Y-91819481D01*
X166576159Y-91819477D01*
X166519787Y-91786931D01*
X166471571Y-91736364D01*
X166458348Y-91667757D01*
X166484316Y-91602892D01*
X166494097Y-91591872D01*
X169195268Y-88890702D01*
X169256589Y-88857219D01*
X169326281Y-88862203D01*
X169382214Y-88904075D01*
X169406631Y-88969539D01*
X169406947Y-88978385D01*
X169406947Y-93882745D01*
X169387262Y-93949784D01*
X169370628Y-93970426D01*
X164277873Y-99063181D01*
X164216550Y-99096666D01*
X164190192Y-99099500D01*
X164128390Y-99099500D01*
X163975663Y-99140423D01*
X163975656Y-99140426D01*
X163838737Y-99219475D01*
X163838729Y-99219481D01*
X163726928Y-99331282D01*
X163726922Y-99331290D01*
X163647873Y-99468209D01*
X163647870Y-99468216D01*
X163606947Y-99620943D01*
X163606947Y-99779056D01*
X163647870Y-99931783D01*
X163647873Y-99931790D01*
X163726922Y-100068709D01*
X163726926Y-100068714D01*
X163726927Y-100068716D01*
X163838731Y-100180520D01*
X163838733Y-100180521D01*
X163838737Y-100180524D01*
X163975656Y-100259573D01*
X163975663Y-100259577D01*
X164128390Y-100300500D01*
X164128392Y-100300500D01*
X164286502Y-100300500D01*
X164286504Y-100300500D01*
X164439231Y-100259577D01*
X164576163Y-100180520D01*
X164687967Y-100068716D01*
X164767024Y-99931784D01*
X164807947Y-99779057D01*
X164807947Y-99717255D01*
X164827632Y-99650216D01*
X164844266Y-99629574D01*
X167473810Y-97000030D01*
X170127927Y-94345913D01*
X170180654Y-94254588D01*
X170207947Y-94152727D01*
X170207947Y-94047273D01*
X170207947Y-87798744D01*
X170180654Y-87696884D01*
X170127927Y-87605558D01*
X170053360Y-87530991D01*
X167901889Y-85379520D01*
X167848570Y-85348736D01*
X167810565Y-85326793D01*
X167728106Y-85304699D01*
X167708703Y-85299500D01*
X167708702Y-85299500D01*
X162907545Y-85299500D01*
X162840506Y-85279815D01*
X162819864Y-85263181D01*
X162776164Y-85219481D01*
X162776156Y-85219475D01*
X162639237Y-85140426D01*
X162639233Y-85140424D01*
X162639231Y-85140423D01*
X162486504Y-85099500D01*
X162328390Y-85099500D01*
X162175663Y-85140423D01*
X162175656Y-85140426D01*
X162038737Y-85219475D01*
X162038729Y-85219481D01*
X161926928Y-85331282D01*
X161926922Y-85331290D01*
X161847873Y-85468209D01*
X161847870Y-85468216D01*
X161806947Y-85620943D01*
X161806947Y-85779056D01*
X161847870Y-85931783D01*
X161847873Y-85931790D01*
X161926922Y-86068709D01*
X161926926Y-86068714D01*
X161926927Y-86068716D01*
X162038731Y-86180520D01*
X162038733Y-86180521D01*
X162038737Y-86180524D01*
X162175656Y-86259573D01*
X162175663Y-86259577D01*
X162328390Y-86300500D01*
X162328392Y-86300500D01*
X162486502Y-86300500D01*
X162486504Y-86300500D01*
X162639231Y-86259577D01*
X162776163Y-86180520D01*
X162819864Y-86136819D01*
X162881187Y-86103334D01*
X162907545Y-86100500D01*
X167438721Y-86100500D01*
X167505760Y-86120185D01*
X167526402Y-86136819D01*
X168836216Y-87446633D01*
X168869701Y-87507956D01*
X168864717Y-87577648D01*
X168836216Y-87621995D01*
X168726928Y-87731282D01*
X168726924Y-87731287D01*
X168643806Y-87875254D01*
X168643184Y-87874895D01*
X168621352Y-87907569D01*
X154827598Y-101701323D01*
X154827596Y-101701326D01*
X154755123Y-101826854D01*
X154742703Y-101873206D01*
X154717607Y-101966866D01*
X154717607Y-101966868D01*
X154717607Y-101972085D01*
X154697922Y-102039124D01*
X154681288Y-102059766D01*
X154227873Y-102513181D01*
X154166550Y-102546666D01*
X154140192Y-102549500D01*
X140686834Y-102549500D01*
X140619795Y-102529815D01*
X140599153Y-102513181D01*
X139945463Y-101859491D01*
X139945462Y-101859490D01*
X139819932Y-101787016D01*
X139819927Y-101787014D01*
X139781109Y-101776612D01*
X139781109Y-101776613D01*
X139730515Y-101763056D01*
X139679922Y-101749500D01*
X139679921Y-101749500D01*
X137285810Y-101749500D01*
X137247267Y-101741834D01*
X137247082Y-101742527D01*
X137239232Y-101740423D01*
X137239231Y-101740423D01*
X137086504Y-101699500D01*
X136928390Y-101699500D01*
X136775663Y-101740423D01*
X136775656Y-101740426D01*
X136638737Y-101819475D01*
X136638729Y-101819481D01*
X136526928Y-101931282D01*
X136526922Y-101931290D01*
X136447873Y-102068209D01*
X136447870Y-102068216D01*
X136406947Y-102220943D01*
X131807447Y-102220943D01*
X131807447Y-84820943D01*
X139006947Y-84820943D01*
X139006947Y-84979057D01*
X139019726Y-85026747D01*
X139047870Y-85131783D01*
X139047873Y-85131790D01*
X139126922Y-85268709D01*
X139126928Y-85268717D01*
X139170628Y-85312417D01*
X139204113Y-85373740D01*
X139206947Y-85400098D01*
X139206947Y-88201255D01*
X139234240Y-88303118D01*
X139260603Y-88348779D01*
X139286967Y-88394442D01*
X147038437Y-96145912D01*
X147038438Y-96145913D01*
X147113005Y-96220480D01*
X147204331Y-96273207D01*
X147306191Y-96300500D01*
X147306193Y-96300500D01*
X156460172Y-96300500D01*
X156460174Y-96300500D01*
X156562035Y-96273207D01*
X156653360Y-96220480D01*
X157337020Y-95536818D01*
X157398343Y-95503334D01*
X157424701Y-95500500D01*
X157486502Y-95500500D01*
X157486504Y-95500500D01*
X157639231Y-95459577D01*
X157776163Y-95380520D01*
X157887967Y-95268716D01*
X157967024Y-95131784D01*
X158007947Y-94979057D01*
X158007947Y-94820943D01*
X157967024Y-94668216D01*
X157967020Y-94668209D01*
X157887971Y-94531290D01*
X157887965Y-94531282D01*
X157776164Y-94419481D01*
X157776156Y-94419475D01*
X157639237Y-94340426D01*
X157639233Y-94340424D01*
X157639231Y-94340423D01*
X157486504Y-94299500D01*
X157328390Y-94299500D01*
X157175663Y-94340423D01*
X157175656Y-94340426D01*
X157038737Y-94419475D01*
X157038729Y-94419481D01*
X156926928Y-94531282D01*
X156926922Y-94531290D01*
X156847873Y-94668209D01*
X156847870Y-94668216D01*
X156806947Y-94820943D01*
X156806947Y-94882745D01*
X156787262Y-94949784D01*
X156770628Y-94970426D01*
X156277873Y-95463181D01*
X156216550Y-95496666D01*
X156190192Y-95499500D01*
X148731947Y-95499500D01*
X148664908Y-95479815D01*
X148619153Y-95427011D01*
X148607947Y-95375500D01*
X148607947Y-95220945D01*
X148607947Y-95220943D01*
X148567024Y-95068216D01*
X148515548Y-94979056D01*
X148487971Y-94931290D01*
X148487965Y-94931282D01*
X148444266Y-94887583D01*
X148410781Y-94826260D01*
X148407947Y-94799902D01*
X148407947Y-84798747D01*
X148407947Y-84798744D01*
X148392076Y-84739511D01*
X148380654Y-84696883D01*
X148327927Y-84605558D01*
X147101889Y-83379520D01*
X147056226Y-83353156D01*
X147010565Y-83326793D01*
X146959633Y-83313146D01*
X146908703Y-83299500D01*
X146908702Y-83299500D01*
X144507545Y-83299500D01*
X144440506Y-83279815D01*
X144419864Y-83263181D01*
X144376164Y-83219481D01*
X144376156Y-83219475D01*
X144239237Y-83140426D01*
X144239233Y-83140424D01*
X144239231Y-83140423D01*
X144086504Y-83099500D01*
X143928390Y-83099500D01*
X143775663Y-83140423D01*
X143775656Y-83140426D01*
X143638737Y-83219475D01*
X143638729Y-83219481D01*
X143526928Y-83331282D01*
X143526922Y-83331290D01*
X143447873Y-83468209D01*
X143447870Y-83468216D01*
X143406947Y-83620943D01*
X143406947Y-83779056D01*
X143449974Y-83939635D01*
X143447637Y-83940260D01*
X143453789Y-83997528D01*
X143422508Y-84060004D01*
X143362416Y-84095651D01*
X143331761Y-84099500D01*
X141354720Y-84099500D01*
X141252857Y-84126793D01*
X141161534Y-84179520D01*
X141161531Y-84179522D01*
X140877873Y-84463181D01*
X140816550Y-84496666D01*
X140790192Y-84499500D01*
X140728390Y-84499500D01*
X140575663Y-84540423D01*
X140575656Y-84540426D01*
X140438737Y-84619475D01*
X140438733Y-84619478D01*
X140362905Y-84695306D01*
X140301581Y-84728790D01*
X140231890Y-84723806D01*
X140175956Y-84681934D01*
X140167837Y-84669623D01*
X140087971Y-84531290D01*
X140087965Y-84531282D01*
X139976164Y-84419481D01*
X139976156Y-84419475D01*
X139839237Y-84340426D01*
X139839233Y-84340424D01*
X139839231Y-84340423D01*
X139686504Y-84299500D01*
X139528390Y-84299500D01*
X139375663Y-84340423D01*
X139375656Y-84340426D01*
X139238737Y-84419475D01*
X139238729Y-84419481D01*
X139126928Y-84531282D01*
X139126922Y-84531290D01*
X139047873Y-84668209D01*
X139047870Y-84668216D01*
X139006947Y-84820943D01*
X131807447Y-84820943D01*
X131807447Y-82224500D01*
X131827132Y-82157461D01*
X131879936Y-82111706D01*
X131931447Y-82100500D01*
X171491609Y-82100500D01*
X171556211Y-82118658D01*
G37*
%TD.AperFunction*%
%TD*%
M02*
